<svg width="335" height="197" viewBox="0 0 335 197" fill="none" xmlns="http://www.w3.org/2000/svg">
<path opacity="0.2" d="M148.329 -40.0197C148.329 3.93074 112.675 39.5597 68.6922 39.5597C24.7094 39.5597 -10.9453 3.93074 -10.9453 -40.0197C-10.9453 -83.9696 24.7094 -119.598 68.6922 -119.598C112.674 -119.598 148.329 -83.9696 148.329 -40.0197Z" fill="#00A478"/>
<path opacity="0.2" d="M198.596 87.0723C198.596 100.476 187.723 111.341 174.31 111.341C160.897 111.341 150.023 100.476 150.023 87.0723C150.023 73.6691 160.897 62.8037 174.31 62.8037C187.723 62.8037 198.596 73.6691 198.596 87.0723Z" fill="#00A478"/>
<path d="M171.82 86.6474V82.4017H166.057V78.6801H182.16V82.4541H176.397V86.6474H171.82Z" fill="#00A478"/>
<path fillRule="evenodd" clipRule="evenodd" d="M163.579 87.1191C163.579 85.7039 168.211 84.5507 173.974 84.5507C179.737 84.5507 184.368 85.7039 184.368 87.1191C184.368 88.5343 179.737 89.6875 173.974 89.6875C168.211 89.6875 163.579 88.5343 163.579 87.1191ZM183.507 87.1191C183.13 86.5949 180.006 84.97 173.974 84.97C167.942 84.97 164.818 86.5425 164.441 87.1191C164.818 87.6433 167.942 88.4295 173.974 88.4295C180.06 88.4295 183.13 87.6433 183.507 87.1191Z" fill="#00A478"/>
<path d="M176.397 87.9578V85.0225C175.643 84.97 174.836 84.9176 174.028 84.9176C173.274 84.9176 172.574 84.9176 171.873 84.97V87.9053C172.52 87.9053 173.274 87.9578 174.028 87.9578C174.836 88.0102 175.643 88.0102 176.397 87.9578Z" fill="#00A478"/>
<path d="M173.974 89.6875C173.22 89.6875 172.52 89.6875 171.82 89.6351V97.4451H176.344V89.5827C175.59 89.6351 174.782 89.6875 173.974 89.6875Z" fill="#00A478"/>
<path opacity="0.2" d="M147.434 90.4024C141.519 114.111 117.487 128.538 93.7582 122.627C70.0405 116.716 55.6012 92.7023 61.5178 68.9951C67.4303 45.2839 91.4608 30.8538 115.183 36.7647C138.91 42.6756 153.348 66.6925 147.433 90.4024H147.434Z" fill="#F7931A"/>
<path fillRule="evenodd" clipRule="evenodd" d="M117.813 74.5544C118.41 70.5596 115.366 68.412 111.204 66.9794L112.554 61.5679L109.257 60.747L107.942 66.0159C107.077 65.8001 106.187 65.5965 105.302 65.3948L106.626 60.0912L103.332 59.2702L101.981 64.6799C101.263 64.5166 100.559 64.3553 99.8755 64.1854L99.8793 64.1686L95.3332 63.0343L94.4563 66.5525C94.4563 66.5525 96.9021 67.1126 96.8504 67.1473C98.1855 67.4804 98.4278 68.3632 98.3865 69.0631L96.8486 75.228C96.9406 75.2515 97.0598 75.2853 97.1913 75.3378L96.8439 75.2515L94.6872 83.8876C94.5239 84.2929 94.1098 84.9008 93.1766 84.67C93.2094 84.7179 90.7805 84.0724 90.7805 84.0724L89.144 87.844L93.4348 88.9126C93.9191 89.0339 94.3977 89.1586 94.8709 89.282C95.1774 89.3619 95.4816 89.4412 95.7839 89.5186L94.4197 94.993L97.7123 95.8139L99.0643 90.3987C99.9629 90.6426 100.836 90.8678 101.69 91.0798L100.344 96.4697L103.64 97.2907L105.005 91.8275C110.626 92.8905 114.854 92.4618 116.631 87.3824C118.065 83.2918 116.561 80.9323 113.603 79.3927C115.757 78.8945 117.379 77.4788 117.812 74.5544H117.813ZM110.28 85.1082C109.344 88.8625 103.462 87.3091 100.773 86.599C100.533 86.5354 100.317 86.4786 100.134 86.4329L101.944 79.1816C102.168 79.2376 102.443 79.2991 102.754 79.3688C105.535 79.9926 111.236 81.2709 110.281 85.1082H110.28ZM103.313 76.0039C105.556 76.6021 110.447 77.9058 111.299 74.4953C112.17 71.0062 107.414 69.9546 105.092 69.441C104.831 69.3833 104.6 69.3323 104.412 69.2855L102.771 75.8622C102.926 75.9009 103.109 75.9495 103.313 76.0039Z" fill="#F7931A"/>
<path opacity="0.2" fillRule="evenodd" clipRule="evenodd" d="M271.997 190.923C313.704 190.923 347.514 157.137 347.514 115.461C347.514 73.7852 313.704 40 271.997 40C230.291 40 196.48 73.7852 196.48 115.461C196.48 157.137 230.291 190.923 271.997 190.923Z" fill="#83BD67"/>
<path fillRule="evenodd" clipRule="evenodd" d="M265.382 80.633C269.529 80.633 273.661 80.633 277.809 80.633C277.565 83.4366 277.305 86.2553 277.077 89.0589C281.91 89.4093 286.622 90.9634 290.861 93.2642C289.031 97.8656 287.186 102.467 285.341 107.068C281.773 104.036 277.077 102.36 272.396 102.421C271.221 102.452 270.002 102.68 269.026 103.351C268.385 103.793 267.913 104.478 267.775 105.24C267.669 105.85 267.699 106.535 268.035 107.084C268.416 107.693 269.087 108.059 269.758 108.287C271.13 108.775 272.609 108.805 274.042 108.958C277.412 109.369 280.797 109.948 283.984 111.152C286.454 112.097 288.817 113.514 290.51 115.586C292.111 117.49 293.041 119.898 293.392 122.366C293.803 125.215 293.681 128.171 292.797 130.944C292.111 133.169 290.937 135.241 289.412 136.993C286.256 140.65 281.62 142.844 276.863 143.408C277.016 146.409 277.199 149.396 277.366 152.397C273.432 152.397 269.514 152.397 265.595 152.397C265.748 149.426 265.946 146.455 266.083 143.484C262.927 143.377 259.801 142.676 256.858 141.564C254.007 140.482 251.293 139.05 248.761 137.374C250.622 132.59 252.482 127.805 254.357 123.006C256.477 124.789 258.734 126.449 261.204 127.714C263.857 129.07 266.8 129.939 269.788 129.969C271.206 129.984 272.67 129.908 274.012 129.421C274.835 129.116 275.643 128.583 276.009 127.745C276.39 126.861 276.36 125.749 275.781 124.956C275.369 124.423 274.789 124.057 274.18 123.798C273.356 123.463 272.502 123.28 271.633 123.143C268.431 122.625 265.214 122.198 262.119 121.193C259.633 120.385 257.209 119.258 255.227 117.521C253.976 116.439 252.939 115.113 252.207 113.62C251.11 111.396 250.698 108.882 250.728 106.413C250.728 103.656 251.293 100.852 252.665 98.4294C253.854 96.2658 255.669 94.4983 257.712 93.1423C260.182 91.5119 262.942 90.3997 265.748 89.5007C265.626 86.5448 265.504 83.5889 265.382 80.633Z" fill="#83BD67"/>
<path opacity="0.2" fillRule="evenodd" clipRule="evenodd" d="M196.458 66.0788C218.409 66.0788 236.203 48.2971 236.203 26.3623C236.203 4.42749 218.409 -13.3542 196.458 -13.3542C174.507 -13.3542 156.712 4.42749 156.712 26.3623C156.712 48.2971 174.507 66.0788 196.458 66.0788Z" fill="#83BD67"/>
<path fillRule="evenodd" clipRule="evenodd" d="M192.976 8.03162C195.158 8.03162 197.333 8.03162 199.516 8.03162C199.388 9.50716 199.251 10.9907 199.131 12.4663C201.675 12.6507 204.155 13.4687 206.386 14.6796C205.423 17.1014 204.452 19.5232 203.481 21.945C201.603 20.3492 199.131 19.4671 196.667 19.4991C196.049 19.5152 195.407 19.6355 194.894 19.9883C194.557 20.2209 194.308 20.5817 194.236 20.9827C194.179 21.3035 194.195 21.6643 194.372 21.953C194.573 22.2738 194.926 22.4663 195.279 22.5866C196.001 22.8432 196.78 22.8592 197.534 22.9394C199.307 23.1559 201.089 23.4607 202.766 24.0942C204.066 24.5914 205.31 25.3372 206.201 26.4278C207.044 27.4302 207.533 28.6972 207.718 29.9964C207.934 31.496 207.87 33.0517 207.405 34.5112C207.044 35.682 206.426 36.7726 205.623 37.6948C203.962 39.6195 201.522 40.7742 199.019 41.0709C199.099 42.6507 199.195 44.2225 199.283 45.8023C197.213 45.8023 195.15 45.8023 193.088 45.8023C193.168 44.2385 193.273 42.6748 193.345 41.111C191.684 41.0549 190.038 40.686 188.49 40.1006C186.989 39.5312 185.56 38.7774 184.228 37.8953C185.207 35.3773 186.186 32.8592 187.173 30.3332C188.289 31.2714 189.477 32.1455 190.777 32.8111C192.173 33.5248 193.722 33.9819 195.295 33.998C196.041 34.006 196.812 33.9659 197.518 33.7093C197.951 33.5489 198.377 33.2682 198.569 32.8271C198.77 32.362 198.754 31.7766 198.449 31.3596C198.232 31.079 197.927 30.8865 197.606 30.7502C197.173 30.5737 196.723 30.4775 196.266 30.4053C194.581 30.1327 192.887 29.9081 191.258 29.3789C189.95 28.9538 188.674 28.3604 187.631 27.4462C186.973 26.8769 186.427 26.1792 186.042 25.3933C185.464 24.2225 185.247 22.8993 185.263 21.6002C185.263 20.1487 185.56 18.6732 186.283 17.3981C186.909 16.2594 187.864 15.3291 188.939 14.6154C190.239 13.7574 191.692 13.172 193.168 12.6988C193.104 11.1431 193.04 9.58735 192.976 8.03162Z" fill="#83BD67"/>
<path opacity="0.2" d="M199.627 152.888C199.627 176.89 180.156 196.347 156.138 196.347C132.119 196.347 112.648 176.89 112.648 152.888C112.648 128.887 132.119 109.431 156.138 109.431C180.156 109.431 199.627 128.887 199.627 152.888Z" fill="#F6D43D"/>
<path d="M168.359 171.047L167.356 166.493C167.299 166.225 167.155 166.025 166.926 165.892C166.677 165.758 166.429 165.739 166.181 165.835L166.037 165.892L165.693 165.977C165.54 166.015 165.363 166.059 165.162 166.106C164.962 166.154 164.728 166.201 164.46 166.249C164.194 166.297 163.91 166.34 163.615 166.378C163.319 166.416 162.999 166.45 162.655 166.479C162.311 166.507 161.967 166.521 161.623 166.521C159.196 166.521 157.013 165.868 155.074 164.56C153.134 163.251 151.706 161.48 150.789 159.247H161.88C162.091 159.247 162.282 159.175 162.454 159.032C162.626 158.889 162.731 158.712 162.769 158.502L163.457 155.294C163.514 155.008 163.457 154.75 163.285 154.521C163.094 154.291 162.855 154.177 162.568 154.177H149.413C149.356 152.878 149.356 151.876 149.413 151.169H163.4C163.917 151.169 164.222 150.921 164.317 150.425L165.005 147.16C165.062 146.893 164.996 146.645 164.805 146.415C164.633 146.186 164.394 146.071 164.089 146.071H150.674C151.63 143.933 153.063 142.252 154.974 141.03C156.885 139.808 159.044 139.197 161.451 139.197C161.528 139.159 161.81 139.169 162.297 139.226C162.784 139.283 163.061 139.307 163.128 139.297C163.194 139.288 163.443 139.317 163.873 139.383C164.303 139.45 164.518 139.483 164.518 139.483L165.02 139.583C165.163 139.612 165.273 139.636 165.349 139.655L165.464 139.684C165.712 139.76 165.941 139.736 166.152 139.612C166.362 139.488 166.496 139.302 166.554 139.054L167.786 134.5C167.843 134.252 167.814 134.022 167.7 133.812C167.528 133.583 167.337 133.44 167.127 133.383C165.369 132.944 163.515 132.724 161.566 132.724C157.285 132.724 153.459 133.946 150.087 136.39C146.714 138.834 144.388 142.061 143.107 146.071H140.299C140.031 146.071 139.811 146.157 139.639 146.328C139.468 146.5 139.382 146.72 139.382 146.987V150.252C139.382 150.52 139.467 150.739 139.639 150.911C139.812 151.083 140.031 151.168 140.299 151.168H142.219C142.161 152.085 142.152 153.087 142.19 154.176H140.299C140.05 154.176 139.835 154.266 139.654 154.448C139.472 154.629 139.382 154.844 139.382 155.092V158.329C139.382 158.577 139.472 158.791 139.654 158.973C139.835 159.155 140.05 159.244 140.299 159.244H143.022C144.225 163.464 146.499 166.82 149.843 169.312C153.188 171.805 157.095 173.05 161.566 173.05C161.93 173.05 162.297 173.041 162.67 173.021C163.043 173.002 163.391 172.973 163.716 172.935C164.041 172.898 164.361 172.855 164.677 172.807C164.992 172.759 165.279 172.712 165.536 172.663C165.794 172.616 166.038 172.568 166.267 172.521C166.496 172.473 166.702 172.421 166.884 172.363C167.065 172.306 167.217 172.263 167.342 172.235C167.466 172.206 167.567 172.172 167.643 172.135L167.786 172.106C167.997 172.03 168.159 171.891 168.273 171.69C168.388 171.491 168.416 171.276 168.359 171.047Z" fill="#FBE41A"/>
<path opacity="0.2" d="M53.185 63.2426C53.185 82.2566 37.7601 97.6705 18.7323 97.6705C-0.295744 97.6705 -15.7208 82.2566 -15.7208 63.2426C-15.7208 44.2288 -0.295744 28.815 18.7323 28.815C37.7599 28.815 53.185 44.2288 53.185 63.2426Z" fill="#F6D43D"/>
<path d="M28.4143 77.6276L27.6193 74.0202C27.5742 73.8081 27.4606 73.6493 27.2786 73.5438C27.0817 73.4377 26.885 73.423 26.6884 73.4987L26.5747 73.5438L26.3019 73.6117C26.1806 73.6416 26.0407 73.676 25.8818 73.7137C25.7228 73.7515 25.5377 73.7891 25.3255 73.8271C25.1143 73.865 24.8899 73.8992 24.6559 73.9294C24.4213 73.959 24.1682 73.986 23.8955 74.0088C23.6227 74.0311 23.3505 74.0426 23.0778 74.0426C21.1553 74.0426 19.4256 73.5246 17.8893 72.4885C16.3528 71.452 15.2212 70.049 14.4947 68.2796H23.2818C23.4486 68.2796 23.6 68.223 23.7357 68.1093C23.8724 67.9961 23.9557 67.8563 23.9854 67.6893L24.5303 65.1481C24.576 64.9218 24.5303 64.7173 24.3945 64.5356C24.2431 64.354 24.0534 64.2631 23.8267 64.2631H13.405C13.3596 63.2345 13.3596 62.4404 13.405 61.8806H24.4856C24.8947 61.8806 25.1366 61.6842 25.2123 61.2909L25.7572 58.7042C25.8023 58.4925 25.7501 58.2961 25.5982 58.1144C25.4625 57.9329 25.2733 57.8417 25.031 57.8417H14.4041C15.161 56.1476 16.2963 54.8165 17.8102 53.8484C19.324 52.88 21.0345 52.3961 22.9418 52.3961C23.0026 52.3659 23.2257 52.3736 23.6114 52.4189C23.9974 52.464 24.2173 52.4831 24.27 52.4754C24.3223 52.468 24.5199 52.4908 24.8601 52.5434C25.2008 52.5963 25.3713 52.6229 25.3713 52.6229L25.7686 52.7022C25.8824 52.7251 25.9694 52.7437 26.0299 52.759L26.1208 52.7816C26.3174 52.8424 26.4985 52.8233 26.6657 52.7251C26.8323 52.6264 26.9384 52.4792 26.9839 52.2826L27.9604 48.6749C28.0056 48.4782 27.9827 48.2967 27.8924 48.1304C27.756 47.9486 27.6044 47.8351 27.4379 47.7899C26.0454 47.4421 24.5764 47.268 23.0327 47.268C19.6415 47.268 16.6106 48.2364 13.9387 50.1723C11.2668 52.1084 9.4237 54.6651 8.40944 57.8415H6.18441C5.97238 57.8415 5.79845 57.9094 5.66214 58.0456C5.52622 58.1815 5.4579 58.3556 5.4579 58.5675V61.1541C5.4579 61.3658 5.52598 61.5399 5.66214 61.6757C5.79853 61.812 5.9727 61.8798 6.18441 61.8798H7.70583C7.6601 62.6061 7.65287 63.3998 7.68293 64.2624H6.18441C5.98765 64.2624 5.81738 64.3342 5.67359 64.4779C5.52988 64.6215 5.4579 64.7917 5.4579 64.9881V67.5522C5.4579 67.7491 5.52988 67.9188 5.67359 68.0629C5.81746 68.2066 5.98765 68.2778 6.18441 68.2778H8.3416C9.29525 71.6207 11.0968 74.2796 13.7459 76.2534C16.3951 78.228 19.4908 79.2146 23.0327 79.2146C23.3206 79.2146 23.6119 79.2075 23.9072 79.1918C24.203 79.1766 24.4788 79.1537 24.7362 79.1239C24.9934 79.0939 25.2471 79.0602 25.4969 79.0221C25.7465 78.9841 25.9737 78.9469 26.1779 78.9084C26.3823 78.8709 26.5753 78.8331 26.7568 78.7956C26.9386 78.7572 27.1013 78.7162 27.2453 78.6705C27.389 78.6256 27.5096 78.5913 27.6084 78.5691C27.7069 78.5462 27.7864 78.5193 27.8465 78.4897L27.9603 78.4668C28.1269 78.4064 28.2556 78.2966 28.3463 78.1374C28.4372 77.9795 28.4594 77.8091 28.4143 77.6276Z" fill="#FBE41A"/>
<path opacity="0.2" d="M155.484 27.4972C155.484 36.8484 147.898 44.429 138.54 44.429C129.182 44.429 121.596 36.8484 121.596 27.4972C121.596 18.1462 129.182 10.5657 138.54 10.5657C147.898 10.5657 155.484 18.1462 155.484 27.4972Z" fill="#F6D43D"/>
<path d="M143.302 34.5719L142.911 32.7978C142.889 32.6934 142.833 32.6153 142.743 32.5634C142.647 32.5113 142.55 32.504 142.453 32.5412L142.397 32.5634L142.263 32.5969C142.203 32.6116 142.135 32.6284 142.056 32.647C141.978 32.6656 141.887 32.6841 141.783 32.7028C141.679 32.7214 141.569 32.7382 141.453 32.7531C141.338 32.7677 141.214 32.7809 141.08 32.7921C140.945 32.8031 140.812 32.8087 140.677 32.8087C139.732 32.8087 138.881 32.554 138.126 32.0444C137.37 31.5347 136.813 30.8447 136.456 29.9745H140.778C140.86 29.9745 140.934 29.9466 141.001 29.8907C141.068 29.8351 141.109 29.7663 141.124 29.6842L141.392 28.4344C141.414 28.3231 141.392 28.2225 141.325 28.1332C141.25 28.0439 141.157 27.9991 141.046 27.9991H135.92C135.898 27.4933 135.898 27.1028 135.92 26.8275H141.37C141.571 26.8275 141.69 26.7308 141.727 26.5374L141.995 25.2653C142.017 25.1612 141.992 25.0645 141.917 24.9752C141.85 24.8859 141.757 24.8411 141.638 24.8411H136.412C136.784 24.0079 137.342 23.3533 138.087 22.8772C138.831 22.4009 139.672 22.1629 140.61 22.1629C140.64 22.1481 140.75 22.1518 140.94 22.1741C141.13 22.1963 141.238 22.2057 141.264 22.202C141.289 22.1983 141.387 22.2095 141.554 22.2354C141.721 22.2614 141.805 22.2745 141.805 22.2745L142.001 22.3135C142.057 22.3247 142.099 22.3339 142.129 22.3414L142.174 22.3525C142.271 22.3824 142.36 22.373 142.442 22.3247C142.524 22.2762 142.576 22.2038 142.598 22.1071L143.079 20.3328C143.101 20.2361 143.09 20.1468 143.045 20.065C142.978 19.9756 142.904 19.9198 142.822 19.8976C142.137 19.7265 141.414 19.6409 140.655 19.6409C138.987 19.6409 137.497 20.1172 136.183 21.0693C134.869 22.0215 133.962 23.2788 133.463 24.841H132.369C132.265 24.841 132.179 24.8744 132.112 24.9414C132.045 25.0082 132.012 25.0938 132.012 25.198V26.4701C132.012 26.5743 132.045 26.6599 132.112 26.7267C132.179 26.7937 132.265 26.827 132.369 26.827H133.117C133.095 27.1842 133.091 27.5746 133.106 27.9988H132.369C132.272 27.9988 132.189 28.0341 132.118 28.1048C132.047 28.1754 132.012 28.2591 132.012 28.3557V29.6167C132.012 29.7136 132.047 29.797 132.118 29.8679C132.189 29.9386 132.272 29.9736 132.369 29.9736H133.43C133.899 31.6177 134.785 32.9253 136.088 33.896C137.391 34.8671 138.913 35.3524 140.655 35.3524C140.797 35.3524 140.94 35.3489 141.085 35.3411C141.231 35.3337 141.366 35.3224 141.493 35.3077C141.619 35.293 141.744 35.2764 141.867 35.2577C141.99 35.239 142.102 35.2207 142.202 35.2018C142.303 35.1833 142.397 35.1648 142.487 35.1463C142.576 35.1274 142.656 35.1072 142.727 35.0848C142.798 35.0627 142.857 35.0458 142.906 35.0349C142.954 35.0237 142.993 35.0104 143.023 34.9958L143.079 34.9846C143.161 34.9549 143.224 34.9009 143.268 34.8226C143.313 34.745 143.324 34.6611 143.302 34.5719Z" fill="#FBE41A"/>
<path opacity="0.2" d="M334.71 -13.3534C334.71 15.9468 310.941 39.6995 281.619 39.6995C252.297 39.6995 228.527 15.9468 228.527 -13.3534C228.527 -42.6534 252.297 -66.4057 281.619 -66.4057C310.94 -66.4057 334.71 -42.6534 334.71 -13.3534Z" fill="#505050"/>
<g opacity="0.8">
<path d="M281.449 0.671364L281.264 0.896465V12.4093L281.449 12.9486L296.472 -8.19199L281.449 0.671364Z" fill="white"/>
<path d="M281.449 12.9487V0.671363L266.436 -8.19199L281.449 12.9487Z" fill="white"/>
</g>
<path opacity="0.2" d="M82.6615 139.271C82.6615 163.273 63.1907 182.73 39.172 182.73C15.153 182.73 -4.31798 163.273 -4.31798 139.271C-4.31798 115.27 15.153 95.8138 39.172 95.8138C63.1905 95.8138 82.6615 115.27 82.6615 139.271Z" fill="#505050"/>
<g opacity="0.8">
<path d="M39.0329 119.107L38.7643 120.019V146.494L39.0329 146.762L51.3311 139.497L39.0329 119.107Z" fill="white"/>
<path d="M39.033 119.107L26.7349 139.497L39.033 146.762V133.912V119.107Z" fill="white"/>
<path d="M39.0329 150.76L38.8816 150.944V160.375L39.0329 160.817L51.3385 143.499L39.0329 150.76Z" fill="white"/>
<path d="M39.033 160.817V150.76L26.7349 143.499L39.033 160.817Z" fill="white"/>
<path d="M39.0329 146.762L51.3309 139.498L39.0329 133.912V146.762Z" fill="white"/>
<path d="M26.7349 139.498L39.0328 146.762V133.912L26.7349 139.498Z" fill="white"/>
</g>
<path opacity="0.2" d="M355.327 40.5472C355.327 52.0802 345.971 61.4297 334.429 61.4297C322.888 61.4297 313.531 52.0802 313.531 40.5472C313.531 29.0142 322.888 19.6649 334.429 19.6649C345.97 19.6649 355.327 29.0142 355.327 40.5472Z" fill="#00A478"/>
<path d="M332.286 40.1815V36.5283H327.328V33.326H341.184V36.5734H336.225V40.1815H332.286Z" fill="#00A478"/>
<path fillRule="evenodd" clipRule="evenodd" d="M325.196 40.5875C325.196 39.3697 329.181 38.3775 334.14 38.3775C339.098 38.3775 343.084 39.3697 343.084 40.5875C343.084 41.8052 339.098 42.7975 334.14 42.7975C329.181 42.7975 325.196 41.8052 325.196 40.5875ZM342.342 40.5875C342.018 40.1365 339.33 38.7383 334.14 38.7383C328.95 38.7383 326.262 40.0914 325.937 40.5875C326.262 41.0385 328.95 41.715 334.14 41.715C339.377 41.715 342.018 41.0385 342.342 40.5875Z" fill="#00A478"/>
<path d="M336.225 41.3091V38.7834C335.576 38.7383 334.881 38.6932 334.186 38.6932C333.537 38.6932 332.935 38.6932 332.332 38.7383V41.264C332.889 41.264 333.537 41.3091 334.186 41.3091C334.881 41.3542 335.576 41.3542 336.225 41.3091Z" fill="#00A478"/>
<path d="M334.14 42.7975C333.491 42.7975 332.889 42.7975 332.286 42.7524V49.4726H336.179V42.7073C335.53 42.7524 334.835 42.7975 334.14 42.7975Z" fill="#00A478"/>
<path opacity="0.2" d="M115.713 175.016C115.713 186.861 106.105 196.463 94.2511 196.463C82.3976 196.463 72.7885 186.861 72.7885 175.016C72.7885 163.171 82.3976 153.569 94.2511 153.569C106.104 153.569 115.713 163.171 115.713 175.016Z" fill="#00A478"/>
<path d="M92.0502 174.64V170.888H86.9576V167.6H101.188V170.935H96.0958V174.64H92.0502Z" fill="#00A478"/>
<path fillRule="evenodd" clipRule="evenodd" d="M84.7682 175.057C84.7682 173.807 88.8614 172.787 93.954 172.787C99.0467 172.787 103.14 173.807 103.14 175.057C103.14 176.308 99.0467 177.327 93.954 177.327C88.8614 177.327 84.7682 176.308 84.7682 175.057ZM102.378 175.057C102.045 174.594 99.2846 173.158 93.954 173.158C88.6234 173.158 85.8629 174.548 85.5298 175.057C85.8629 175.52 88.6234 176.215 93.954 176.215C99.3322 176.215 102.045 175.52 102.378 175.057Z" fill="#00A478"/>
<path d="M96.0958 175.798V173.204C95.4295 173.158 94.7155 173.112 94.0016 173.112C93.3353 173.112 92.7166 173.112 92.0978 173.158V175.752C92.669 175.752 93.3353 175.798 94.0016 175.798C94.7155 175.845 95.4295 175.845 96.0958 175.798Z" fill="#00A478"/>
<path d="M93.954 177.327C93.2877 177.327 92.669 177.327 92.0502 177.281V184.182H96.0482V177.234C95.3819 177.281 94.6679 177.327 93.954 177.327Z" fill="#00A478"/>
</svg>
