<svg width="301" height="228" viewBox="0 0 301 228" fill="none" xmlns="http://www.w3.org/2000/svg">
    <path d="M223.873 150.971C220.083 169.371 202.071 181.219 183.642 177.435C165.213 173.651 153.345 155.668 157.135 137.269C160.925 118.87 178.938 107.022 197.367 110.806C215.796 114.59 227.664 132.572 223.873 150.971Z" fill="#2775CA"/>
    <path d="M223.873 150.971C220.083 169.371 202.071 181.219 183.642 177.435C165.213 173.651 153.345 155.668 157.135 137.269C160.925 118.87 178.938 107.022 197.367 110.806C215.796 114.59 227.664 132.572 223.873 150.971ZM160.763 138.014C157.384 154.413 167.962 170.441 184.388 173.813C200.814 177.186 216.868 166.626 220.246 150.227C223.624 133.828 213.047 117.8 196.621 114.427C180.195 111.054 164.141 121.614 160.763 138.014Z" fill="#0C519D"/>
    <path d="M181.698 164.437C181.269 165.428 180.112 165.89 179.158 165.383C174.964 163.152 171.509 159.726 169.246 155.521C166.674 150.74 165.794 145.232 166.748 139.89C167.703 134.548 170.436 129.683 174.505 126.085C178.084 122.92 182.512 120.898 187.221 120.253C188.291 120.106 189.216 120.939 189.276 122.016C189.336 123.093 188.507 124.005 187.439 124.169C183.612 124.755 180.019 126.429 177.1 129.01C173.69 132.025 171.401 136.1 170.601 140.576C169.801 145.052 170.539 149.667 172.694 153.672C174.539 157.101 177.331 159.912 180.719 161.783C181.665 162.305 182.127 163.447 181.698 164.437Z" fill="#FEFEFC"/>
    <path d="M190.565 166.258C190.568 167.337 191.448 168.217 192.525 168.127C197.261 167.73 201.79 165.943 205.531 162.971C209.784 159.592 212.77 154.878 214.005 149.593C215.239 144.308 214.651 138.762 212.334 133.852C210.296 129.534 207.027 125.931 202.956 123.483C202.03 122.927 200.851 123.328 200.37 124.294C199.889 125.26 200.29 126.425 201.207 126.996C204.492 129.042 207.132 131.996 208.794 135.518C210.735 139.631 211.228 144.277 210.193 148.705C209.159 153.133 206.657 157.082 203.094 159.914C200.043 162.338 196.366 163.821 192.514 164.205C191.438 164.312 190.562 165.179 190.565 166.258Z" fill="#FEFEFC"/>
    <path d="M194.946 130.13C195.113 130.381 195.093 130.829 194.832 132.096C194.507 133.675 194.514 133.73 194.898 133.809C195.491 133.931 197.148 135.248 197.805 136.124C198.472 137.039 199.053 138.985 198.885 139.8C198.706 140.668 198.29 140.836 196.981 140.567C196.352 140.438 195.707 140.215 195.55 140.092C195.38 139.949 195.134 139.374 194.997 138.803C194.688 137.564 194.104 136.956 192.705 136.416C190.905 135.702 188.836 135.947 187.992 136.949C187.827 137.132 187.618 137.704 187.511 138.225C187.182 139.821 187.895 140.691 190.35 141.665C194.804 143.448 196.048 144.209 197.055 145.772C198.279 147.688 197.904 151.011 196.243 152.894C195.013 154.269 192.489 155.397 190.742 155.309L190.053 155.295L189.735 156.839C189.292 158.99 189.225 159.049 187.532 158.701C185.682 158.322 185.63 158.22 186.055 156.156L186.384 154.559L185.415 154.143C182.705 152.99 180.886 150.248 181.101 147.705C181.215 146.535 181.456 146.422 183.114 146.762C184.755 147.099 185.072 147.327 185.076 148.105C185.104 150.173 186.36 151.408 189.013 151.952C190.026 152.16 190.463 152.159 191.313 151.918C192.719 151.538 193.316 150.937 193.591 149.601C194.017 147.536 193.189 146.697 189.237 145.216C184.444 143.4 182.912 141.386 183.645 137.829C183.97 136.25 184.467 135.339 185.523 134.453C186.737 133.418 188.557 132.797 190.377 132.791C190.866 132.801 190.87 132.783 191.174 131.309C191.603 129.226 191.669 129.168 193.362 129.515C194.375 129.723 194.797 129.882 194.946 130.13Z" fill="#FEFEFC"/>
    <path d="M125.17 118.933C125.17 58.6965 135.001 9.86537 147.129 9.86537C159.256 9.86536 169.088 58.6965 169.088 118.933C169.088 179.169 159.256 228 147.129 228C135.001 228 125.17 179.169 125.17 118.933Z" fill="#CECECE"/>
    <path d="M125.17 118.933C125.17 58.6965 135.001 9.86537 147.129 9.86537C159.256 9.86536 169.088 58.6965 169.088 118.933C169.088 179.169 159.256 228 147.129 228C135.001 228 125.17 179.169 125.17 118.933Z" fill="#292929"/>
    <path fill-rule="evenodd" clip-rule="evenodd" d="M134.38 42.3624C130.452 61.8689 128.003 88.9421 128.003 118.933C128.003 148.923 130.452 175.996 134.38 195.503C136.348 205.279 138.659 213.009 141.143 218.226C142.388 220.842 143.607 222.676 144.73 223.817C145.848 224.953 146.643 225.185 147.129 225.185C147.614 225.185 148.41 224.953 149.528 223.817C150.651 222.676 151.87 220.842 153.115 218.226C155.598 213.009 157.909 205.279 159.878 195.503C163.805 175.996 166.254 148.923 166.254 118.933C166.254 88.9421 163.805 61.8689 159.878 42.3624C157.909 32.586 155.598 24.8568 153.115 19.6396C151.869 17.0238 150.651 15.1898 149.528 14.0486C148.41 12.9121 147.614 12.68 147.129 12.68C146.643 12.68 145.848 12.9121 144.729 14.0486C143.607 15.1898 142.388 17.0238 141.143 19.6396C138.659 24.8568 136.348 32.586 134.38 42.3624ZM147.129 9.86537C135.001 9.86537 125.17 58.6965 125.17 118.933C125.17 179.169 135.001 228 147.129 228C159.256 228 169.088 179.169 169.088 118.933C169.088 58.6965 159.256 9.86536 147.129 9.86537Z" fill="#696969"/>
    <path d="M127.612 74.4426C127.875 74.3218 128.299 74.4047 129.468 74.8331C130.925 75.3671 130.979 75.3688 131.108 75.0181C131.307 74.4763 132.794 73.1037 133.721 72.6112C134.686 72.1144 136.62 71.8465 137.372 72.1223C138.173 72.4157 138.274 72.8326 137.833 74.0279C137.622 74.6017 137.319 75.178 137.18 75.308C137.019 75.4481 136.438 75.5967 135.875 75.6438C134.652 75.7564 133.991 76.2195 133.279 77.4602C132.347 79.0541 132.287 81.0403 133.123 81.9795C133.274 82.1615 133.789 82.4407 134.269 82.6168C135.742 83.1567 136.67 82.6104 137.944 80.4361C140.269 76.4942 141.169 75.4314 142.799 74.708C144.794 73.8294 147.904 74.6617 149.463 76.4991C150.598 77.856 151.316 80.3982 150.986 82.0322L150.875 82.6789L152.3 83.2012C154.286 83.9289 154.332 84.0001 153.763 85.5461C153.14 87.2355 153.037 87.2699 151.131 86.5716L149.658 86.0317L149.125 86.8857C147.646 89.274 144.779 90.5931 142.39 90.0249C141.292 89.7491 141.218 89.5051 141.776 87.991C142.328 86.4928 142.589 86.2269 143.331 86.3358C145.303 86.6063 146.655 85.6004 147.547 83.1778C147.888 82.2534 147.949 81.8416 147.839 81.0053C147.675 79.6248 147.187 78.9756 145.954 78.5238C144.049 77.8255 143.134 78.4849 141.167 81.9972C138.763 86.2536 136.63 87.4074 133.347 86.2044C131.89 85.6704 131.093 85.0708 130.398 83.9478C129.585 82.6546 129.25 80.8496 129.501 79.1326C129.579 78.673 129.563 78.6671 128.202 78.1683C126.281 77.4641 126.235 77.3928 126.804 75.8469C127.145 74.9225 127.356 74.5475 127.612 74.4426Z" fill="#3EAB2C"/>
    <path d="M157.464 63.3612C147.922 59.6345 135.676 57.6594 126.871 54.2908C122.056 52.587 109.86 47.8538 109.86 47.8538L98.7942 90.2847L123.209 97.158C130.239 99.2844 138.789 101.792 145.367 104.669C155.086 108.921 163.065 113.793 167.251 116.53V107.071C166.817 107.071 166.353 107.117 165.876 107.235C163.753 107.76 163.113 110.215 163.113 110.215C158.743 107.601 152.885 104.385 146.203 101.462C140.651 99.034 130.828 96.1058 124.25 94.1449L124.013 94.0744L108.723 89.7698C108.723 89.7698 109.97 87.5263 108.873 85.1339C107.776 82.7415 105.146 81.6626 105.146 81.6626L111.097 58.8436C111.097 58.8436 113.345 59.8314 115.821 58.4913C118.287 57.1566 118.523 54.73 118.523 54.73C121.404 55.8124 124.275 56.8751 126.035 57.4978C134.839 60.8664 147.086 62.8415 156.627 66.5681C159.608 67.7326 162.411 68.9542 164.978 70.1566L164.473 66.3297C162.281 65.3299 159.934 64.3259 157.464 63.3612Z" fill="#3EAB2C"/>
    <path fill-rule="evenodd" clip-rule="evenodd" d="M156.627 66.5681C147.086 62.8415 134.839 60.8664 126.035 57.4978C124.275 56.8751 121.404 55.8124 118.523 54.73C118.523 54.73 118.287 57.1566 115.821 58.4913C113.345 59.8314 111.097 58.8436 111.097 58.8436L105.146 81.6626C105.146 81.6626 107.776 82.7415 108.873 85.1339C109.97 87.5263 108.723 89.7698 108.723 89.7698L124.013 94.0744L124.25 94.1449C130.828 96.1058 140.651 99.034 146.203 101.462C152.885 104.385 158.743 107.601 163.113 110.215C163.113 110.215 163.753 107.76 165.876 107.235C166.353 107.117 166.817 107.071 167.251 107.071L164.978 70.1566C162.411 68.9542 159.608 67.7326 156.627 66.5681ZM129.468 74.8331C128.299 74.4047 127.875 74.3218 127.612 74.4426C127.356 74.5475 127.145 74.9225 126.804 75.8469C126.235 77.3928 126.281 77.4641 128.202 78.1683C129.563 78.6671 129.579 78.673 129.501 79.1326C129.25 80.8496 129.585 82.6546 130.398 83.9478C131.093 85.0708 131.89 85.6704 133.347 86.2044C136.63 87.4074 138.763 86.2536 141.167 81.9972C143.134 78.4849 144.049 77.8255 145.954 78.5238C147.187 78.9756 147.675 79.6248 147.839 81.0053C147.949 81.8416 147.888 82.2534 147.547 83.1778C146.655 85.6004 145.303 86.6063 143.331 86.3358C142.589 86.2269 142.328 86.4928 141.776 87.991C141.218 89.5051 141.292 89.7491 142.39 90.0249C144.779 90.5931 147.646 89.274 149.125 86.8857L149.658 86.0317L151.131 86.5716C153.037 87.2699 153.14 87.2355 153.763 85.5461C154.332 84.0001 154.286 83.9289 152.3 83.2012L150.875 82.6789L150.986 82.0322C151.316 80.3982 150.598 77.856 149.463 76.4991C147.904 74.6617 144.794 73.8294 142.799 74.708C141.169 75.4314 140.269 76.4942 137.944 80.4361C136.67 82.6104 135.742 83.1567 134.269 82.6168C133.789 82.4407 133.274 82.1615 133.123 81.9795C132.287 81.0403 132.347 79.0541 133.279 77.4602C133.991 76.2195 134.652 75.7564 135.875 75.6438C136.438 75.5967 137.019 75.4481 137.18 75.308C137.319 75.178 137.622 74.6017 137.833 74.0279C138.274 72.8326 138.173 72.4157 137.372 72.1223C136.62 71.8465 134.686 72.1144 133.721 72.6112C132.794 73.1037 131.307 74.4763 131.108 75.0181C130.979 75.3688 130.925 75.3671 129.468 74.8331Z" fill="#93E687"/>
    <path fill-rule="evenodd" clip-rule="evenodd" d="M95.6113 60.1509L62.6415 78.4763C62.6415 78.4763 61.1569 67.4878 56.5754 54.9491C54.4911 49.2446 51.0266 42.5509 48.217 37.0092L38.1467 18.0629L70.6441 0C70.6441 0 74.8775 10.2248 76.6499 14.165C79.7359 21.5184 85.6903 30.1602 88.9875 38.1732C93.857 50.0071 95.6113 60.1509 95.6113 60.1509ZM86.5313 39.5384C83.2341 31.5254 77.2797 22.8836 74.1937 15.5303C73.546 14.0903 72.5176 11.7133 71.496 9.31905C71.496 9.31905 69.8698 10.5948 67.6084 9.86841C65.3377 9.13898 64.6279 7.18654 64.6279 7.18654L47.1511 16.9006C47.1511 16.9006 48.0286 19.1399 47.2031 21.2102C46.3776 23.2805 44.272 23.831 44.272 23.831L50.5788 35.6964L50.674 35.8824C53.3204 41.0509 57.2723 48.7689 59.0316 53.5838C61.1487 59.378 62.6045 64.8411 63.5581 69.0419C63.5581 69.0419 65.4382 67.9969 67.0023 68.9869C68.5665 69.9769 69.1105 71.6578 69.1105 71.6578L89.138 60.526C89.138 60.526 88.3056 59.0053 89.0137 56.7524C89.7217 54.4995 91.3094 53.617 91.3094 53.617C90.2561 49.761 88.7037 44.8179 86.5313 39.5384Z" fill="#3EAB2C"/>
    <path d="M74.1937 15.5303C77.2797 22.8836 83.2341 31.5254 86.5313 39.5384C88.7037 44.8179 90.2561 49.761 91.3094 53.617C91.3094 53.617 89.7217 54.4995 89.0137 56.7524C88.3056 59.0053 89.138 60.526 89.138 60.526L69.1105 71.6578C69.1105 71.6578 68.5665 69.9769 67.0023 68.9869C65.4382 67.9969 63.5581 69.0419 63.5581 69.0419C62.6045 64.8411 61.1487 59.378 59.0316 53.5838C57.2723 48.7689 53.3204 41.0509 50.674 35.8824L50.5788 35.6964L44.272 23.831C44.272 23.831 46.3776 23.2805 47.2031 21.2102C48.0286 19.1399 47.1511 16.9006 47.1511 16.9006L64.6279 7.18654C64.6279 7.18654 65.3377 9.13898 67.6084 9.86841C69.8698 10.5948 71.496 9.31905 71.496 9.31905C72.5176 11.7133 73.546 14.0903 74.1937 15.5303Z" fill="#93E687"/>
    <path d="M64.7247 26.4095C64.9525 26.4993 65.1496 26.8069 65.5708 27.7721C66.0958 28.9752 66.1263 29.0092 66.417 28.883C66.8661 28.6879 68.578 28.7939 69.4222 29.0721C70.2912 29.371 71.5873 30.3966 71.8585 31.018C72.147 31.6791 71.9504 31.9846 70.9596 32.4148C70.484 32.6213 69.9532 32.7732 69.7922 32.7645C69.6123 32.7482 69.1808 32.4795 68.8227 32.1632C68.0381 31.4816 67.3672 31.3484 66.1899 31.6394C64.6668 32.0019 63.4139 33.1278 63.3266 34.188C63.3034 34.3868 63.4335 34.865 63.6066 35.2616C64.1374 36.478 65.0155 36.7258 67.0942 36.2321C70.8719 35.3466 72.0507 35.2751 73.4478 35.848C75.1543 36.5539 76.4637 38.942 76.2486 40.9697C76.081 42.4579 74.9415 44.3838 73.7467 45.1385L73.2851 45.4491L73.7986 46.6258C74.514 48.2652 74.4975 48.3353 73.2161 48.8917C71.8158 49.4998 71.7341 49.4566 71.0475 47.8833L70.5167 46.6669L69.6812 46.8409C67.3507 47.3339 64.8643 46.3533 63.8147 44.5602C63.3414 43.7277 63.448 43.5399 64.703 42.9949C65.9447 42.4557 66.2609 42.46 66.6279 42.9769C67.6159 44.3407 69.0239 44.5786 71.0319 43.7067C71.7981 43.374 72.0863 43.1702 72.5348 42.6138C73.2857 41.7058 73.3984 41.0278 72.9541 40.0098C72.2675 38.4364 71.3274 38.2627 68.0227 39.1158C64.0056 40.1367 62.0497 39.5076 60.8669 36.7972C60.3418 35.5941 60.2433 34.7562 60.5254 33.6744C60.8423 32.4202 61.7536 31.1595 62.9534 30.3083C63.2812 30.0873 63.2755 30.074 62.785 28.9502C62.0927 27.3637 62.1092 27.2936 63.3906 26.7372C64.1568 26.4045 64.5101 26.314 64.7247 26.4095Z" fill="#3EAB2C"/>
    <path d="M81.9929 102.662V133.217C81.9929 133.217 73.4956 129.932 62.6452 128.226C57.7088 127.45 52.0621 127.537 46.9529 127.338V124.776C51.7278 124.943 58.4283 125.287 62.6452 125.95C67.6591 126.738 72.1707 127.863 75.5734 128.846C75.5734 128.846 75.5734 127.104 76.9108 126.388C78.2482 125.672 79.6748 125.95 79.6748 125.95V107.389C79.6748 107.389 78.2482 107.378 76.9108 105.989C75.5734 104.599 75.5734 103.128 75.5734 103.128C72.3788 102.351 68.2027 101.5 63.5368 100.954C56.455 100.125 47.8587 100.928 41.3358 100.21C39.2134 99.9769 37.5303 101.338 36.9115 102.839C36.7656 102.571 36.6845 102.273 36.662 101.961C36.525 100.064 38.5527 97.6279 41.3358 97.9342C47.8587 98.652 56.4551 97.8488 63.5368 98.6774C73.9954 99.9011 81.9929 102.662 81.9929 102.662Z" fill="#3EAB2C"/>
    <path d="M46.9529 132.341C46.9529 132.341 39.2038 134.051 37.3236 132.341C36.8485 131.909 36.6135 131.315 36.5923 130.678L36.6567 104.136L36.6571 103.959C36.6702 103.592 36.7582 103.211 36.9115 102.839C37.0153 103.03 37.1519 103.206 37.3236 103.362C39.2038 105.072 46.9529 103.362 46.9529 103.362V124.776V127.338V132.341Z" fill="#3EAB2C"/>
    <path d="M46.9529 103.362C46.9529 103.362 39.2038 105.072 37.3236 103.362C37.1519 103.206 37.0153 103.03 36.9115 102.839C37.5303 101.338 39.2134 99.9769 41.3358 100.21C47.8587 100.928 56.455 100.125 63.5368 100.954C68.2027 101.5 72.3788 102.351 75.5734 103.128C75.5734 103.128 75.5734 104.599 76.9108 105.989C78.2482 107.378 79.6748 107.389 79.6748 107.389V125.95C79.6748 125.95 78.2482 125.672 76.9108 126.388C75.5734 127.104 75.5734 128.846 75.5734 128.846C72.1707 127.863 67.6591 126.738 62.6452 125.95C58.4283 125.287 51.7278 124.943 46.9529 124.776V103.362Z" fill="#93E687"/>
    <path fill-rule="evenodd" clip-rule="evenodd" d="M36.2357 130.683L36.2359 130.689C36.2597 131.404 36.5252 132.092 37.0813 132.598C37.6463 133.112 38.592 133.33 39.5921 133.411C40.6139 133.494 41.7831 133.438 42.8789 133.331C43.9771 133.223 45.0142 133.061 45.7759 132.926C46.157 132.859 46.4699 132.798 46.6879 132.754C46.7969 132.732 46.8822 132.715 46.9405 132.702C46.9697 132.696 46.9921 132.691 47.0073 132.688L47.0247 132.684L47.0305 132.683C47.0305 132.683 47.0311 132.683 46.9529 132.341L47.0305 132.683L47.3095 132.621V127.702C48.4975 127.745 49.7087 127.774 50.9288 127.804C54.8814 127.899 58.9282 127.997 62.5888 128.572C67.994 129.422 72.8148 130.665 76.2847 131.696C78.0193 132.212 79.4154 132.674 80.3771 133.007C80.8579 133.173 81.2301 133.308 81.4817 133.4C81.6074 133.446 81.703 133.482 81.767 133.506C81.7989 133.518 81.823 133.527 81.839 133.533L81.8568 133.54L81.8621 133.542C81.8621 133.542 81.8623 133.542 81.8685 133.527L81.8621 133.542L82.3496 133.731V102.414L82.1112 102.331L81.9929 102.662C82.1112 102.331 82.1112 102.331 82.1112 102.331L82.1047 102.329L82.0865 102.323C82.0706 102.318 82.047 102.31 82.0159 102.299C81.9538 102.278 81.8618 102.248 81.7412 102.208C81.4999 102.13 81.1445 102.017 80.6855 101.877C79.7677 101.597 78.4358 101.213 76.7765 100.79C73.4585 99.9435 68.8282 98.9438 63.579 98.3296C60.0132 97.9124 56.072 97.9065 52.226 97.914C52.0923 97.9143 51.9587 97.9146 51.8253 97.9148C48.1094 97.9225 44.5002 97.93 41.3756 97.5862C39.8627 97.4197 38.5571 98.0006 37.654 98.8716C36.7624 99.7315 36.2332 100.904 36.3053 101.973L36.3005 103.952C36.2984 104.015 36.2982 104.078 36.3001 104.141L36.2357 130.683ZM37.0134 104.131C37.0143 104.158 37.0158 104.186 37.0177 104.213L37.0132 104.213L36.949 130.672C36.9688 131.23 37.1732 131.727 37.5659 132.084C37.941 132.425 38.669 132.634 39.6507 132.713C40.6107 132.791 41.7313 132.74 42.8078 132.634C43.8818 132.528 44.8995 132.369 45.6496 132.237C46.0243 132.171 46.3315 132.111 46.5446 132.068C46.5625 132.064 46.5797 132.061 46.5962 132.058V103.794C46.3857 103.836 46.1065 103.889 45.7759 103.947C45.0142 104.082 43.9771 104.244 42.8789 104.352C41.7831 104.46 40.6139 104.515 39.5921 104.432C38.592 104.352 37.6463 104.133 37.0813 103.619C37.0726 103.611 37.064 103.603 37.0554 103.595C37.0323 103.721 37.0184 103.844 37.0138 103.965L37.0134 104.131ZM37.0157 101.905C37.8779 100.637 39.4568 99.6513 41.3756 99.8624C44.5002 100.206 48.1094 100.199 51.8253 100.191C51.9587 100.191 52.0923 100.191 52.226 100.19C56.072 100.183 60.0132 100.189 63.579 100.606C68.2628 101.154 72.4537 102.009 75.6591 102.788L75.9301 102.853L75.93 103.127C75.93 103.127 75.9301 103.131 75.9302 103.134C75.9305 103.142 75.931 103.155 75.932 103.173C75.9342 103.208 75.9387 103.263 75.948 103.335C75.9668 103.477 76.0048 103.686 76.0819 103.935C76.236 104.435 76.5457 105.099 77.17 105.748C77.7939 106.396 78.4333 106.718 78.9101 106.879C79.1491 106.96 79.3479 107 79.4838 107.02C79.5518 107.03 79.6038 107.035 79.6371 107.037C79.6538 107.038 79.6657 107.039 79.6726 107.039C79.6759 107.039 79.679 107.039 79.679 107.039L80.0314 107.042V126.377L79.6061 126.294L79.6049 126.293C79.6049 126.293 79.6006 126.293 79.5966 126.292C79.5922 126.291 79.5862 126.29 79.5789 126.289C79.5727 126.288 79.5655 126.287 79.5573 126.286C79.5214 126.28 79.4667 126.273 79.3962 126.266C79.2548 126.253 79.0512 126.241 78.8081 126.25C78.3197 126.269 77.6873 126.371 77.0815 126.695C76.5254 126.993 76.2334 127.511 76.081 127.99C76.0055 128.227 75.9675 128.445 75.9485 128.603C75.9391 128.682 75.9344 128.746 75.9322 128.788C75.931 128.809 75.9305 128.825 75.9303 128.835C75.9301 128.84 75.9301 128.845 75.9301 128.845L75.9301 129.314L75.4728 129.182C72.0805 128.202 67.5842 127.081 62.5888 126.296C58.5036 125.654 52.0562 125.31 47.3095 125.139V127.001C48.4829 127.044 49.6869 127.073 50.9053 127.102C54.8707 127.198 58.9892 127.297 62.7016 127.88C68.1468 128.736 72.9999 129.988 76.4913 131.026C78.2374 131.545 79.6437 132.01 80.6143 132.346C81.0425 132.495 81.3859 132.618 81.6363 132.709V102.912C81.6003 102.901 81.5604 102.887 81.5166 102.873C81.2796 102.796 80.9286 102.684 80.4743 102.546C79.5658 102.269 78.2446 101.887 76.5972 101.467C73.3018 100.627 68.704 99.6346 63.4946 99.0251C59.9787 98.6137 56.0808 98.6069 52.2274 98.6144C52.0872 98.6147 51.947 98.615 51.8069 98.6153C48.1079 98.623 44.4622 98.6306 41.2961 98.2822C40.0259 98.1424 38.9261 98.6264 38.1538 99.3713C37.3835 100.114 36.9688 101.087 37.0157 101.905ZM47.3095 124.438L47.3095 102.925L46.8698 103.022L46.8539 103.025C46.8397 103.028 46.8184 103.033 46.7903 103.039C46.7342 103.051 46.6512 103.068 46.5446 103.089C46.3315 103.132 46.0243 103.192 45.6496 103.258C44.8995 103.391 43.8818 103.549 42.8078 103.655C41.7313 103.761 40.6106 103.812 39.6507 103.734C38.669 103.655 37.941 103.446 37.5659 103.105C37.4668 103.015 37.3823 102.918 37.3113 102.814C37.9306 101.495 39.4347 100.354 41.2961 100.558C44.4622 100.907 48.1079 100.899 51.8069 100.892C51.947 100.891 52.0872 100.891 52.2274 100.891C56.0808 100.883 59.9787 100.89 63.4946 101.301C68.0223 101.831 72.088 102.65 75.2384 103.407C75.2391 103.413 75.2398 103.418 75.2406 103.424C75.2637 103.6 75.3092 103.847 75.3993 104.139C75.5796 104.723 75.9386 105.488 76.6516 106.229C77.3651 106.971 78.1077 107.349 78.6786 107.541C78.9319 107.627 79.1508 107.675 79.3181 107.703V125.557C79.1693 125.548 78.9868 125.543 78.7805 125.55C78.2213 125.572 77.4717 125.688 76.7401 126.08C75.9588 126.498 75.5821 127.21 75.4002 127.781C75.328 128.008 75.2844 128.218 75.258 128.391C71.8969 127.434 67.5323 126.363 62.7015 125.604C58.5609 124.953 52.0571 124.609 47.3095 124.438Z" fill="#3EAB2C"/>
    <path d="M49.7549 111.455C49.9143 111.334 50.2148 111.324 51.0745 111.432C52.1462 111.566 52.183 111.559 52.2162 111.305C52.2673 110.911 53.0629 109.765 53.615 109.293C54.1921 108.813 55.4629 108.337 56.0164 108.407C56.6053 108.48 56.7386 108.744 56.6257 109.612C56.5715 110.028 56.4554 110.461 56.3815 110.569C56.2942 110.687 55.9226 110.876 55.5482 110.994C54.736 111.256 54.3593 111.668 54.0695 112.607C53.6847 113.817 53.9534 115.156 54.6662 115.657C54.797 115.756 55.1899 115.864 55.5432 115.908C56.6267 116.044 57.1716 115.536 57.6975 113.886C58.6617 110.89 59.1074 110.041 60.1005 109.307C61.318 108.413 63.5577 108.494 64.9009 109.486C65.8826 110.22 66.7647 111.813 66.7953 112.957L66.8206 113.407L67.8687 113.539C69.3291 113.722 69.3717 113.762 69.2257 114.885C69.0661 116.111 69.0012 116.15 67.5998 115.974L66.5163 115.838L66.2876 116.492C65.6551 118.317 63.9151 119.639 62.2054 119.625C61.4176 119.608 61.3297 119.456 61.4727 118.357C61.6141 117.269 61.7502 117.051 62.2702 117.011C63.6504 116.89 64.4113 116.009 64.6401 114.251C64.7274 113.58 64.7047 113.295 64.5 112.752C64.1741 111.852 63.7422 111.492 62.8353 111.379C61.4339 111.203 60.9153 111.784 60.1273 114.437C59.1581 117.655 57.89 118.754 55.4757 118.452C54.404 118.317 53.77 118.038 53.1239 117.392C52.3705 116.651 51.8627 115.494 51.7659 114.306C51.7477 113.986 51.7359 113.984 50.7348 113.859C49.3216 113.682 49.279 113.641 49.425 112.519C49.5123 111.848 49.597 111.564 49.7549 111.455Z" fill="#3EAB2C"/>
    <path d="M23.0532 40.5801L16.5885 52.2491C16.5885 52.2491 14.2237 49.305 10.6775 46.4962C9.06419 45.2184 7.01261 44.1287 5.21489 43.0369L5.75706 42.0583C7.44111 43.0714 9.78094 44.5353 11.1591 45.6269C12.7978 46.9248 14.1842 48.2517 15.2016 49.3035C15.2016 49.3035 15.5703 48.6381 16.2033 48.6306C16.8364 48.6231 17.2912 49.013 17.2912 49.013L21.2182 41.9246C21.2182 41.9246 20.7068 41.6368 20.5193 40.8401C20.3317 40.0434 20.6431 39.4815 20.6431 39.4815C19.6569 38.5499 18.3334 37.3942 16.7688 36.258C14.3941 34.5334 11.1288 33.1309 8.93192 31.5598C8.2171 31.0486 7.323 31.2338 6.78262 31.6841C6.78684 31.5526 6.82058 31.4228 6.87849 31.2992C7.23058 30.5473 8.47619 30.0201 9.41353 30.6905C11.6104 32.2616 14.8758 33.6641 17.2505 35.3886C20.7575 37.9355 23.0532 40.5801 23.0532 40.5801Z" fill="#3EAB2C"/>
    <path d="M4.15641 44.9475C4.15641 44.9475 1.00441 44.0596 0.689068 43.0329C0.609393 42.7735 0.650404 42.5 0.777707 42.2522L6.41652 32.1286L6.45417 32.061C6.53652 31.9235 6.64871 31.7956 6.78262 31.6841C6.77962 31.7776 6.79155 31.872 6.82033 31.9657C7.13568 32.9924 10.2877 33.8804 10.2877 33.8804L5.75706 42.0583L5.21489 43.0369L4.15641 44.9475Z" fill="#3EAB2C"/>
    <path d="M10.2877 33.8804C10.2877 33.8804 7.13568 32.9924 6.82033 31.9657C6.79155 31.872 6.77962 31.7776 6.78262 31.6841C7.323 31.2338 8.2171 31.0486 8.93192 31.5598C11.1288 33.1309 14.3941 34.5334 16.7688 36.258C18.3334 37.3942 19.6569 38.5499 20.6431 39.4815C20.6431 39.4815 20.3317 40.0434 20.5193 40.8401C20.7068 41.6368 21.2182 41.9246 21.2182 41.9246L17.2912 49.013C17.2912 49.013 16.8364 48.6231 16.2033 48.6306C15.5703 48.6381 15.2016 49.3035 15.2016 49.3035C14.1842 48.2517 12.7978 46.9248 11.1591 45.6269C9.78094 44.5353 7.44111 43.0714 5.75706 42.0583L10.2877 33.8804Z" fill="#93E687"/>
    <path fill-rule="evenodd" clip-rule="evenodd" d="M0.648165 42.1833L0.646941 42.1857C0.504142 42.4636 0.4542 42.7792 0.547456 43.0828C0.642218 43.3914 0.936482 43.6629 1.2795 43.8927C1.62994 44.1274 2.06269 44.3386 2.48007 44.5154C2.8984 44.6925 3.30608 44.8369 3.60881 44.9369C3.76029 44.987 3.88579 45.026 3.97357 45.0526C4.01747 45.0659 4.05195 45.0761 4.07555 45.083C4.08735 45.0864 4.09643 45.089 4.10261 45.0908L4.10968 45.0928L4.11205 45.0935C4.11205 45.0935 4.11226 45.0935 4.15641 44.9475L4.11205 45.0935L4.22554 45.1255L5.26634 43.2468C5.68503 43.4994 6.11495 43.7514 6.54806 44.0052C7.95115 44.8275 9.38769 45.6695 10.5841 46.6171C12.3506 48.0163 13.8235 49.4497 14.8547 50.5334C15.3702 51.0752 15.7752 51.5293 16.051 51.8477C16.1889 52.0069 16.2945 52.1322 16.3655 52.2175C16.401 52.2601 16.4279 52.2928 16.4458 52.3147C16.4548 52.3257 16.4615 52.334 16.466 52.3395L16.4709 52.3456L16.4724 52.3475C16.4724 52.3475 16.4725 52.3475 16.478 52.3428L16.4724 52.3475L16.6081 52.5164L23.2341 40.5562L23.1657 40.4774L23.0532 40.5801C23.1657 40.4774 23.1657 40.4774 23.1657 40.4774L23.1638 40.4752L23.1585 40.4693C23.154 40.464 23.1472 40.4563 23.1382 40.4461C23.1202 40.4258 23.0935 40.3958 23.0584 40.3568C22.9882 40.2789 22.8842 40.1649 22.7485 40.0203C22.4771 39.7311 22.0789 39.3193 21.571 38.8278C20.5552 37.845 19.0994 36.5425 17.3392 35.2642C16.1435 34.3959 14.7256 33.61 13.3392 32.8482C13.291 32.8217 13.2428 32.7952 13.1947 32.7688C11.8551 32.0329 10.5538 31.3181 9.50147 30.5655C8.99194 30.2011 8.39889 30.1633 7.88942 30.3164C7.38647 30.4675 6.94776 30.8102 6.74761 31.2327L6.32711 31.9876C6.31302 32.0113 6.29966 32.0352 6.28708 32.0595L0.648165 42.1833ZM6.54605 32.1975C6.54055 32.2082 6.53527 32.219 6.53022 32.2298L6.52851 32.229L0.907299 42.321C0.79645 42.538 0.76483 42.7685 0.830689 42.9829C0.893601 43.1877 1.11159 43.4122 1.44827 43.6377C1.77751 43.8582 2.19189 44.0615 2.60192 44.2351C3.01101 44.4083 3.41104 44.55 3.70916 44.6486C3.8581 44.6978 3.98132 44.7361 4.06714 44.7621C4.07434 44.7643 4.08128 44.7664 4.08795 44.7684L10.068 33.9742C9.98332 33.9483 9.87147 33.9132 9.74007 33.8698C9.43734 33.7697 9.02966 33.6253 8.61134 33.4482C8.19395 33.2715 7.7612 33.0602 7.41076 32.8255C7.06775 32.5958 6.77348 32.3242 6.67872 32.0157C6.67726 32.0109 6.67584 32.0062 6.67446 32.0014C6.63962 32.0447 6.60842 32.0892 6.58116 32.1345L6.54605 32.1975ZM7.01776 31.348C7.59644 31.0353 8.37363 30.9727 9.01986 31.4348C10.0722 32.1874 11.3734 32.9022 12.7131 33.6381C12.7612 33.6645 12.8093 33.691 12.8575 33.7175C14.244 34.4793 15.6619 35.2652 16.8576 36.1336C18.4282 37.2742 19.7564 38.434 20.7458 39.3687L20.8295 39.4477L20.7717 39.5521L20.7701 39.555C20.7686 39.558 20.766 39.563 20.7627 39.57C20.7559 39.584 20.7459 39.6059 20.7342 39.6351C20.7107 39.6934 20.6803 39.7804 20.6552 39.8911C20.6051 40.1124 20.576 40.4279 20.6635 40.7998C20.751 41.1714 20.9131 41.4215 21.0508 41.5776C21.1198 41.6559 21.1829 41.7108 21.2276 41.7455C21.25 41.7628 21.2677 41.775 21.2792 41.7826C21.2849 41.7863 21.2891 41.7889 21.2915 41.7904L21.2938 41.7917L21.4201 41.8629L17.3294 49.2468L17.1938 49.1306L17.1907 49.128C17.1907 49.128 17.1873 49.1253 17.1849 49.1234C17.1829 49.1218 17.1806 49.1199 17.1779 49.1178C17.1661 49.1086 17.1479 49.095 17.124 49.0783C17.0759 49.045 17.0051 49.0001 16.9156 48.9553C16.7358 48.8653 16.4865 48.7785 16.1997 48.7819C15.9365 48.7851 15.7217 48.9249 15.5655 49.0775C15.4882 49.153 15.4284 49.2287 15.388 49.2855C15.3679 49.3137 15.3528 49.337 15.3431 49.3527C15.3382 49.3606 15.3346 49.3665 15.3325 49.3703L15.3302 49.3741L15.231 49.5532L15.0943 49.4118C14.0801 48.3632 12.6983 47.0409 11.0657 45.7477C9.73052 44.6902 7.48156 43.2772 5.80866 42.2679L5.41463 42.9791C5.82811 43.2287 6.25552 43.4792 6.68805 43.7326C8.09571 44.5576 9.55769 45.4144 10.771 46.3754C12.5506 47.7849 14.0333 49.228 15.0709 50.3185C15.5899 50.8638 15.9978 51.3213 16.2762 51.6426C16.399 51.7844 16.4966 51.8997 16.5674 51.9844L22.8717 40.6048C22.8613 40.5932 22.8497 40.5802 22.8369 40.5661C22.7679 40.4895 22.6652 40.3769 22.5309 40.2338C22.2622 39.9476 21.8673 39.5391 21.363 39.0511C20.3541 38.0749 18.9086 36.7817 17.1617 35.5131C15.9827 34.6569 14.5806 33.8792 13.1915 33.1159C13.1409 33.0881 13.0904 33.0604 13.0399 33.0326C11.7063 32.3001 10.3919 31.5781 9.3256 30.8155C8.89779 30.5096 8.39936 30.4757 7.96367 30.6066C7.52912 30.7372 7.17406 31.0261 7.01776 31.348ZM5.95694 42.0002L10.5087 33.7842L10.3298 33.7338L10.3234 33.7319C10.3176 33.7303 10.3089 33.7278 10.2976 33.7245C10.2749 33.7178 10.2413 33.7079 10.1984 33.6949C10.1126 33.669 9.98937 33.6306 9.84043 33.5814C9.5423 33.4829 9.14228 33.3411 8.73319 33.1679C8.32316 32.9943 7.90878 32.7911 7.57953 32.5706C7.24286 32.3451 7.02487 32.1206 6.96196 31.9158C6.94534 31.8617 6.93556 31.8076 6.93199 31.7538C7.43398 31.3733 8.21707 31.2365 8.84398 31.6848C9.91032 32.4474 11.2247 33.1694 12.5583 33.9019C12.6088 33.9297 12.6593 33.9575 12.7099 33.9852C14.099 34.7486 15.5011 35.5262 16.6801 36.3824C18.1983 37.485 19.489 38.6062 20.4633 39.5217C20.4624 39.524 20.4614 39.5262 20.4605 39.5285C20.4315 39.6004 20.3958 39.7037 20.3665 39.833C20.3078 40.0919 20.2751 40.4557 20.3751 40.8804C20.4751 41.3054 20.6624 41.5977 20.8273 41.7846C20.9004 41.8676 20.969 41.9296 21.0234 41.9735L17.2459 48.7921C17.1943 48.7588 17.1297 48.7206 17.0537 48.6826C16.8479 48.5795 16.5532 48.4751 16.2069 48.4792C15.8371 48.4836 15.551 48.6803 15.3646 48.8623C15.2906 48.9345 15.2303 49.0064 15.1844 49.0669C14.1764 48.0334 12.8314 46.7565 11.2526 45.506C9.89933 44.4342 7.63023 43.0096 5.95694 42.0002Z" fill="#3EAB2C"/>
    <path d="M9.58446 37.528C9.66748 37.5135 9.77765 37.5696 10.0644 37.7818C10.4219 38.0462 10.4366 38.0508 10.5024 37.9602C10.6041 37.8201 11.1331 37.5404 11.4317 37.47C11.7412 37.4014 12.2994 37.4724 12.484 37.609C12.6804 37.7543 12.6726 37.8815 12.4484 38.1904C12.3407 38.3387 12.2075 38.4807 12.1579 38.5074C12.1015 38.5353 11.9278 38.5334 11.7681 38.5039C11.42 38.4427 11.1974 38.5249 10.8942 38.8261C10.4996 39.2117 10.3131 39.7765 10.4638 40.1096C10.49 40.1733 10.6086 40.2927 10.7264 40.3798C11.0878 40.6472 11.3915 40.5616 11.9301 40.0357C12.911 39.0835 13.2513 38.8477 13.7641 38.7649C14.3916 38.6656 15.181 39.1419 15.4548 39.7877C15.6529 40.2634 15.6336 41.0469 15.4025 41.4901L15.3164 41.6669L15.666 41.9256C16.1531 42.2859 16.1598 42.3099 15.8698 42.7095C15.5529 43.1461 15.5213 43.1481 15.0538 42.8023L14.6924 42.5349L14.4719 42.739C13.8579 43.3104 12.9516 43.4694 12.339 43.1239C12.0588 42.9609 12.0594 42.8854 12.3434 42.494C12.6245 42.1068 12.7196 42.0506 12.9154 42.1384C13.438 42.3667 13.8983 42.1817 14.3528 41.5556C14.5262 41.3166 14.5783 41.2033 14.6195 40.9552C14.6924 40.5469 14.6131 40.3236 14.3106 40.0998C13.8431 39.754 13.5333 39.8731 12.6883 40.7295C11.6585 41.7658 10.9693 41.9334 10.164 41.3377C9.80657 41.0732 9.63742 40.8405 9.54132 40.4655C9.42687 40.0326 9.48888 39.4897 9.70539 39.0167C9.76648 38.8909 9.76255 38.888 9.42865 38.641C8.95727 38.2923 8.95053 38.2684 9.24056 37.8688C9.41397 37.6298 9.50444 37.5385 9.58446 37.528Z" fill="#3EAB2C"/>
    <path d="M159.811 168.829L141.6 123.189C141.6 123.189 131.2 133.011 116.437 141.834C109.72 145.848 101.457 148.985 94.1447 152.237L95.672 156.064C102.517 153.053 112.056 148.663 117.793 145.234C124.615 141.157 130.506 136.866 134.869 133.43C134.869 133.43 135.907 136.033 138.279 136.329C140.651 136.625 142.559 135.384 142.559 135.384L153.622 163.108C153.622 163.108 151.554 163.95 150.437 166.8C149.321 169.649 150.198 171.847 150.198 171.847C146.014 174.854 140.449 178.542 133.989 182.056C124.184 187.39 111.203 191.162 102.145 196.007C99.1974 197.584 95.9382 196.524 94.1437 194.639C94.0914 195.125 94.1508 195.616 94.304 196.095C95.2356 199.008 99.6366 201.475 103.502 199.407C112.56 194.562 125.54 190.79 135.345 185.456C149.826 177.579 159.811 168.829 159.811 168.829Z" fill="#3EAB2C"/>
    <path d="M91.1628 144.764C91.1628 144.764 78.8745 146.693 77.159 150.334C76.7255 151.254 76.7377 152.276 77.087 153.241L93.0003 192.85L93.1065 193.114C93.3443 193.655 93.699 194.173 94.1437 194.639C94.1809 194.294 94.2746 193.952 94.4312 193.62C96.1467 189.979 108.435 188.05 108.435 188.05L95.672 156.064L94.1447 152.237L91.1628 144.764Z" fill="#3EAB2C"/>
    <path d="M108.435 188.05C108.435 188.05 96.1467 189.979 94.4312 193.62C94.2746 193.952 94.1809 194.294 94.1437 194.639C95.9382 196.524 99.1974 197.584 102.145 196.007C111.203 191.162 124.184 187.39 133.989 182.056C140.449 178.542 146.014 174.854 150.198 171.847C150.198 171.847 149.321 169.649 150.437 166.8C151.554 163.95 153.622 163.108 153.622 163.108L142.559 135.384C142.559 135.384 140.651 136.625 138.279 136.329C135.907 136.033 134.869 133.43 134.869 133.43C130.506 136.866 124.615 141.157 117.793 145.234C112.056 148.663 102.517 153.053 95.672 156.064L108.435 188.05Z" fill="#93E687"/>
    <path fill-rule="evenodd" clip-rule="evenodd" d="M76.5652 153.44L76.5618 153.43C76.17 152.348 76.1461 151.167 76.6535 150.09C77.169 148.996 78.414 148.122 79.8202 147.423C81.257 146.708 82.9904 146.115 84.6482 145.642C86.3098 145.168 87.9146 144.81 89.1024 144.571C89.6968 144.451 90.188 144.361 90.5312 144.3C90.7028 144.27 90.8375 144.247 90.9296 144.232C90.9757 144.224 91.0111 144.218 91.0352 144.214L91.0628 144.21L91.072 144.209C91.072 144.209 91.0729 144.208 91.1628 144.764L91.072 144.209L91.5145 144.139L94.4465 151.487C96.1486 150.736 97.8925 149.992 99.6494 149.242C105.341 146.813 111.168 144.327 116.149 141.35C123.503 136.955 129.773 132.309 134.204 128.762C136.42 126.989 138.175 125.491 139.375 124.437C139.975 123.91 140.436 123.494 140.747 123.211C140.902 123.069 141.02 122.96 141.098 122.887C141.138 122.851 141.167 122.823 141.187 122.805L141.209 122.784L141.215 122.778C141.215 122.778 141.215 122.778 141.234 122.797L141.215 122.778L141.812 122.215L160.478 168.994L160.18 169.255L159.811 168.829C160.18 169.255 160.18 169.255 160.18 169.255L160.172 169.262L160.149 169.281C160.129 169.299 160.1 169.324 160.061 169.358C159.983 169.425 159.867 169.524 159.715 169.652C159.411 169.909 158.962 170.284 158.378 170.758C157.209 171.706 155.502 173.052 153.341 174.643C149.02 177.826 142.882 181.998 135.614 185.951C130.677 188.637 124.949 190.925 119.351 193.139C119.157 193.215 118.962 193.292 118.768 193.369C113.359 195.507 108.106 197.583 103.767 199.904C101.666 201.028 99.4208 200.915 97.5883 200.137C95.7792 199.368 94.3105 197.922 93.7784 196.284L92.5917 193.33C92.5511 193.237 92.5134 193.144 92.4788 193.049L76.5652 153.44ZM93.5221 192.652C93.507 192.61 93.4928 192.568 93.4794 192.526L93.4726 192.528L77.609 153.043C77.3054 152.199 77.3063 151.338 77.6645 150.577C78.0068 149.851 78.9411 149.118 80.3214 148.432C81.6713 147.76 83.3316 147.189 84.9602 146.724C86.5852 146.261 88.1598 145.909 89.3296 145.674C89.914 145.556 90.3962 145.467 90.7318 145.408C90.7599 145.403 90.787 145.398 90.8131 145.394L107.659 187.612C107.328 187.671 106.89 187.753 106.375 187.857C105.187 188.097 103.582 188.455 101.921 188.929C100.263 189.401 98.5292 189.995 97.0925 190.709C95.6862 191.408 94.4412 192.282 93.9257 193.376C93.9178 193.393 93.91 193.41 93.9023 193.427C93.794 193.253 93.7 193.076 93.6212 192.898L93.5221 192.652ZM94.852 195.975C96.8614 197.369 99.7455 197.929 102.41 196.504C106.749 194.183 112.003 192.107 117.411 189.969C117.605 189.892 117.8 189.815 117.994 189.738C123.592 187.525 129.32 185.237 134.257 182.551C140.742 179.023 146.327 175.322 150.525 172.305L150.88 172.05L150.717 171.642C150.717 171.642 150.715 171.636 150.713 171.63C150.708 171.619 150.701 171.599 150.692 171.572C150.674 171.518 150.648 171.433 150.619 171.321C150.561 171.097 150.492 170.764 150.456 170.346C150.382 169.511 150.436 168.339 150.958 167.009C151.479 165.68 152.217 164.829 152.814 164.313C153.114 164.055 153.379 163.88 153.565 163.771C153.658 163.717 153.73 163.68 153.777 163.657C153.801 163.645 153.818 163.637 153.828 163.633C153.832 163.631 153.837 163.629 153.837 163.629L154.348 163.421L142.824 134.541L142.255 134.911L142.254 134.911C142.252 134.913 142.247 134.915 142.242 134.919C142.236 134.922 142.228 134.927 142.218 134.933C142.21 134.938 142.2 134.944 142.189 134.951C142.139 134.98 142.064 135.022 141.966 135.073C141.768 135.175 141.479 135.31 141.12 135.437C140.399 135.692 139.418 135.905 138.344 135.771C137.358 135.648 136.624 135.043 136.117 134.416C135.866 134.105 135.681 133.802 135.559 133.576C135.498 133.463 135.454 133.372 135.425 133.31C135.411 133.279 135.401 133.255 135.394 133.241C135.391 133.233 135.389 133.228 135.388 133.225L135.387 133.224L135.108 132.525L134.522 132.987C130.173 136.412 124.302 140.688 117.505 144.75C111.947 148.072 102.775 152.314 95.9742 155.316L94.8642 152.534C96.5452 151.792 98.2789 151.052 100.033 150.303C105.743 147.867 111.674 145.337 116.725 142.318C124.134 137.89 130.445 133.213 134.904 129.644C137.134 127.859 138.902 126.35 140.113 125.286C140.648 124.817 141.074 124.435 141.383 124.153L159.143 168.661C159.098 168.7 159.048 168.743 158.992 168.789C158.694 169.042 158.25 169.412 157.672 169.881C156.515 170.82 154.822 172.154 152.676 173.734C148.384 176.896 142.289 181.038 135.077 184.961C130.209 187.609 124.544 189.874 118.936 192.091C118.732 192.172 118.528 192.253 118.324 192.333C112.94 194.461 107.633 196.559 103.236 198.91C101.472 199.854 99.5845 199.767 98.0173 199.101C96.4543 198.437 95.2716 197.224 94.852 195.975ZM96.392 156.363L109.215 188.498L108.517 188.607L108.492 188.611C108.47 188.615 108.436 188.62 108.391 188.628C108.303 188.642 108.172 188.665 108.004 188.694C107.668 188.753 107.186 188.842 106.602 188.96C105.432 189.196 103.857 189.547 102.232 190.011C100.604 190.475 98.9435 191.047 97.5937 191.718C96.2134 192.404 95.279 193.137 94.9368 193.864C94.8464 194.055 94.7817 194.25 94.7404 194.446C96.427 196.058 99.2947 196.893 101.88 195.51C106.276 193.159 111.583 191.061 116.967 188.933C117.171 188.853 117.375 188.772 117.579 188.691C123.187 186.474 128.852 184.209 133.72 181.561C139.989 178.151 145.413 174.576 149.544 171.623C149.542 171.614 149.539 171.606 149.537 171.597C149.465 171.32 149.385 170.925 149.342 170.437C149.256 169.461 149.322 168.109 149.917 166.59C150.513 165.07 151.367 164.075 152.083 163.458C152.4 163.184 152.69 162.984 152.917 162.846L142.275 136.177C142.064 136.278 141.802 136.391 141.497 136.498C140.671 136.79 139.511 137.049 138.214 136.887C136.828 136.714 135.857 135.87 135.252 135.122C135.011 134.825 134.822 134.535 134.681 134.293C130.363 137.666 124.654 141.79 118.081 145.718C112.448 149.085 103.194 153.361 96.392 156.363Z" fill="#3EAB2C"/>
    <path d="M105.788 170.493C105.877 170.188 106.249 169.9 107.44 169.251C108.925 168.443 108.965 168.399 108.768 168.037C108.463 167.476 108.395 165.249 108.652 164.127C108.933 162.97 110.097 161.182 110.864 160.764C111.68 160.32 112.097 160.541 112.768 161.777C113.091 162.371 113.35 163.042 113.358 163.251C113.358 163.486 113.064 164.073 112.7 164.57C111.917 165.659 111.826 166.542 112.341 168.035C112.989 169.967 114.587 171.468 115.961 171.467C116.22 171.476 116.819 171.256 117.309 170.989C118.81 170.171 119.024 169.008 118.141 166.371C116.55 161.576 116.318 160.058 116.888 158.188C117.592 155.903 120.507 153.952 123.141 154.012C125.076 154.069 127.689 155.337 128.803 156.803L129.257 157.367L130.71 156.576C132.733 155.474 132.825 155.488 133.694 157.086C134.643 158.834 134.598 158.944 132.656 160.002L131.155 160.819L131.478 161.882C132.391 164.846 131.426 168.169 129.245 169.721C128.231 170.423 127.976 170.305 127.126 168.739C126.284 167.19 126.251 166.78 126.872 166.249C128.509 164.824 128.647 162.976 127.285 160.471C126.766 159.515 126.469 159.164 125.7 158.643C124.442 157.768 123.556 157.695 122.3 158.38C120.358 159.438 120.247 160.673 121.739 164.859C123.532 169.949 122.957 172.548 119.611 174.37C118.126 175.179 117.06 175.397 115.635 175.148C113.984 174.872 112.253 173.828 111.015 172.367C110.692 171.966 110.675 171.975 109.288 172.731C107.33 173.797 107.238 173.783 106.369 172.185C105.85 171.229 105.691 170.781 105.788 170.493Z" fill="#3EAB2C"/>
    <path fill-rule="evenodd" clip-rule="evenodd" d="M54.1852 164.37L41.7495 185.256C41.7495 185.256 37.1797 179.505 30.3313 173.863C27.2157 171.296 22.9833 168.608 19.5126 166.365L7.38356 158.843L19.6411 138.256C19.6411 138.256 25.5071 142.699 27.8474 144.366C32.0895 147.547 38.392 150.545 42.9775 154.033C49.7496 159.184 54.1852 164.37 54.1852 164.37ZM42.051 155.589C37.4655 152.101 31.163 149.103 26.9209 145.922C26.0657 145.312 24.677 144.294 23.2863 143.263C23.2863 143.263 22.7991 144.504 21.273 144.813C19.7405 145.124 18.6761 144.244 18.6761 144.244L12.0841 155.315C12.0841 155.315 13.3408 156.304 13.5763 157.739C13.8119 159.175 12.8074 160.158 12.8074 160.158L20.4034 164.869L20.5204 164.944C23.7722 167.028 28.628 170.14 31.2578 172.307C34.4224 174.914 37.1004 177.544 39.0659 179.62C39.0659 179.62 39.775 178.429 40.9961 178.491C42.2172 178.554 43.0956 179.332 43.0956 179.332L50.6497 166.645C50.6497 166.645 49.6625 166.049 49.2985 164.548C48.9344 163.046 49.5333 162.04 49.5333 162.04C47.6285 160.192 45.0723 157.887 42.051 155.589Z" fill="#3EAB2C"/>
    <path d="M26.9209 145.922C31.163 149.103 37.4655 152.101 42.051 155.589C45.0723 157.887 47.6285 160.192 49.5333 162.04C49.5333 162.04 48.9344 163.046 49.2985 164.548C49.6625 166.049 50.6497 166.645 50.6497 166.645L43.0956 179.332C43.0956 179.332 42.2172 178.554 40.9961 178.491C39.775 178.429 39.0659 179.62 39.0659 179.62C37.1004 177.544 34.4224 174.914 31.2578 172.307C28.628 170.14 23.7722 167.028 20.5204 164.944L20.4034 164.869L12.8074 160.158C12.8074 160.158 13.8119 159.175 13.5763 157.739C13.3408 156.304 12.0841 155.315 12.0841 155.315L18.6761 144.244C18.6761 144.244 19.7405 145.124 21.273 144.813C22.7991 144.504 23.2863 143.263 23.2863 143.263C24.677 144.294 26.0657 145.312 26.9209 145.922Z" fill="#93E687"/>
    <path d="M25.2556 155.101C25.415 155.079 25.6309 155.191 26.1969 155.603C26.9023 156.117 26.9311 156.127 27.0527 155.963C27.2407 155.709 28.2453 155.224 28.8174 155.112C29.4106 155.005 30.4921 155.173 30.8565 155.438C31.2441 155.721 31.2366 155.956 30.822 156.516C30.6229 156.784 30.3741 157.039 30.2801 157.086C30.1727 157.134 29.8374 157.119 29.5274 157.054C28.8521 156.918 28.4272 157.056 27.8598 157.596C27.121 158.287 26.7943 159.324 27.1047 159.952C27.159 160.072 27.395 160.302 27.6276 160.471C28.3408 160.991 28.9218 160.852 29.9304 159.909C31.7675 158.204 32.4102 157.788 33.3952 157.667C34.6004 157.523 36.1519 158.459 36.7184 159.676C37.1287 160.572 37.1376 162.026 36.7177 162.834L36.5619 163.157L37.2519 163.66C38.2132 164.361 38.2276 164.406 37.6914 165.129C37.1054 165.92 37.0446 165.921 36.122 165.249L35.4088 164.729L34.9951 165.094C33.8437 166.116 32.104 166.353 30.9014 165.672C30.3511 165.351 30.3476 165.211 30.8728 164.502C31.3924 163.801 31.5728 163.703 31.9559 163.878C32.9778 164.336 33.8553 164.022 34.6956 162.888C35.0162 162.456 35.1101 162.249 35.175 161.79C35.2917 161.037 35.1254 160.617 34.5284 160.182C33.6059 159.51 33.015 159.711 31.4346 161.247C29.508 163.105 28.1878 163.372 26.5985 162.214C25.893 161.7 25.5529 161.257 25.3453 160.554C25.0989 159.743 25.1867 158.738 25.5767 157.874C25.6872 157.644 25.6794 157.638 25.0205 157.158C24.0902 156.48 24.0757 156.435 24.612 155.712C24.9326 155.279 25.1018 155.115 25.2556 155.101Z" fill="#3EAB2C"/>
    <path fill-rule="evenodd" clip-rule="evenodd" d="M42.5194 72.1213L31.1314 56.3702C31.1314 56.3702 28.0192 61.1885 23.1175 66.0581C20.8875 68.2736 17.7943 70.6514 15.2609 72.6328L6.3821 79.3057L17.6069 94.8312C17.6069 94.8312 21.8367 90.9685 23.5326 89.5106C26.5939 86.7417 31.2803 83.9944 34.5856 80.9628C39.4669 76.4857 42.5194 72.1213 42.5194 72.1213ZM33.7372 79.7894C30.432 82.8209 25.7455 85.5683 22.6842 88.3372C22.0645 88.87 21.0605 89.7583 20.0558 90.6562C20.0558 90.6562 19.576 89.7053 18.3585 89.5529C17.1359 89.4 16.3744 90.159 16.3744 90.159L10.3378 81.8096C10.3378 81.8096 11.2409 80.9528 11.3103 79.8044C11.3798 78.656 10.5161 77.9401 10.5161 77.9401L16.0766 73.7611L16.1621 73.6948C18.5371 71.8526 22.0836 69.1015 23.9659 67.2316C26.2309 64.9813 28.1139 62.742 29.4842 60.9841C29.4842 60.9841 30.1336 61.8823 31.083 61.7595C32.0324 61.6368 32.6567 60.9687 32.6567 60.9687L39.5743 70.5367C39.5743 70.5367 38.8504 71.067 38.6858 72.2753C38.5213 73.4836 39.0697 74.2421 39.0697 74.2421C37.7286 75.817 35.9149 77.792 33.7372 79.7894Z" fill="#3EAB2C"/>
    <path d="M22.6842 88.3372C25.7455 85.5683 30.432 82.8209 33.7372 79.7894C35.9149 77.792 37.7286 75.817 39.0697 74.2421C39.0697 74.2421 38.5213 73.4836 38.6858 72.2753C38.8504 71.067 39.5743 70.5367 39.5743 70.5367L32.6567 60.9687C32.6567 60.9687 32.0324 61.6368 31.083 61.7595C30.1336 61.8823 29.4842 60.9841 29.4842 60.9841C28.1139 62.742 26.2309 64.9813 23.9659 67.2316C22.0836 69.1015 18.5371 71.8526 16.1621 73.6948L16.0766 73.7611L10.5161 77.9401C10.5161 77.9401 11.3798 78.656 11.3103 79.8044C11.2409 80.9528 10.3378 81.8096 10.3378 81.8096L16.3744 90.159C16.3744 90.159 17.1359 89.4 18.3585 89.5529C19.576 89.7053 20.0558 90.6562 20.0558 90.6562C21.0605 89.7583 22.0645 88.87 22.6842 88.3372Z" fill="#93E687"/>
    <path fill-rule="evenodd" clip-rule="evenodd" d="M17.5716 95.1652L6.07218 79.26L15.125 72.4563C15.3107 72.311 15.4993 72.1637 15.6903 72.0146C18.1088 70.1258 20.9044 67.9426 22.9598 65.9006C25.4017 63.4748 27.3985 61.0609 28.7849 59.2533C29.478 58.3496 30.0182 57.5979 30.3849 57.0725C30.5682 56.8098 30.7082 56.6038 30.8021 56.4636C30.849 56.3935 30.8845 56.34 30.9082 56.304C30.92 56.286 30.9288 56.2725 30.9347 56.2635L30.9413 56.2534L30.9428 56.2509C30.9428 56.2509 30.9433 56.2503 30.9507 56.255L30.9428 56.2509L31.1218 55.9739L42.7939 72.118L42.7029 72.2481L42.5194 72.1213C42.7029 72.2481 42.7029 72.2481 42.7029 72.2481L42.7022 72.2491L42.7004 72.2517L42.6934 72.2616C42.6873 72.2702 42.6783 72.283 42.6663 72.2998C42.6424 72.3334 42.6068 72.383 42.5599 72.4476C42.4661 72.5769 42.3269 72.766 42.1447 73.0068C41.7804 73.4884 41.2442 74.1766 40.5551 75.0049C39.1771 76.6613 37.1867 78.8795 34.7367 81.1266C33.0724 82.653 31.0633 84.1055 29.0978 85.516C29.0295 85.5651 28.9612 85.614 28.893 85.663C26.9938 87.0256 25.1491 88.3491 23.6826 89.6754L23.6805 89.6774L23.6783 89.6792C22.8329 90.406 21.3536 91.7342 20.0837 92.8824C19.4492 93.4562 18.8677 93.9844 18.4448 94.3692C18.2333 94.5616 18.0615 94.7181 17.9426 94.8265C17.8832 94.8807 17.8369 94.9229 17.8055 94.9516L17.7577 94.9952C17.7577 94.9952 17.7577 94.9952 17.6069 94.8312L17.7577 94.9952L17.5716 95.1652ZM17.6423 94.4972C17.7613 94.3888 17.9328 94.2325 18.1438 94.0405C18.567 93.6555 19.1489 93.1269 19.7838 92.5528C21.0518 91.4062 22.5339 90.0754 23.3848 89.3439C24.8703 88.0006 26.7328 86.6644 28.6225 85.3087C28.6941 85.2573 28.7658 85.2059 28.8375 85.1544C30.8068 83.7412 32.7935 82.3042 34.4344 80.7991C36.8658 78.569 38.8423 76.3665 40.2109 74.7214C40.8951 73.899 41.427 73.2163 41.7876 72.7396C41.9679 72.5013 42.1053 72.3145 42.1975 72.1875C42.2146 72.1641 42.2301 72.1426 42.244 72.1233L31.1385 56.7629C31.0448 56.9021 30.9154 57.0919 30.7522 57.3258C30.3821 57.856 29.8379 58.6132 29.1402 59.5229C27.7452 61.3418 25.735 63.7719 23.2751 66.2157C21.1995 68.2777 18.3829 70.4772 15.9697 72.3617C15.7765 72.5126 15.5859 72.6614 15.3985 72.808L15.3968 72.8094L6.69202 79.3515L17.6423 94.4972ZM16.3457 90.5023L10.0418 81.7832L10.1836 81.6487L10.1848 81.6475C10.1848 81.6475 10.1879 81.6445 10.1907 81.6418C10.1962 81.6363 10.2047 81.6278 10.2159 81.6162C10.2383 81.593 10.2712 81.5579 10.3113 81.5119C10.3917 81.4198 10.5002 81.2851 10.6107 81.1165C10.8334 80.7767 11.0553 80.3134 11.0868 79.7924C11.1178 79.2787 10.9407 78.8589 10.7504 78.5628C10.6555 78.415 10.5586 78.3002 10.486 78.2229C10.4498 78.1844 10.42 78.1555 10.3998 78.1368C10.3948 78.1321 10.3903 78.128 10.3866 78.1246C10.3828 78.1213 10.3798 78.1185 10.3774 78.1165C10.375 78.1144 10.3725 78.1122 10.3725 78.1122L10.1556 77.9324L15.9397 73.5854L16.0252 73.5191C18.4051 71.673 21.9382 68.9319 23.8082 67.0741C26.0649 64.8322 27.9416 62.6004 29.3076 60.8479L29.4918 60.6117L29.6662 60.8529C29.6662 60.8529 29.6685 60.856 29.6705 60.8585C29.6743 60.8636 29.6805 60.8715 29.6889 60.882C29.7059 60.903 29.7318 60.9339 29.766 60.9712C29.8348 61.0459 29.9355 61.1444 30.0624 61.2388C30.3186 61.4296 30.6607 61.5893 31.0555 61.5382C31.4855 61.4827 31.8463 61.3027 32.1025 61.1326C32.23 61.048 32.3296 60.9672 32.3966 60.9082C32.4301 60.8787 32.4553 60.8548 32.4716 60.8389C32.4798 60.8309 32.4857 60.8249 32.4893 60.8212C32.4911 60.8193 32.493 60.8174 32.493 60.8174L32.6797 60.6176L39.8858 70.5847L39.7071 70.7156L39.7038 70.7181C39.7004 70.7208 39.6945 70.7255 39.6865 70.7322C39.6703 70.7457 39.6456 70.7674 39.6147 70.7976C39.5528 70.8579 39.4663 70.9517 39.3743 71.0811C39.1908 71.3393 38.9845 71.7403 38.9078 72.304C38.831 72.8681 38.9207 73.3247 39.0281 73.6386C39.0818 73.7958 39.14 73.917 39.1837 73.9976C39.2056 74.0378 39.2238 74.0678 39.2359 74.087C39.24 74.0935 39.2435 74.0988 39.2461 74.1027C39.2473 74.1045 39.2492 74.1074 39.2492 74.1074C39.2506 74.1094 39.2519 74.1113 39.2519 74.1113L39.3538 74.2522L39.2401 74.3858C37.8945 75.9661 36.0744 77.9481 33.8883 79.9531C32.2241 81.4796 30.2149 82.932 28.2494 84.3426C28.1811 84.3916 28.1128 84.4406 28.0446 84.4895C26.1454 85.8521 24.3007 87.1756 22.8342 88.502L22.8321 88.5039L22.8299 88.5058C22.2119 89.037 21.2093 89.9241 20.2048 90.8219L19.9866 91.017L19.856 90.7582C19.856 90.7582 19.8545 90.7553 19.8531 90.7528C19.8505 90.7479 19.846 90.7398 19.8395 90.7289C19.8267 90.7071 19.8063 90.6742 19.7778 90.6336C19.7208 90.5521 19.6324 90.4405 19.5092 90.3242C19.2635 90.0924 18.8812 89.8434 18.3292 89.7744C17.7714 89.7046 17.3201 89.8425 17.007 89.9982C16.8502 90.0761 16.7288 90.1582 16.6476 90.2199C16.607 90.2507 16.5767 90.2763 16.5573 90.2934C16.5475 90.302 16.5405 90.3085 16.5363 90.3124C16.5342 90.3144 16.5322 90.3164 16.5322 90.3164L16.3457 90.5023ZM16.4175 89.8358C16.5147 89.7651 16.6462 89.68 16.809 89.5991C17.1823 89.4135 17.723 89.2484 18.3877 89.3316C19.0533 89.4148 19.5196 89.7175 19.8182 89.9992C19.9392 90.1134 20.0329 90.2243 20.1019 90.3163C21.039 89.4799 21.9549 88.6703 22.5364 88.1705C24.0219 86.8272 25.8844 85.4909 27.7741 84.1352C27.8457 84.0838 27.9174 84.0324 27.9891 83.981C29.9584 82.5678 31.9451 81.1307 33.586 79.6257C35.6992 77.6874 37.4689 75.7699 38.7945 74.2211C38.7928 74.218 38.7911 74.2149 38.7894 74.2118C38.7355 74.1124 38.6668 73.9685 38.604 73.785C38.4783 73.4176 38.3762 72.8908 38.4639 72.2467C38.5517 71.602 38.7896 71.1338 39.0093 70.8247C39.1067 70.6876 39.2004 70.582 39.2755 70.5063L32.621 61.3023C32.5487 61.362 32.4574 61.4317 32.3492 61.5036C32.0559 61.6982 31.6298 61.9137 31.1105 61.9808C30.5559 62.0525 30.0986 61.8245 29.7928 61.5969C29.6715 61.5065 29.5706 61.4139 29.4929 61.3348C28.1341 63.0639 26.3058 65.2211 24.1235 67.3891C22.2314 69.2688 18.678 72.0252 16.308 73.8636L16.2122 73.9379L10.8563 77.9632C10.9366 78.0528 11.0332 78.1728 11.1281 78.3205C11.3523 78.6694 11.5723 79.1818 11.5339 79.8165C11.496 80.4438 11.2316 80.9831 10.9853 81.3588C10.8614 81.548 10.7397 81.6992 10.6486 81.8036C10.6414 81.8118 10.6344 81.8198 10.6275 81.8275L16.4175 89.8358Z" fill="#3EAB2C"/>
    <path d="M19.786 80.2307C19.7915 80.1047 19.9088 79.9566 20.3103 79.588C20.8108 79.1284 20.8222 79.1078 20.7114 78.9879C20.5402 78.8026 20.3032 77.9521 20.297 77.4943C20.2967 77.0209 20.5802 76.2165 20.8386 75.9792C21.1136 75.7267 21.2964 75.7705 21.6742 76.1793C21.8555 76.3755 22.0194 76.6079 22.0423 76.6877C22.0647 76.7779 22.006 77.0334 21.9115 77.2612C21.7102 77.7584 21.7582 78.1074 22.0992 78.6305C22.5337 79.3097 23.2964 79.7279 23.8301 79.5904C23.9314 79.568 24.1436 79.4235 24.3085 79.272C24.8145 78.8074 24.7877 78.3384 24.1952 77.4112C23.1243 75.7243 22.8905 75.1632 22.9352 74.3865C22.9929 73.4368 23.9412 72.3947 24.9702 72.1552C25.7271 71.9841 26.8623 72.2114 27.4334 72.6644L27.6633 72.8362L28.1528 72.3867C28.8347 71.7605 28.8718 71.7567 29.3604 72.2854C29.8944 72.8632 29.887 72.9103 29.2326 73.5112L28.7266 73.9758L28.9528 74.3526C29.5873 75.4023 29.5267 76.7779 28.8259 77.5927C28.4982 77.9642 28.3883 77.9442 27.9097 77.4264C27.4362 76.914 27.385 76.7595 27.5761 76.4933C28.0772 75.7813 27.956 75.0562 27.1904 74.2277C26.8982 73.9115 26.7498 73.8059 26.4017 73.6822C25.8305 73.4712 25.4796 73.5314 25.0561 73.9203C24.4016 74.5212 24.4752 75.0079 25.4504 76.4702C26.628 78.2506 26.65 79.3086 25.5226 80.3438C25.0221 80.8033 24.6285 80.9935 24.0513 81.0399C23.3838 81.0986 22.6128 80.8694 21.9936 80.4304C21.8301 80.3085 21.8246 80.3135 21.3571 80.7427C20.6972 81.3487 20.6601 81.3526 20.1715 80.8239C19.8793 80.5077 19.7754 80.3512 19.786 80.2307Z" fill="#3EAB2C"/>
    <path d="M267.568 192.796C264.145 204.839 251.59 211.832 239.527 208.414C227.464 204.997 220.46 192.463 223.884 180.42C227.307 168.377 239.861 161.384 251.924 164.802C263.987 168.219 270.991 180.753 267.568 192.796Z" fill="#2775CA"/>
    <path d="M267.568 192.796C264.145 204.839 251.59 211.832 239.527 208.414C227.464 204.997 220.46 192.463 223.884 180.42C227.307 168.377 239.861 161.384 251.924 164.802C263.987 168.219 270.991 180.753 267.568 192.796ZM226.258 181.093C223.207 191.827 229.449 202.998 240.201 206.044C250.953 209.09 262.142 202.858 265.193 192.123C268.244 181.389 262.002 170.218 251.25 167.172C240.498 164.126 229.309 170.358 226.258 181.093Z" fill="#0C519D"/>
    <path d="M238.874 199.681C238.54 200.318 237.749 200.568 237.14 200.184C234.462 198.496 232.333 196.05 231.036 193.144C229.562 189.841 229.247 186.137 230.144 182.633C231.041 179.129 233.096 176.03 235.978 173.838C238.512 171.909 241.555 170.782 244.716 170.584C245.435 170.539 246.009 171.137 245.996 171.856C245.982 172.575 245.387 173.141 244.669 173.197C242.096 173.399 239.626 174.336 237.559 175.909C235.145 177.745 233.422 180.342 232.671 183.278C231.92 186.213 232.183 189.317 233.419 192.084C234.477 194.454 236.194 196.459 238.354 197.868C238.957 198.262 239.208 199.043 238.874 199.681Z" fill="#FEFEFC"/>
    <path d="M244.678 201.325C244.627 202.042 245.169 202.67 245.889 202.663C249.056 202.631 252.154 201.665 254.787 199.873C257.78 197.835 259.996 194.848 261.076 191.396C262.156 187.944 262.038 184.229 260.739 180.853C259.597 177.883 257.601 175.328 255.016 173.502C254.428 173.086 253.624 173.295 253.257 173.914C252.89 174.532 253.099 175.326 253.681 175.751C255.763 177.272 257.373 179.364 258.304 181.786C259.392 184.615 259.492 187.728 258.587 190.62C257.681 193.512 255.825 196.014 253.317 197.722C251.17 199.184 248.654 199.989 246.074 200.056C245.354 200.074 244.729 200.608 244.678 201.325Z" fill="#FEFEFC"/>
    <path d="M249.365 177.527C249.464 177.702 249.429 177.999 249.193 178.828C248.899 179.862 248.901 179.899 249.152 179.97C249.541 180.08 250.578 181.037 250.971 181.651C251.369 182.292 251.66 183.614 251.508 184.147C251.347 184.715 251.062 184.806 250.205 184.564C249.793 184.447 249.375 184.267 249.277 184.178C249.171 184.074 249.036 183.68 248.973 183.294C248.829 182.456 248.47 182.023 247.567 181.595C246.406 181.033 245.018 181.094 244.408 181.719C244.29 181.832 244.123 182.202 244.026 182.543C243.729 183.588 244.16 184.201 245.744 184.969C248.617 186.372 249.406 186.939 249.998 188.027C250.718 189.36 250.305 191.55 249.108 192.721C248.224 193.574 246.49 194.2 245.334 194.057L244.877 194.013L244.59 195.024C244.189 196.432 244.142 196.468 243.034 196.154C241.823 195.811 241.793 195.741 242.177 194.389L242.474 193.345L241.85 193.021C240.106 192.121 239.032 190.21 239.299 188.53C239.433 187.758 239.599 187.695 240.684 188.002C241.758 188.307 241.958 188.473 241.922 188.991C241.839 190.367 242.613 191.249 244.35 191.741C245.013 191.928 245.303 191.949 245.88 191.831C246.833 191.647 247.26 191.276 247.508 190.402C247.892 189.05 247.383 188.452 244.829 187.274C241.733 185.833 240.814 184.419 241.476 182.09C241.769 181.057 242.144 180.476 242.89 179.939C243.747 179.31 244.987 178.987 246.198 179.072C246.522 179.102 246.526 179.091 246.8 178.126C247.187 176.763 247.235 176.727 248.343 177.041C249.006 177.229 249.278 177.355 249.365 177.527Z" fill="#FEFEFC"/>
    <path d="M300.103 169.013C301.724 174.934 298.23 181.044 292.3 182.662C286.37 184.28 280.25 180.792 278.629 174.872C277.009 168.952 280.502 162.841 286.432 161.223C292.362 159.605 298.483 163.093 300.103 169.013Z" fill="#2775CA"/>
    <path d="M300.103 169.013C301.724 174.934 298.23 181.044 292.3 182.662C286.37 184.28 280.25 180.792 278.629 174.872C277.009 168.952 280.502 162.841 286.432 161.223C292.362 159.605 298.483 163.093 300.103 169.013ZM279.796 174.553C281.241 179.83 286.696 182.939 291.981 181.497C297.267 180.055 300.381 174.608 298.936 169.332C297.492 164.055 292.037 160.946 286.751 162.388C281.466 163.83 278.352 169.277 279.796 174.553Z" fill="#0C519D"/>
    <path d="M289.809 179.162C289.831 179.514 289.562 179.819 289.209 179.812C287.657 179.782 286.143 179.293 284.861 178.402C283.403 177.389 282.331 175.914 281.818 174.217C281.305 172.519 281.381 170.699 282.034 169.05C282.608 167.599 283.599 166.356 284.875 165.473C285.165 165.272 285.558 165.378 285.735 165.684C285.912 165.989 285.806 166.377 285.519 166.582C284.49 167.318 283.691 168.336 283.223 169.519C282.676 170.9 282.612 172.426 283.042 173.848C283.472 175.27 284.37 176.506 285.591 177.355C286.637 178.081 287.867 178.488 289.131 178.533C289.484 178.546 289.788 178.81 289.809 179.162Z" fill="#FEFEFC"/>
    <path d="M292.663 178.384C292.823 178.698 293.21 178.824 293.51 178.639C294.831 177.824 295.886 176.635 296.536 175.217C297.275 173.605 297.447 171.79 297.024 170.068C296.601 168.346 295.608 166.817 294.206 165.729C292.973 164.771 291.487 164.204 289.938 164.092C289.586 164.066 289.302 164.357 289.305 164.71C289.308 165.062 289.597 165.342 289.949 165.373C291.209 165.485 292.415 165.956 293.421 166.736C294.596 167.648 295.428 168.929 295.782 170.372C296.136 171.815 295.992 173.335 295.373 174.686C294.843 175.843 293.992 176.817 292.926 177.498C292.629 177.688 292.502 178.07 292.663 178.384Z" fill="#FEFEFC"/>
    <path d="M288.589 167.211C288.674 167.259 288.735 167.393 288.847 167.8C288.986 168.308 288.996 168.324 289.119 168.29C289.31 168.238 289.988 168.377 290.309 168.535C290.639 168.703 291.097 169.184 291.168 169.447C291.245 169.726 291.148 169.836 290.727 169.951C290.525 170.006 290.304 170.037 290.24 170.024C290.169 170.008 290.012 169.876 289.888 169.73C289.614 169.415 289.354 169.324 288.867 169.373C288.237 169.431 287.67 169.807 287.572 170.224C287.551 170.302 287.575 170.499 287.621 170.667C287.762 171.18 288.098 171.329 288.958 171.25C290.52 171.112 290.995 171.15 291.52 171.457C292.16 171.834 292.543 172.858 292.338 173.652C292.183 174.234 291.614 174.935 291.093 175.168L290.89 175.265L291.026 175.762C291.215 176.454 291.205 176.481 290.66 176.63C290.064 176.792 290.034 176.77 289.852 176.106L289.712 175.592L289.368 175.614C288.407 175.678 287.471 175.148 287.157 174.375C287.017 174.017 287.071 173.949 287.604 173.803C288.132 173.659 288.259 173.679 288.375 173.905C288.689 174.503 289.238 174.678 290.092 174.445C290.418 174.356 290.545 174.291 290.757 174.095C291.11 173.777 291.195 173.514 291.077 173.084C290.896 172.419 290.53 172.297 289.159 172.449C287.494 172.627 286.749 172.267 286.436 171.122C286.297 170.614 286.307 170.275 286.483 169.861C286.684 169.38 287.122 168.931 287.651 168.66C287.795 168.591 287.794 168.586 287.664 168.111C287.481 167.441 287.491 167.414 288.036 167.265C288.362 167.177 288.509 167.161 288.589 167.211Z" fill="#FEFEFC"/>
    <path d="M287.473 90.8924C288.648 95.1843 286.115 99.6143 281.817 100.787C277.518 101.96 273.08 99.4315 271.906 95.1396C270.731 90.8477 273.264 86.4177 277.562 85.2449C281.861 84.0721 286.299 86.6006 287.473 90.8924Z" fill="#2775CA"/>
    <path d="M287.473 90.8924C288.648 95.1843 286.115 99.6143 281.817 100.787C277.518 101.96 273.08 99.4315 271.906 95.1396C270.731 90.8477 273.264 86.4177 277.562 85.2449C281.861 84.0721 286.299 86.6006 287.473 90.8924ZM272.752 94.9088C273.799 98.7341 277.754 100.988 281.585 99.9424C285.417 98.8971 287.674 94.9486 286.627 91.1233C285.58 87.298 281.625 85.0443 277.794 86.0896C273.962 87.135 271.705 91.0834 272.752 94.9088Z" fill="#0C519D"/>
    <path d="M280.011 98.2499C280.026 98.505 279.832 98.7264 279.576 98.7213C278.45 98.6989 277.353 98.345 276.423 97.6989C275.367 96.9644 274.589 95.8952 274.217 94.6646C273.846 93.4341 273.901 92.1142 274.374 90.9187C274.79 89.8672 275.508 88.9662 276.433 88.3261C276.644 88.1805 276.929 88.2574 277.057 88.4786C277.185 88.6997 277.108 88.981 276.9 89.1299C276.155 89.6632 275.575 90.4013 275.236 91.2589C274.839 92.2604 274.793 93.3663 275.105 94.3973C275.417 95.4283 276.068 96.324 276.953 96.9394C277.711 97.4664 278.602 97.7613 279.519 97.7939C279.775 97.803 279.995 97.9948 280.011 98.2499Z" fill="#FEFEFC"/>
    <path d="M282.079 97.6855C282.196 97.9131 282.476 98.0049 282.694 97.8706C283.651 97.28 284.416 96.4179 284.887 95.3898C285.423 94.2209 285.547 92.9057 285.241 91.6573C284.934 90.4088 284.214 89.3003 283.198 88.5113C282.304 87.8172 281.227 87.4062 280.104 87.3247C279.849 87.3061 279.643 87.517 279.645 87.7726C279.647 88.0281 279.857 88.2312 280.112 88.2537C281.025 88.3344 281.9 88.6758 282.629 89.2419C283.481 89.9029 284.084 90.8317 284.34 91.8776C284.597 92.9236 284.493 94.0255 284.044 95.0048C283.66 95.8433 283.043 96.5499 282.27 97.0434C282.055 97.1811 281.963 97.458 282.079 97.6855Z" fill="#FEFEFC"/>
    <path d="M279.126 89.5857C279.188 89.6209 279.232 89.7177 279.313 90.0131C279.414 90.3815 279.421 90.3925 279.51 90.368C279.649 90.3303 280.14 90.4311 280.373 90.5459C280.612 90.6678 280.944 91.0166 280.996 91.2068C281.051 91.4092 280.981 91.4892 280.676 91.5725C280.529 91.6125 280.369 91.6344 280.323 91.6253C280.271 91.6133 280.158 91.5181 280.068 91.4122C279.869 91.1836 279.681 91.1176 279.327 91.1532C278.87 91.1951 278.46 91.4682 278.389 91.7701C278.374 91.8265 278.391 91.9696 278.424 92.0911C278.526 92.4634 278.77 92.5709 279.393 92.514C280.526 92.4139 280.87 92.4417 281.25 92.6641C281.715 92.9376 281.992 93.6797 281.843 94.2553C281.731 94.6773 281.319 95.1856 280.941 95.354L280.794 95.4246L280.892 95.7848C281.03 96.2867 281.022 96.3062 280.627 96.414C280.196 96.5317 280.174 96.5159 280.042 96.0343L279.94 95.6619L279.69 95.6778C278.994 95.7242 278.316 95.3395 278.088 94.7796C277.987 94.5202 278.025 94.4705 278.412 94.3649C278.795 94.2605 278.886 94.2747 278.971 94.4388C279.199 94.8724 279.597 94.9988 280.215 94.8299C280.452 94.7655 280.544 94.7186 280.697 94.5766C280.954 94.3458 281.015 94.155 280.93 93.8433C280.798 93.3617 280.533 93.273 279.539 93.3832C278.332 93.5125 277.792 93.2509 277.565 92.4212C277.464 92.0528 277.471 91.8073 277.599 91.5071C277.745 91.1586 278.062 90.8327 278.446 90.6366C278.551 90.5864 278.55 90.5824 278.455 90.2383C278.322 89.7526 278.33 89.7331 278.725 89.6253C278.961 89.5609 279.068 89.5493 279.126 89.5857Z" fill="#FEFEFC"/>
    <path d="M272.091 140.087C274.56 146.342 271.483 153.411 265.217 155.876C258.952 158.341 251.871 155.269 249.402 149.014C246.933 142.758 250.01 135.689 256.275 133.224C262.541 130.759 269.622 133.831 272.091 140.087Z" fill="#2775CA"/>
    <path d="M272.091 140.087C274.56 146.342 271.483 153.411 265.217 155.876C258.952 158.341 251.871 155.269 249.402 149.014C246.933 142.758 250.01 135.689 256.275 133.224C262.541 130.759 269.622 133.831 272.091 140.087ZM250.635 148.528C252.836 154.104 259.147 156.842 264.731 154.645C270.315 152.448 273.058 146.147 270.858 140.572C268.657 134.997 262.346 132.258 256.761 134.455C251.177 136.653 248.434 142.953 250.635 148.528Z" fill="#0C519D"/>
    <path d="M262.088 152.36C262.153 152.74 261.897 153.105 261.512 153.139C259.817 153.29 258.111 152.938 256.608 152.119C254.901 151.189 253.558 149.71 252.797 147.922C252.036 146.134 251.902 144.142 252.417 142.269C252.869 140.621 253.801 139.15 255.085 138.037C255.377 137.784 255.818 137.853 256.047 138.165C256.276 138.476 256.206 138.911 255.918 139.169C254.886 140.092 254.137 141.295 253.768 142.639C253.336 144.208 253.449 145.877 254.086 147.375C254.723 148.873 255.849 150.112 257.279 150.892C258.505 151.559 259.892 151.856 261.274 151.755C261.66 151.727 262.022 151.979 262.088 152.36Z" fill="#FEFEFC"/>
    <path d="M265.102 151.174C265.315 151.497 265.751 151.589 266.056 151.351C267.398 150.307 268.405 148.887 268.944 147.266C269.557 145.422 269.528 143.426 268.863 141.601C268.197 139.775 266.934 138.228 265.278 137.209C263.821 136.313 262.135 135.871 260.435 135.933C260.048 135.947 259.773 136.297 259.818 136.681C259.864 137.064 260.212 137.335 260.599 137.327C261.984 137.299 263.354 137.669 264.543 138.4C265.93 139.253 266.989 140.55 267.546 142.079C268.104 143.608 268.128 145.281 267.615 146.825C267.175 148.148 266.364 149.31 265.284 150.178C264.983 150.42 264.89 150.851 265.102 151.174Z" fill="#FEFEFC"/>
    <path d="M259.336 139.489C259.435 139.532 259.517 139.67 259.687 140.101C259.899 140.638 259.912 140.653 260.043 140.602C260.245 140.522 260.999 140.593 261.368 140.728C261.747 140.872 262.302 141.341 262.412 141.618C262.528 141.913 262.436 142.045 261.991 142.22C261.778 142.304 261.54 142.363 261.469 142.357C261.39 142.348 261.204 142.223 261.051 142.079C260.716 141.768 260.421 141.7 259.896 141.811C259.217 141.949 258.645 142.426 258.588 142.891C258.575 142.978 258.624 143.191 258.694 143.368C258.908 143.91 259.292 144.032 260.219 143.844C261.903 143.509 262.426 143.494 263.033 143.766C263.776 144.101 264.314 145.17 264.185 146.059C264.086 146.712 263.551 147.543 263.01 147.858L262.801 147.988L263.008 148.513C263.297 149.244 263.288 149.275 262.713 149.501C262.084 149.749 262.048 149.728 261.771 149.026L261.557 148.484L261.185 148.548C260.147 148.732 259.064 148.265 258.63 147.461C258.435 147.088 258.485 147.007 259.049 146.785C259.607 146.566 259.746 146.572 259.9 146.805C260.314 147.419 260.932 147.544 261.834 147.189C262.178 147.053 262.309 146.968 262.517 146.729C262.864 146.341 262.925 146.044 262.746 145.59C262.468 144.888 262.056 144.798 260.581 145.126C258.789 145.518 257.935 145.213 257.457 144.004C257.246 143.467 257.216 143.097 257.359 142.625C257.52 142.078 257.944 141.536 258.488 141.179C258.637 141.087 258.634 141.081 258.437 140.579C258.157 139.871 258.166 139.841 258.741 139.614C259.085 139.479 259.243 139.444 259.336 139.489Z" fill="#FEFEFC"/>
    <path d="M267.139 65.1835C265.486 72.4379 258.255 76.9808 250.989 75.3303C243.723 73.6797 239.172 66.4609 240.826 59.2064C242.479 51.952 249.71 47.4091 256.976 49.0596C264.242 50.7101 268.793 57.929 267.139 65.1835Z" fill="#2775CA"/>
    <path d="M267.139 65.1835C265.486 72.4379 258.255 76.9808 250.989 75.3303C243.723 73.6797 239.172 66.4609 240.826 59.2064C242.479 51.952 249.71 47.4091 256.976 49.0596C264.242 50.7101 268.793 57.929 267.139 65.1835ZM242.256 59.5313C240.782 65.9971 244.838 72.4313 251.314 73.9024C257.791 75.3735 264.236 71.3245 265.709 64.8586C267.183 58.3928 263.127 51.9586 256.651 50.4875C250.174 49.0164 243.729 53.0654 242.256 59.5313Z" fill="#0C519D"/>
    <path d="M250.327 70.1675C250.149 70.5561 249.687 70.7296 249.314 70.5209C247.671 69.6029 246.331 68.2178 245.47 66.5339C244.491 64.6196 244.188 62.4314 244.61 60.3238C245.033 58.2161 246.155 56.3125 247.796 54.9213C249.24 53.6976 251.01 52.9335 252.88 52.7167C253.305 52.6674 253.665 53.0049 253.679 53.432C253.694 53.859 253.358 54.2134 252.934 54.2693C251.414 54.4698 249.977 55.103 248.8 56.101C247.425 57.2665 246.484 58.8614 246.13 60.6272C245.777 62.3931 246.031 64.2264 246.851 65.8302C247.553 67.2035 248.635 68.3396 249.962 69.1084C250.332 69.323 250.505 69.779 250.327 70.1675Z" fill="#FEFEFC"/>
    <path d="M253.823 70.9617C253.816 71.389 254.157 71.7449 254.584 71.718C256.462 71.5998 258.271 70.9297 259.777 69.7836C261.489 68.4805 262.71 66.6386 263.243 64.556C263.776 62.4735 263.588 60.2724 262.712 58.3093C261.941 56.5826 260.676 55.1289 259.084 54.1259C258.722 53.8978 258.252 54.0469 258.053 54.4255C257.855 54.8042 258.004 55.2686 258.362 55.5024C259.646 56.3398 260.667 57.5312 261.296 58.9395C262.031 60.5842 262.187 62.4283 261.741 64.1731C261.295 65.9179 260.271 67.4612 258.837 68.5528C257.609 69.4876 256.141 70.0444 254.612 70.1647C254.185 70.1983 253.831 70.5345 253.823 70.9617Z" fill="#FEFEFC"/>
    <path d="M255.857 56.6917C255.921 56.7926 255.91 56.9699 255.796 57.4693C255.654 58.0918 255.656 58.1139 255.808 58.1483C256.042 58.2015 256.687 58.7366 256.94 59.089C257.196 59.4567 257.41 60.2321 257.337 60.5536C257.259 60.8957 257.093 60.9586 256.576 60.8414C256.329 60.7851 256.075 60.6915 256.014 60.6416C255.948 60.5834 255.855 60.3537 255.806 60.1266C255.694 59.6335 255.467 59.3878 254.918 59.1623C254.211 58.865 253.389 58.9446 253.047 59.3346C252.98 59.4057 252.893 59.6305 252.846 59.8357C252.703 60.4651 252.978 60.8154 253.942 61.2215C255.691 61.9642 256.177 62.2761 256.563 62.9033C257.032 63.6719 256.856 64.9846 256.182 65.7167C255.684 66.2511 254.675 66.6767 253.984 66.6276L253.711 66.6161L253.573 67.225C253.379 68.0733 253.352 68.096 252.685 67.9444C251.955 67.7786 251.936 67.7382 252.121 66.9241L252.265 66.2947L251.884 66.1219C250.821 65.6429 250.123 64.5419 250.229 63.537C250.284 63.0745 250.38 63.0317 251.034 63.1802C251.681 63.3272 251.805 63.42 251.8 63.7283C251.794 64.5473 252.281 65.0464 253.327 65.2841C253.726 65.3747 253.899 65.378 254.238 65.2895C254.798 65.1505 255.04 64.9175 255.16 64.3907C255.345 63.5766 255.024 63.2375 253.471 62.6185C251.589 61.8598 250.999 61.0495 251.318 59.647C251.46 59.0245 251.665 58.6679 252.09 58.3256C252.579 57.9259 253.305 57.695 254.026 57.7077C254.22 57.7157 254.221 57.7088 254.354 57.1273C254.541 56.3064 254.568 56.2837 255.235 56.4353C255.634 56.526 255.8 56.5924 255.857 56.6917Z" fill="#FEFEFC"/>
    <path d="M219.689 69.3216C223.154 81.5101 216.066 94.195 203.857 97.6541C191.649 101.113 178.943 94.0367 175.478 81.8482C172.013 69.6596 179.101 56.9747 191.31 53.5156C203.518 50.0565 216.224 57.1331 219.689 69.3216Z" fill="#2775CA"/>
    <path d="M219.689 69.3216C223.154 81.5101 216.066 94.195 203.857 97.6541C191.649 101.113 178.943 94.0367 175.478 81.8482C172.013 69.6596 179.101 56.9747 191.31 53.5156C203.518 50.0565 216.224 57.1331 219.689 69.3216ZM177.881 81.1673C180.969 92.0309 192.294 98.3382 203.175 95.2551C214.057 92.172 220.374 80.866 217.286 70.0024C214.198 59.1388 202.873 52.8315 191.992 55.9146C181.111 58.9977 174.793 70.3037 177.881 81.1673Z" fill="#0C519D"/>
    <path d="M198.644 90.4794C198.695 91.2053 198.147 91.8411 197.418 91.8338C194.213 91.8014 191.078 90.8241 188.413 89.0102C185.384 86.9479 183.141 83.9251 182.048 80.4314C180.954 76.9377 181.074 73.1777 182.389 69.7605C183.544 66.7548 185.565 64.1692 188.181 62.3206C188.776 61.9002 189.589 62.1114 189.961 62.7376C190.332 63.3637 190.121 64.167 189.532 64.5966C187.424 66.136 185.796 68.2538 184.853 70.7051C183.752 73.5681 183.651 76.7183 184.567 79.6454C185.484 82.5725 187.363 85.1051 189.901 86.8329C192.074 88.3122 194.62 89.1274 197.231 89.1947C197.96 89.2135 198.592 89.7534 198.644 90.4794Z" fill="#FEFEFC"/>
    <path d="M204.518 88.8149C204.856 89.4597 205.657 89.7133 206.273 89.3248C208.984 87.6163 211.138 85.1404 212.45 82.1996C213.943 78.8563 214.261 75.1078 213.353 71.5615C212.445 68.0151 210.365 64.8786 207.449 62.6601C204.884 60.7086 201.804 59.5679 198.605 59.3671C197.878 59.3215 197.297 59.9277 197.31 60.6553C197.323 61.3829 197.926 61.9553 198.653 62.0124C201.257 62.2168 203.757 63.1647 205.849 64.7562C208.292 66.6149 210.035 69.2428 210.796 72.214C211.556 75.1852 211.29 78.3257 210.039 81.1268C208.969 83.5252 207.23 85.5545 205.044 86.981C204.434 87.3791 204.18 88.1701 204.518 88.8149Z" fill="#FEFEFC"/>
    <path d="M195.882 65.8326C196.06 65.9312 196.188 66.2055 196.427 67.0445C196.724 68.0905 196.746 68.1217 197 68.0497C197.393 67.9383 198.795 68.2117 199.461 68.5322C200.145 68.8725 201.1 69.8565 201.253 70.3968C201.417 70.9715 201.22 71.2012 200.352 71.4469C199.936 71.5649 199.48 71.6319 199.348 71.6072C199.201 71.5743 198.875 71.3064 198.616 71.0075C198.045 70.3619 197.505 70.1794 196.5 70.2904C195.201 70.4225 194.038 71.2115 193.846 72.0733C193.804 72.2342 193.857 72.6414 193.955 72.9862C194.256 74.0437 194.953 74.3429 196.726 74.1634C199.947 73.8469 200.929 73.9165 202.019 74.5394C203.348 75.3053 204.159 77.4105 203.752 79.0537C203.444 80.2586 202.285 81.7174 201.212 82.2076L200.796 82.4126L201.086 83.4356C201.492 84.8609 201.47 84.9167 200.348 85.2345C199.123 85.5818 199.06 85.5374 198.671 84.1696L198.371 83.1121L197.661 83.1642C195.68 83.3156 193.737 82.2391 193.073 80.6511C192.776 79.9154 192.886 79.7726 193.984 79.4613C195.071 79.1534 195.332 79.1913 195.576 79.6561C196.238 80.8845 197.374 81.2333 199.132 80.7353C199.802 80.5452 200.064 80.4091 200.497 80.0006C201.22 79.3362 201.39 78.7912 201.139 77.9061C200.75 76.5383 199.993 76.2932 197.166 76.6346C193.732 77.0363 192.188 76.3064 191.518 73.95C191.22 72.9041 191.234 72.2047 191.59 71.3463C191.994 70.3499 192.889 69.4131 193.977 68.844C194.273 68.6981 194.27 68.6866 193.992 67.7096C193.6 66.3303 193.622 66.2745 194.743 65.9566C195.414 65.7666 195.716 65.7307 195.882 65.8326Z" fill="#FEFEFC"/>
    <path d="M260.712 109.276C258.823 118.881 249.492 125.139 239.871 123.253C230.249 121.367 223.981 112.051 225.87 102.446C227.759 92.8404 237.09 86.5825 246.711 88.4684C256.333 90.3544 262.601 99.67 260.712 109.276Z" fill="#2775CA"/>
    <path d="M260.712 109.276C258.823 118.881 249.492 125.139 239.871 123.253C230.249 121.367 223.981 112.051 225.87 102.446C227.759 92.8404 237.09 86.5825 246.711 88.4684C256.333 90.3544 262.601 99.67 260.712 109.276ZM227.764 102.817C226.08 111.379 231.667 119.682 240.242 121.362C248.818 123.043 257.134 117.466 258.818 108.904C260.502 100.343 254.915 92.04 246.34 90.359C237.764 88.6781 229.448 94.2558 227.764 102.817Z" fill="#0C519D"/>
    <path d="M238.797 116.489C238.578 117.007 237.977 117.254 237.478 116.994C235.282 115.851 233.465 114.082 232.267 111.901C230.904 109.421 230.419 106.556 230.892 103.767C231.364 100.979 232.766 98.4312 234.869 96.5372C236.72 94.8713 239.018 93.7969 241.468 93.4385C242.025 93.3571 242.511 93.7868 242.548 94.3479C242.584 94.909 242.156 95.3882 241.6 95.4784C239.609 95.8016 237.744 96.6906 236.235 98.0493C234.473 99.6361 233.298 101.77 232.903 104.107C232.507 106.443 232.913 108.844 234.054 110.921C235.032 112.7 236.5 114.151 238.275 115.111C238.77 115.378 239.016 115.971 238.797 116.489Z" fill="#FEFEFC"/>
    <path d="M243.426 117.397C243.433 117.959 243.896 118.414 244.456 118.362C246.922 118.132 249.274 117.18 251.21 115.614C253.41 113.833 254.944 111.363 255.563 108.603C256.181 105.843 255.849 102.956 254.619 100.408C253.537 98.1677 251.816 96.3055 249.683 95.0488C249.198 94.763 248.585 94.9774 248.339 95.4832C248.093 95.989 248.308 96.594 248.788 96.8873C250.51 97.9384 251.899 99.4653 252.782 101.293C253.812 103.427 254.091 105.846 253.572 108.158C253.054 110.47 251.769 112.54 249.925 114.032C248.347 115.31 246.438 116.099 244.432 116.318C243.872 116.378 243.42 116.834 243.426 117.397Z" fill="#FEFEFC"/>
    <path d="M245.54 98.5497C245.628 98.6798 245.62 98.9134 245.49 99.5747C245.328 100.399 245.332 100.428 245.532 100.467C245.842 100.528 246.712 101.207 247.058 101.66C247.41 102.134 247.722 103.145 247.638 103.571C247.549 104.024 247.333 104.113 246.649 103.979C246.321 103.915 245.984 103.801 245.902 103.738C245.812 103.664 245.681 103.366 245.607 103.069C245.441 102.425 245.133 102.111 244.402 101.836C243.461 101.472 242.383 101.609 241.948 102.136C241.863 102.232 241.757 102.531 241.704 102.803C241.54 103.636 241.915 104.086 243.199 104.582C245.529 105.49 246.18 105.881 246.712 106.691C247.359 107.684 247.179 109.417 246.322 110.406C245.688 111.129 244.378 111.728 243.467 111.69L243.108 111.686L242.95 112.492C242.729 113.615 242.694 113.646 241.81 113.473C240.844 113.284 240.817 113.231 241.029 112.153L241.193 111.32L240.686 111.108C239.268 110.519 238.308 109.099 238.407 107.773C238.461 107.162 238.587 107.102 239.452 107.272C240.309 107.44 240.475 107.557 240.481 107.963C240.505 109.04 241.166 109.678 242.551 109.949C243.079 110.053 243.307 110.05 243.749 109.921C244.48 109.716 244.788 109.4 244.925 108.702C245.137 107.624 244.702 107.191 242.636 106.438C240.129 105.514 239.322 104.471 239.687 102.614C239.849 101.79 240.104 101.313 240.65 100.846C241.278 100.301 242.223 99.9692 243.172 99.9576C243.427 99.9605 243.428 99.9514 243.58 99.1815C243.794 98.0944 243.828 98.0636 244.712 98.2368C245.241 98.3404 245.461 98.4213 245.54 98.5497Z" fill="#FEFEFC"/>
    <path d="M146.031 225.185C146.541 225.185 147.376 224.953 148.55 223.817C149.729 222.676 151.009 220.842 152.316 218.226C154.924 213.009 157.35 205.279 159.417 195.503C163.541 175.996 166.113 148.923 166.113 118.933C166.113 88.9421 163.541 61.8689 159.417 42.3624C157.35 32.586 154.924 24.8568 152.316 19.6396C151.009 17.0238 149.729 15.1898 148.55 14.0486C147.376 12.9121 146.541 12.68 146.031 12.68V9.86537C158.765 9.86536 169.088 58.6965 169.088 118.933C169.088 179.169 158.765 228 146.031 228V225.185Z" fill="#696969"/>
</svg>
