<svg width="295" height="247" viewBox="0 0 295 247" fill="none" xmlns="http://www.w3.org/2000/svg">
    <path d="M7.5 227C7.5 216.23 16.2304 207.5 27 207.5H275C285.77 207.5 294.5 216.23 294.5 227C294.5 237.77 285.77 246.5 275 246.5H27C16.2304 246.5 7.5 237.77 7.5 227Z" fill="#FF847E"/>
    <path d="M142.38 229.204C142.38 229.919 142.204 230.538 141.852 231.06C141.51 231.583 141.03 231.983 140.412 232.26C139.804 232.538 139.1 232.676 138.3 232.676C137.18 232.676 136.204 232.415 135.372 231.892C134.54 231.359 133.99 230.65 133.724 229.764L135.116 228.964C135.393 229.647 135.804 230.175 136.348 230.548C136.892 230.922 137.558 231.108 138.348 231.108C139.052 231.108 139.596 230.959 139.98 230.66C140.374 230.351 140.572 229.924 140.572 229.38C140.572 228.943 140.444 228.586 140.188 228.308C139.942 228.02 139.633 227.802 139.26 227.652C138.886 227.492 138.38 227.316 137.74 227.124C136.961 226.89 136.342 226.671 135.884 226.468C135.425 226.255 135.03 225.946 134.7 225.54C134.38 225.124 134.22 224.58 134.22 223.908C134.22 223.204 134.401 222.602 134.764 222.1C135.126 221.599 135.612 221.226 136.22 220.98C136.838 220.724 137.526 220.596 138.284 220.596C139.329 220.596 140.188 220.826 140.86 221.284C141.532 221.743 141.98 222.34 142.204 223.076L140.812 223.892C140.332 222.73 139.468 222.148 138.22 222.148C137.558 222.148 137.025 222.298 136.62 222.596C136.225 222.884 136.028 223.279 136.028 223.78C136.028 224.154 136.14 224.458 136.364 224.692C136.598 224.927 136.886 225.119 137.228 225.268C137.58 225.407 138.054 225.562 138.652 225.732C139.441 225.967 140.081 226.196 140.572 226.42C141.073 226.644 141.5 226.98 141.852 227.428C142.204 227.876 142.38 228.468 142.38 229.204Z" fill="white"/>
    <path d="M148.861 232.164C148.392 232.506 147.768 232.676 146.989 232.676C146.2 232.676 145.555 232.458 145.053 232.02C144.563 231.583 144.317 230.804 144.317 229.684V225.604H142.909V224.196H144.317V221.796H145.949V224.196H148.397V225.604H145.949V229.46C145.949 230.612 146.376 231.188 147.229 231.188C147.613 231.188 147.971 231.087 148.301 230.884L148.861 232.164Z" fill="white"/>
    <path d="M149.5 228.34C149.5 227.498 149.687 226.746 150.06 226.084C150.433 225.423 150.929 224.911 151.548 224.548C152.177 224.186 152.855 224.004 153.58 224.004C154.295 224.004 154.961 224.186 155.58 224.548C156.199 224.911 156.695 225.423 157.068 226.084C157.441 226.746 157.628 227.498 157.628 228.34C157.628 229.183 157.441 229.935 157.068 230.596C156.695 231.258 156.199 231.77 155.58 232.132C154.961 232.495 154.295 232.676 153.58 232.676C152.855 232.676 152.177 232.495 151.548 232.132C150.929 231.77 150.433 231.258 150.06 230.596C149.687 229.935 149.5 229.183 149.5 228.34ZM151.228 228.34C151.228 229.215 151.447 229.908 151.884 230.42C152.332 230.932 152.892 231.188 153.564 231.188C154.247 231.188 154.807 230.932 155.244 230.42C155.681 229.908 155.9 229.215 155.9 228.34C155.9 227.466 155.676 226.772 155.228 226.26C154.791 225.748 154.236 225.492 153.564 225.492C152.892 225.492 152.332 225.748 151.884 226.26C151.447 226.772 151.228 227.466 151.228 228.34Z" fill="white"/>
    <path d="M163.784 224.004C164.424 224.004 165.021 224.18 165.576 224.532C166.141 224.874 166.595 225.375 166.936 226.036C167.277 226.687 167.448 227.455 167.448 228.34C167.448 229.236 167.277 230.015 166.936 230.676C166.595 231.327 166.141 231.823 165.576 232.164C165.021 232.506 164.424 232.676 163.784 232.676C163.251 232.676 162.749 232.559 162.28 232.324C161.811 232.09 161.427 231.738 161.128 231.268V236.212H159.48V224.196H160.936C160.957 224.73 160.989 225.183 161.032 225.556C161.331 225.044 161.72 224.66 162.2 224.404C162.691 224.138 163.219 224.004 163.784 224.004ZM163.496 231.172C164.179 231.172 164.723 230.927 165.128 230.436C165.533 229.935 165.736 229.236 165.736 228.34C165.736 227.455 165.528 226.762 165.112 226.26C164.707 225.748 164.168 225.492 163.496 225.492C162.845 225.492 162.285 225.727 161.816 226.196C161.357 226.666 161.128 227.38 161.128 228.34C161.128 229.311 161.357 230.026 161.816 230.484C162.285 230.943 162.845 231.172 163.496 231.172Z" fill="white"/>
    <path d="M9.01064 34.5426C9.01064 22.7918 18.5365 13.266 30.2872 13.266H161.138C172.889 13.266 182.415 22.7918 182.415 34.5426V72.8404C182.415 84.5912 172.889 94.117 161.138 94.117H30.2872C18.5365 94.117 9.01064 84.5912 9.01064 72.8404V34.5426Z" fill="#292929"/>
    <path d="M29.2335 27.873C29.7308 27.3753 30.4054 27.0957 31.1087 27.0957H43.2525C43.9558 27.0957 44.6303 27.3753 45.1277 27.873L45.3439 28.0893C46.3795 29.1256 46.3795 30.8057 45.3439 31.842L45.1277 32.0583C44.6303 32.556 43.9558 32.8355 43.2525 32.8355H31.1087C30.4054 32.8355 29.7308 32.556 29.2335 32.0583L29.0173 31.842C27.9816 30.8057 27.9816 29.1256 29.0173 28.0893L29.2335 27.873Z" fill="#56AAC8"/>
    <path d="M29.2335 51.6275C29.7308 51.1299 30.4053 50.8503 31.1087 50.8503H43.2524C43.9558 50.8503 44.6303 51.1299 45.1277 51.6275L45.3438 51.8438C46.3795 52.8801 46.3795 54.5603 45.3438 55.5966L45.1277 55.8129C44.6303 56.3105 43.9558 56.5901 43.2524 56.5901H31.1087C30.4053 56.5901 29.7308 56.3105 29.2335 55.8129L29.0173 55.5966C27.9816 54.5603 27.9816 52.8801 29.0173 51.8438L29.2335 51.6275Z" fill="#383838"/>
    <path d="M23.6172 49.3971C23.1198 48.8994 22.8404 48.2245 22.8404 47.5207V35.3695C22.8404 34.6657 23.1198 33.9908 23.6172 33.4931L23.8334 33.2768C24.869 32.2405 26.5481 32.2405 27.5838 33.2768L27.8 33.4931C28.2973 33.9908 28.5767 34.6657 28.5767 35.3695V47.5207C28.5767 48.2245 28.2973 48.8994 27.8 49.3971L27.5838 49.6134C26.5481 50.6497 24.869 50.6497 23.8334 49.6134L23.6172 49.3971Z" fill="#56AAC8"/>
    <path d="M46.5628 49.3971C46.0655 48.8994 45.7861 48.2245 45.7861 47.5207V35.3695C45.7861 34.6657 46.0655 33.9908 46.5628 33.4931L46.779 33.2768C47.8146 32.2405 49.4938 32.2405 50.5294 33.2768L50.7456 33.4931C51.2429 33.9908 51.5223 34.6657 51.5223 35.3695V47.5207C51.5223 48.2245 51.2429 48.8994 50.7456 49.3971L50.5294 49.6134C49.4938 50.6497 47.8146 50.6497 46.779 49.6134L46.5628 49.3971Z" fill="#56AAC8"/>
    <path d="M29.2335 79.51C29.7308 80.0077 30.4053 80.2872 31.1087 80.2872H43.2524C43.9558 80.2872 44.6303 80.0077 45.1277 79.51L45.3438 79.2937C46.3795 78.2574 46.3795 76.5773 45.3438 75.541L45.1277 75.3247C44.6303 74.827 43.9558 74.5474 43.2524 74.5474H31.1087C30.4053 74.5474 29.7308 74.827 29.2335 75.3247L29.0173 75.541C27.9816 76.5773 27.9816 78.2574 29.0173 79.2937L29.2335 79.51Z" fill="#56AAC8"/>
    <path d="M23.6172 57.9874C23.1198 58.4851 22.8404 59.16 22.8404 59.8638V72.015C22.8404 72.7187 23.1198 73.3937 23.6172 73.8913L23.8334 74.1076C24.869 75.1439 26.5481 75.1439 27.5838 74.1076L27.8 73.8913C28.2973 73.3937 28.5767 72.7187 28.5767 72.015V59.8638C28.5767 59.16 28.2973 58.4851 27.8 57.9874L27.5838 57.7711C26.5481 56.7348 24.869 56.7348 23.8334 57.7711L23.6172 57.9874Z" fill="#56AAC8"/>
    <path d="M46.5628 57.9874C46.0655 58.4851 45.7861 59.16 45.7861 59.8638V72.015C45.7861 72.7187 46.0655 73.3937 46.5628 73.8913L46.779 74.1076C47.8146 75.1439 49.4938 75.1439 50.5294 74.1076L50.7456 73.8913C51.2429 73.3937 51.5223 72.7187 51.5223 72.015V59.8638C51.5223 59.16 51.2429 58.4851 50.7456 57.9874L50.5294 57.7711C49.4938 56.7348 47.8146 56.7348 46.779 57.7711L46.5628 57.9874Z" fill="#56AAC8"/>
    <path d="M63.8899 27.873C64.3872 27.3753 65.0617 27.0957 65.7651 27.0957H77.9088C78.6122 27.0957 79.2867 27.3753 79.784 27.873L80.0002 28.0893C81.0359 29.1256 81.0359 30.8057 80.0002 31.842L79.784 32.0583C79.2867 32.556 78.6122 32.8355 77.9088 32.8355H65.7651C65.0617 32.8355 64.3872 32.556 63.8899 32.0583L63.6737 31.842C62.638 30.8057 62.638 29.1256 63.6737 28.0893L63.8899 27.873Z" fill="#56AAC8"/>
    <path d="M63.8898 51.6275C64.3872 51.1299 65.0617 50.8503 65.7651 50.8503H77.9088C78.6122 50.8503 79.2867 51.1299 79.784 51.6275L80.0002 51.8438C81.0359 52.8801 81.0359 54.5603 80.0002 55.5966L79.784 55.8129C79.2867 56.3105 78.6122 56.5901 77.9088 56.5901H65.7651C65.0617 56.5901 64.3872 56.3105 63.8898 55.8129L63.6737 55.5966C62.638 54.5603 62.638 52.8801 63.6737 51.8438L63.8898 51.6275Z" fill="#383838"/>
    <path d="M58.2735 49.3971C57.7762 48.8994 57.4968 48.2245 57.4968 47.5207V35.3695C57.4968 34.6657 57.7762 33.9908 58.2735 33.4931L58.4897 33.2768C59.5254 32.2405 61.2045 32.2405 62.2402 33.2768L62.4563 33.4931C62.9537 33.9908 63.2331 34.6657 63.2331 35.3695V47.5207C63.2331 48.2245 62.9537 48.8994 62.4563 49.3971L62.2402 49.6134C61.2045 50.6497 59.5254 50.6497 58.4897 49.6134L58.2735 49.3971Z" fill="#56AAC8"/>
    <path d="M81.2192 49.3971C80.7218 48.8994 80.4424 48.2245 80.4424 47.5207V35.3695C80.4424 34.6657 80.7218 33.9908 81.2192 33.4931L81.4353 33.2768C82.471 32.2405 84.1501 32.2405 85.1858 33.2768L85.402 33.4931C85.8993 33.9908 86.1787 34.6657 86.1787 35.3695V47.5207C86.1787 48.2245 85.8993 48.8994 85.402 49.3971L85.1858 49.6134C84.1501 50.6497 82.471 50.6497 81.4353 49.6134L81.2192 49.3971Z" fill="#56AAC8"/>
    <path d="M63.8898 79.51C64.3872 80.0077 65.0617 80.2872 65.7651 80.2872H77.9088C78.6122 80.2872 79.2867 80.0077 79.784 79.51L80.0002 79.2937C81.0359 78.2574 81.0359 76.5773 80.0002 75.541L79.784 75.3247C79.2867 74.827 78.6122 74.5474 77.9088 74.5474H65.7651C65.0617 74.5474 64.3872 74.827 63.8898 75.3247L63.6737 75.541C62.638 76.5773 62.638 78.2574 63.6737 79.2937L63.8898 79.51Z" fill="#56AAC8"/>
    <path d="M58.2735 57.9874C57.7762 58.4851 57.4968 59.16 57.4968 59.8638V72.015C57.4968 72.7187 57.7762 73.3937 58.2735 73.8913L58.4897 74.1076C59.5254 75.1439 61.2045 75.1439 62.2402 74.1076L62.4563 73.8913C62.9537 73.3937 63.2331 72.7187 63.2331 72.015V59.8638C63.2331 59.16 62.9537 58.4851 62.4563 57.9874L62.2402 57.7711C61.2045 56.7348 59.5254 56.7348 58.4897 57.7711L58.2735 57.9874Z" fill="#56AAC8"/>
    <path d="M81.2192 57.9874C80.7218 58.4851 80.4424 59.16 80.4424 59.8638V72.015C80.4424 72.7187 80.7218 73.3937 81.2192 73.8913L81.4353 74.1076C82.471 75.1439 84.1501 75.1439 85.1858 74.1076L85.402 73.8913C85.8993 73.3937 86.1787 72.7187 86.1787 72.015V59.8638C86.1787 59.16 85.8993 58.4851 85.402 57.9874L85.1858 57.7711C84.1501 56.7348 82.471 56.7348 81.4353 57.7711L81.2192 57.9874Z" fill="#56AAC8"/>
    <path d="M93.731 49.485C92.6953 48.4487 92.6953 46.7686 93.731 45.7323L94.0367 45.4264C95.0724 44.3901 96.7515 44.3901 97.7871 45.4264L98.0929 45.7323C99.1285 46.7686 99.1285 48.4487 98.0929 49.485L97.7871 49.7909C96.7515 50.8272 95.0724 50.8272 94.0367 49.7909L93.731 49.485Z" fill="#56AAC8"/>
    <path d="M93.731 61.9071C92.6953 60.8708 92.6953 59.1907 93.731 58.1544L94.0367 57.8485C95.0724 56.8122 96.7515 56.8122 97.7871 57.8485L98.0929 58.1544C99.1285 59.1907 99.1285 60.8708 98.0929 61.9071L97.7871 62.2131C96.7515 63.2493 95.0724 63.2493 94.0367 62.2131L93.731 61.9071Z" fill="#56AAC8"/>
    <path d="M111.64 27.873C112.137 27.3753 112.812 27.0957 113.515 27.0957H125.659C126.362 27.0957 127.037 27.3753 127.534 27.873L127.75 28.0893C128.786 29.1256 128.786 30.8057 127.75 31.842L127.534 32.0583C127.037 32.556 126.362 32.8355 125.659 32.8355H113.515C112.812 32.8355 112.137 32.556 111.64 32.0583L111.424 31.842C110.388 30.8057 110.388 29.1256 111.424 28.0893L111.64 27.873Z" fill="#56AAC8"/>
    <path d="M111.64 51.6275C112.137 51.1299 112.812 50.8503 113.515 50.8503H125.659C126.362 50.8503 127.037 51.1299 127.534 51.6275L127.75 51.8438C128.786 52.8801 128.786 54.5603 127.75 55.5966L127.534 55.8129C127.037 56.3105 126.362 56.5901 125.659 56.5901H113.515C112.812 56.5901 112.137 56.3105 111.64 55.8129L111.424 55.5966C110.388 54.5603 110.388 52.8801 111.424 51.8438L111.64 51.6275Z" fill="#383838"/>
    <path d="M106.024 49.3971C105.526 48.8994 105.247 48.2245 105.247 47.5207V35.3695C105.247 34.6657 105.526 33.9908 106.024 33.4931L106.24 33.2768C107.275 32.2405 108.955 32.2405 109.99 33.2768L110.206 33.4931C110.704 33.9908 110.983 34.6657 110.983 35.3695V47.5207C110.983 48.2245 110.704 48.8994 110.206 49.3971L109.99 49.6134C108.955 50.6497 107.275 50.6497 106.24 49.6134L106.024 49.3971Z" fill="#56AAC8"/>
    <path d="M128.969 49.3971C128.472 48.8994 128.192 48.2245 128.192 47.5207V35.3695C128.192 34.6657 128.472 33.9908 128.969 33.4931L129.185 33.2768C130.221 32.2405 131.9 32.2405 132.936 33.2768L133.152 33.4931C133.649 33.9908 133.929 34.6657 133.929 35.3695V47.5207C133.929 48.2245 133.649 48.8994 133.152 49.3971L132.936 49.6134C131.9 50.6497 130.221 50.6497 129.185 49.6134L128.969 49.3971Z" fill="#56AAC8"/>
    <path d="M111.64 79.51C112.137 80.0077 112.812 80.2872 113.515 80.2872H125.659C126.362 80.2872 127.037 80.0077 127.534 79.51L127.75 79.2937C128.786 78.2574 128.786 76.5773 127.75 75.541L127.534 75.3247C127.037 74.827 126.362 74.5474 125.659 74.5474H113.515C112.812 74.5474 112.137 74.827 111.64 75.3247L111.424 75.541C110.388 76.5773 110.388 78.2574 111.424 79.2937L111.64 79.51Z" fill="#56AAC8"/>
    <path d="M106.024 57.9874C105.526 58.4851 105.247 59.16 105.247 59.8638V72.015C105.247 72.7187 105.526 73.3937 106.024 73.8913L106.24 74.1076C107.275 75.1439 108.955 75.1439 109.99 74.1076L110.206 73.8913C110.704 73.3937 110.983 72.7187 110.983 72.015V59.8638C110.983 59.16 110.704 58.4851 110.206 57.9874L109.99 57.7711C108.955 56.7348 107.275 56.7348 106.24 57.7711L106.024 57.9874Z" fill="#56AAC8"/>
    <path d="M128.969 57.9874C128.472 58.4851 128.192 59.16 128.192 59.8638V72.015C128.192 72.7187 128.472 73.3937 128.969 73.8913L129.185 74.1076C130.221 75.1439 131.9 75.1439 132.936 74.1076L133.152 73.8913C133.649 73.3937 133.929 72.7187 133.929 72.015V59.8638C133.929 59.16 133.649 58.4851 133.152 57.9874L132.936 57.7711C131.9 56.7348 130.221 56.7348 129.185 57.7711L128.969 57.9874Z" fill="#56AAC8"/>
    <path d="M146.296 27.873C146.794 27.3753 147.468 27.0957 148.171 27.0957H160.315C161.019 27.0957 161.693 27.3753 162.19 27.873L162.407 28.0893C163.442 29.1256 163.442 30.8057 162.407 31.842L162.19 32.0583C161.693 32.556 161.019 32.8355 160.315 32.8355H148.171C147.468 32.8355 146.794 32.556 146.296 32.0583L146.08 31.842C145.044 30.8057 145.044 29.1256 146.08 28.0893L146.296 27.873Z" fill="#56AAC8"/>
    <path d="M146.296 51.6275C146.794 51.1299 147.468 50.8503 148.171 50.8503H160.315C161.019 50.8503 161.693 51.1299 162.19 51.6275L162.407 51.8438C163.442 52.8801 163.442 54.5603 162.407 55.5966L162.19 55.8129C161.693 56.3105 161.019 56.5901 160.315 56.5901H148.171C147.468 56.5901 146.794 56.3105 146.296 55.8129L146.08 55.5966C145.044 54.5603 145.044 52.8801 146.08 51.8438L146.296 51.6275Z" fill="#383838"/>
    <path d="M140.68 49.3971C140.183 48.8994 139.903 48.2245 139.903 47.5207V35.3695C139.903 34.6657 140.183 33.9908 140.68 33.4931L140.896 33.2768C141.932 32.2405 143.611 32.2405 144.647 33.2768L144.863 33.4931C145.36 33.9908 145.639 34.6657 145.639 35.3695V47.5207C145.639 48.2245 145.36 48.8994 144.863 49.3971L144.647 49.6134C143.611 50.6497 141.932 50.6497 140.896 49.6134L140.68 49.3971Z" fill="#383838"/>
    <path d="M163.626 49.3971C163.128 48.8994 162.849 48.2245 162.849 47.5207V35.3695C162.849 34.6657 163.128 33.9908 163.626 33.4931L163.842 33.2768C164.877 32.2405 166.557 32.2405 167.592 33.2768L167.808 33.4931C168.306 33.9908 168.585 34.6657 168.585 35.3695V47.5207C168.585 48.2245 168.306 48.8994 167.808 49.3971L167.592 49.6134C166.557 50.6497 164.877 50.6497 163.842 49.6134L163.626 49.3971Z" fill="#56AAC8"/>
    <path d="M146.296 79.51C146.794 80.0077 147.468 80.2872 148.171 80.2872H160.315C161.019 80.2872 161.693 80.0077 162.19 79.51L162.407 79.2937C163.442 78.2574 163.442 76.5773 162.407 75.541L162.19 75.3247C161.693 74.827 161.019 74.5474 160.315 74.5474H148.171C147.468 74.5474 146.794 74.827 146.296 75.3247L146.08 75.541C145.044 76.5773 145.044 78.2574 146.08 79.2937L146.296 79.51Z" fill="#383838"/>
    <path d="M140.68 57.9874C140.183 58.4851 139.903 59.16 139.903 59.8638V72.015C139.903 72.7187 140.183 73.3937 140.68 73.8913L140.896 74.1076C141.932 75.1439 143.611 75.1439 144.647 74.1076L144.863 73.8913C145.36 73.3937 145.639 72.7187 145.639 72.015V59.8638C145.639 59.16 145.36 58.4851 144.863 57.9874L144.647 57.7711C143.611 56.7348 141.932 56.7348 140.896 57.7711L140.68 57.9874Z" fill="#383838"/>
    <path d="M163.626 57.9874C163.128 58.4851 162.849 59.16 162.849 59.8638V72.015C162.849 72.7187 163.128 73.3937 163.626 73.8913L163.842 74.1076C164.877 75.1439 166.557 75.1439 167.592 74.1076L167.808 73.8913C168.306 73.3937 168.585 72.7187 168.585 72.015V59.8638C168.585 59.16 168.306 58.4851 167.808 57.9874L167.592 57.7711C166.557 56.7348 164.877 56.7348 163.842 57.7711L163.626 57.9874Z" fill="#56AAC8"/>
    <path fill-rule="evenodd" clip-rule="evenodd" d="M36.6947 4.75532C36.5975 3.7066 36.7896 2.59698 37.271 1.78903L37.4382 1.50838C37.8229 0.862736 38.3446 0.5 38.8887 0.5H48.2816C48.8256 0.5 49.3473 0.862736 49.732 1.50838L49.8992 1.78903C50.3806 2.59698 50.5727 3.7066 50.4755 4.75532H100.524C100.427 3.7066 100.619 2.59698 101.101 1.78903L101.268 1.50838C101.653 0.862736 102.174 0.5 102.718 0.5H112.111C112.655 0.5 113.177 0.862736 113.562 1.50838L113.729 1.78903C114.21 2.59698 114.402 3.7066 114.305 4.75532H120.737C120.64 3.7066 120.832 2.59698 121.314 1.78903L121.481 1.50838C121.865 0.862736 122.387 0.5 122.931 0.5H132.324C132.868 0.5 133.39 0.862736 133.775 1.50838L133.942 1.78903C134.423 2.59698 134.615 3.7066 134.518 4.75532H140.95C140.853 3.7066 141.045 2.59698 141.526 1.78903L141.694 1.50838C142.078 0.862736 142.6 0.5 143.144 0.5H152.537C153.081 0.5 153.603 0.862736 153.987 1.50838L154.155 1.78903C154.636 2.59698 154.828 3.7066 154.731 4.75532H161.138C177.589 4.75532 190.926 18.0915 190.926 34.5426V72.8404C190.926 89.2915 177.589 102.628 161.138 102.628H30.2872C13.8362 102.628 0.5 89.2915 0.5 72.8404V34.5426C0.5 18.0915 13.8362 4.75532 30.2872 4.75532H36.6947ZM9.01064 34.5426C9.01064 22.7918 18.5365 13.266 30.2872 13.266H161.138C172.889 13.266 182.415 22.7918 182.415 34.5426V72.8404C182.415 84.5912 172.889 94.117 161.138 94.117H30.2872C18.5365 94.117 9.01064 84.5912 9.01064 72.8404V34.5426Z" fill="#56AAC8"/>
    <path fill-rule="evenodd" clip-rule="evenodd" d="M211.176 204.895C211.712 204.18 211.57 203.164 210.857 202.625L211.176 204.895ZM211.176 204.895L211.157 204.919C211.145 204.936 211.125 204.963 211.099 204.997C211.048 205.066 210.972 205.169 210.874 205.303C210.679 205.569 210.398 205.956 210.057 206.435C209.376 207.393 208.462 208.712 207.525 210.159C206.587 211.61 205.639 213.171 204.884 214.616C204.109 216.099 203.613 217.322 203.466 218.136C203.326 218.916 203.496 219.993 203.995 221.384C204.484 222.747 205.207 224.199 205.96 225.684C206.007 225.778 206.055 225.871 206.102 225.965C206.787 227.314 207.498 228.715 207.945 229.95C208.187 230.616 208.384 231.319 208.444 232.004C208.503 232.689 208.435 233.488 207.999 234.217C207.746 234.639 207.365 234.976 207.077 235.207C206.753 235.466 206.371 235.726 205.975 235.975C205.18 236.473 204.223 236.993 203.32 237.456C202.412 237.922 201.532 238.344 200.882 238.65C200.556 238.803 200.286 238.927 200.096 239.013C200.002 239.056 199.927 239.09 199.876 239.113L199.795 239.149C198.98 239.513 198.025 239.145 197.663 238.327C197.3 237.509 197.668 236.551 198.483 236.188L198.499 236.18L198.552 236.156C198.6 236.135 198.67 236.103 198.76 236.062C198.94 235.98 199.199 235.861 199.513 235.714C200.143 235.418 200.986 235.013 201.849 234.57C202.719 234.124 203.582 233.653 204.261 233.227C204.602 233.013 204.871 232.826 205.062 232.673C205.143 232.609 205.195 232.562 205.225 232.533C205.231 232.491 205.236 232.413 205.225 232.285C205.2 231.999 205.105 231.597 204.909 231.058C204.532 230.017 203.906 228.783 203.183 227.357C203.149 227.29 203.115 227.222 203.08 227.154C202.34 225.692 201.524 224.065 200.956 222.482C200.398 220.926 199.993 219.191 200.287 217.56C200.526 216.231 201.223 214.641 202.023 213.111C202.842 211.543 203.848 209.89 204.815 208.395C205.785 206.896 206.728 205.536 207.428 204.552C207.778 204.06 208.068 203.66 208.272 203.382C208.373 203.244 208.453 203.135 208.508 203.061C208.536 203.024 208.557 202.996 208.572 202.976L208.588 202.954L208.595 202.945C209.131 202.23 210.144 202.087 210.857 202.625" fill="#292929"/>
    <path fill-rule="evenodd" clip-rule="evenodd" d="M244.67 208.658C245.206 207.943 245.064 206.927 244.351 206.389L244.67 208.658ZM244.67 208.658L244.652 208.683C244.639 208.7 244.619 208.726 244.594 208.761C244.542 208.83 244.466 208.933 244.368 209.066C244.173 209.333 243.892 209.72 243.551 210.198C242.87 211.156 241.956 212.475 241.019 213.923C240.081 215.374 239.133 216.935 238.378 218.38C237.603 219.863 237.107 221.085 236.96 221.9C236.82 222.679 236.99 223.756 237.489 225.147C237.978 226.51 238.701 227.963 239.454 229.448C239.501 229.541 239.549 229.635 239.596 229.728C240.281 231.078 240.992 232.479 241.439 233.713C241.681 234.38 241.878 235.082 241.938 235.767C241.997 236.453 241.929 237.251 241.493 237.98C241.24 238.403 240.86 238.74 240.571 238.971C240.247 239.23 239.865 239.49 239.469 239.738C238.674 240.237 237.717 240.756 236.814 241.219C235.906 241.685 235.027 242.108 234.376 242.413C234.05 242.566 233.78 242.69 233.59 242.777C233.496 242.82 233.421 242.854 233.37 242.877L233.311 242.903L233.289 242.913C232.474 243.276 231.519 242.908 231.157 242.09C230.794 241.272 231.162 240.315 231.977 239.951L231.993 239.944L232.047 239.92C232.094 239.899 232.164 239.867 232.254 239.826C232.434 239.744 232.693 239.624 233.007 239.477C233.637 239.182 234.48 238.777 235.344 238.334C236.213 237.888 237.076 237.417 237.755 236.99C238.097 236.776 238.365 236.589 238.557 236.437C238.637 236.372 238.689 236.326 238.719 236.297C238.725 236.255 238.73 236.176 238.719 236.048C238.695 235.762 238.599 235.36 238.403 234.821C238.026 233.78 237.4 232.547 236.678 231.121C236.643 231.053 236.609 230.985 236.574 230.917C235.834 229.456 235.018 227.828 234.45 226.245C233.892 224.69 233.487 222.954 233.781 221.323C234.02 219.995 234.718 218.405 235.517 216.875C236.336 215.307 237.342 213.653 238.309 212.158C239.279 210.659 240.222 209.3 240.922 208.316C241.272 207.823 241.562 207.423 241.766 207.146C241.867 207.007 241.947 206.899 242.002 206.825C242.03 206.788 242.051 206.759 242.066 206.74L242.083 206.717L242.089 206.709C242.625 205.994 243.638 205.85 244.351 206.389" fill="#292929"/>
    <path fill-rule="evenodd" clip-rule="evenodd" d="M184.408 180.069C183.537 179.876 182.674 180.427 182.481 181.301C182.405 181.644 182.336 182.272 182.269 182.975C182.198 183.725 182.117 184.692 182.029 185.8C181.947 186.831 181.859 187.991 181.765 189.22L181.743 189.5C181.642 190.835 181.534 192.245 181.421 193.663C181.195 196.503 180.953 199.358 180.705 201.673C180.581 202.832 180.458 203.841 180.336 204.638C180.209 205.478 180.101 205.963 180.034 206.151C179.786 206.854 179.131 207.321 178.214 207.609C177.779 207.746 177.357 207.817 177.039 207.853C176.883 207.871 176.757 207.879 176.676 207.883C176.636 207.885 176.607 207.886 176.59 207.887L176.579 207.887L176.581 207.887L176.577 207.887C175.687 207.89 174.968 208.615 174.968 209.508C174.968 211.196 176.581 211.128 176.584 211.128H176.588L176.595 211.128L176.613 211.128C176.627 211.128 176.644 211.128 176.666 211.127C176.708 211.126 176.766 211.124 176.836 211.121C176.976 211.114 177.169 211.1 177.401 211.074C177.861 211.022 178.496 210.917 179.18 210.702C180.5 210.287 182.333 209.347 183.079 207.234C183.261 206.719 183.405 205.95 183.53 205.127C183.662 204.261 183.791 203.199 183.917 202.019C184.17 199.657 184.415 196.765 184.641 193.921C184.754 192.497 184.863 191.082 184.965 189.748L184.986 189.469C185.08 188.238 185.168 187.083 185.25 186.057C185.337 184.952 185.416 184.007 185.485 183.284C185.52 182.922 185.551 182.624 185.579 182.394C185.593 182.28 185.605 182.187 185.616 182.116C185.621 182.081 185.626 182.053 185.629 182.033C185.633 182.012 185.635 182.002 185.635 182.002C185.828 181.128 185.279 180.263 184.408 180.069Z" fill="#292929"/>
    <path d="M281.923 163.404C281.923 192.269 258.691 215.67 230.031 215.67C201.372 215.67 178.139 192.269 178.139 163.404C178.139 134.538 201.372 111.138 230.031 111.138C258.691 111.138 281.923 134.538 281.923 163.404Z" fill="#FFB949"/>
    <path d="M229.889 215.328C257.425 213.124 279.065 190.682 279.065 163.322C279.065 135.962 257.425 113.52 229.889 111.316C231.359 111.198 232.846 111.138 234.347 111.138C263.968 111.138 287.981 134.502 287.981 163.322C287.981 192.143 263.968 215.506 234.347 215.506C232.846 215.506 231.359 215.446 229.889 215.328Z" fill="#FFA220"/>
    <path d="M280.308 163.404C280.308 192.269 256.985 215.67 228.214 215.67C199.444 215.67 176.12 192.269 176.12 163.404C176.12 134.538 199.444 111.138 228.214 111.138C256.985 111.138 280.308 134.538 280.308 163.404ZM184.569 163.404C184.569 187.588 204.11 207.193 228.214 207.193C252.319 207.193 271.86 187.588 271.86 163.404C271.86 139.22 252.319 119.615 228.214 119.615C204.11 119.615 184.569 139.22 184.569 163.404Z" fill="#FFCF82"/>
    <path d="M224.58 156.921C224.58 149.537 220.783 143.551 216.099 143.551C211.416 143.551 207.619 149.537 207.619 156.921C207.619 164.306 211.416 170.292 216.099 170.292C220.783 170.292 224.58 164.306 224.58 156.921Z" fill="white"/>
    <path d="M210.105 166.379C210.125 166.379 210.145 166.379 210.165 166.379C216.283 166.379 221.243 160.25 221.243 152.689C221.243 149.534 220.379 146.628 218.928 144.313C218.043 143.819 217.091 143.551 216.099 143.551C211.416 143.551 207.619 149.537 207.619 156.921C207.619 160.615 208.569 163.959 210.105 166.379Z" fill="#292929"/>
    <path d="M246.79 156.921C246.79 149.537 242.994 143.551 238.31 143.551C233.626 143.551 229.83 149.537 229.83 156.921C229.83 164.306 233.626 170.292 238.31 170.292C242.994 170.292 246.79 164.306 246.79 156.921Z" fill="white"/>
    <path d="M232.315 166.379C232.335 166.379 232.355 166.379 232.375 166.379C238.494 166.379 243.453 160.25 243.453 152.689C243.453 149.534 242.59 146.628 241.138 144.313C240.254 143.819 239.302 143.551 238.31 143.551C233.626 143.551 229.83 149.537 229.83 156.921C229.83 160.615 230.78 163.959 232.315 166.379Z" fill="#292929"/>
    <path fill-rule="evenodd" clip-rule="evenodd" d="M237.189 177.41C237.842 178.02 237.879 179.045 237.272 179.701C237.208 179.77 237.14 179.844 237.068 179.923C236.131 180.951 234.523 182.714 231.621 183.414C227.424 184.428 223.683 183.549 219.849 181.724C219.043 181.34 218.7 180.374 219.082 179.565C219.465 178.756 220.428 178.412 221.234 178.796C224.669 180.431 227.63 181.044 230.865 180.263C232.785 179.8 233.797 178.699 234.72 177.695C234.783 177.627 234.844 177.56 234.906 177.494C235.513 176.838 236.535 176.801 237.189 177.41Z" fill="#292929"/>
    <path fill-rule="evenodd" clip-rule="evenodd" d="M280.422 182.095C281.293 181.901 282.155 182.453 282.348 183.327C282.424 183.67 282.493 184.298 282.56 185C282.632 185.75 282.712 186.718 282.8 187.826C282.882 188.856 282.97 190.016 283.064 191.245L283.086 191.526C283.188 192.86 283.296 194.271 283.408 195.689C283.634 198.529 283.877 201.383 284.124 203.699C284.248 204.858 284.372 205.867 284.493 206.664C284.62 207.504 284.728 207.989 284.795 208.177C285.043 208.88 285.698 209.346 286.615 209.635C287.05 209.772 287.472 209.843 287.79 209.879C287.946 209.897 288.072 209.905 288.153 209.909C288.193 209.911 288.223 209.912 288.239 209.912L288.25 209.913H288.248L288.253 209.913C289.142 209.916 289.861 210.64 289.861 211.533C289.861 213.222 288.248 213.154 288.245 213.154H288.241L288.234 213.154L288.216 213.154C288.203 213.154 288.185 213.153 288.164 213.153C288.121 213.152 288.064 213.15 287.993 213.146C287.853 213.14 287.66 213.126 287.428 213.1C286.968 213.048 286.334 212.943 285.649 212.728C284.329 212.313 282.497 211.372 281.75 209.26C281.568 208.745 281.424 207.976 281.299 207.153C281.168 206.287 281.038 205.225 280.912 204.045C280.659 201.683 280.414 198.791 280.188 195.947C280.075 194.523 279.966 193.108 279.865 191.774L279.843 191.494C279.749 190.264 279.661 189.109 279.58 188.083C279.492 186.978 279.413 186.032 279.344 185.31C279.309 184.948 279.278 184.65 279.25 184.42C279.236 184.305 279.224 184.213 279.213 184.142C279.208 184.107 279.203 184.079 279.2 184.058C279.196 184.038 279.194 184.028 279.194 184.028C279.001 183.154 279.551 182.289 280.422 182.095Z" fill="#292929"/>
</svg>
