<svg width="232" height="198" viewBox="0 0 232 198" fill="none" xmlns="http://www.w3.org/2000/svg">
    <path d="M2.96668 82.8885C1.02641 68.2886 11.3173 54.884 25.9521 52.9483L177.999 32.8381C192.634 30.9025 206.071 41.1688 208.011 55.7687L216.842 122.216C218.782 136.816 208.491 150.22 193.856 152.156L41.809 172.266C27.1743 174.202 13.7375 163.936 11.7973 149.336L2.96668 82.8885Z" fill="#652505"/>
    <path d="M161.667 53.0902C161.667 82.4112 137.933 106.18 108.656 106.18C79.3791 106.18 55.6453 82.4112 55.6453 53.0902C55.6453 23.7693 79.3791 0 108.656 0C137.933 0 161.667 23.7693 161.667 53.0902Z" fill="#FFB949"/>
    <path d="M108.511 105.834C136.64 103.595 158.747 80.7987 158.747 53.0072C158.747 25.2158 136.64 2.41967 108.511 0.180489C110.012 0.0609521 111.531 0 113.065 0C143.325 0 167.855 23.7321 167.855 53.0072C167.855 82.2823 143.325 106.014 113.065 106.014C111.531 106.014 110.012 105.954 108.511 105.834Z" fill="#FFA220"/>
    <path d="M160.017 53.0902C160.017 82.4112 136.191 106.18 106.8 106.18C77.4088 106.18 53.5826 82.4112 53.5826 53.0902C53.5826 23.7693 77.4088 0 106.8 0C136.191 0 160.017 23.7693 160.017 53.0902ZM62.2133 53.0902C62.2133 77.6559 82.1754 97.5704 106.8 97.5704C131.424 97.5704 151.386 77.6559 151.386 53.0902C151.386 28.5245 131.424 8.6101 106.8 8.6101C82.1754 8.6101 62.2133 28.5245 62.2133 53.0902Z" fill="#FFCF82"/>
    <path d="M108.45 46.5054C108.45 39.0047 112.329 32.9242 117.113 32.9242C121.898 32.9242 125.776 39.0047 125.776 46.5054C125.776 54.0061 121.898 60.0866 117.113 60.0866C112.329 60.0866 108.45 54.0061 108.45 46.5054Z" fill="white"/>
    <path d="M123.237 56.112C123.217 56.1121 123.196 56.1122 123.176 56.1122C116.926 56.1122 111.859 49.8863 111.859 42.2064C111.859 39.0014 112.741 36.0496 114.224 33.6979C115.128 33.1968 116.1 32.9242 117.113 32.9242C121.898 32.9242 125.776 39.0047 125.776 46.5054C125.776 50.2574 124.806 53.654 123.237 56.112Z" fill="#292929"/>
    <path d="M85.7605 46.5054C85.7605 39.0047 89.6392 32.9242 94.4237 32.9242C99.2083 32.9242 103.087 39.0047 103.087 46.5054C103.087 54.0061 99.2083 60.0866 94.4237 60.0866C89.6392 60.0866 85.7605 54.0061 85.7605 46.5054Z" fill="white"/>
    <path d="M100.548 56.112C100.527 56.1121 100.507 56.1122 100.486 56.1122C94.2361 56.1122 89.1694 49.8863 89.1694 42.2064C89.1694 39.0014 90.0518 36.0496 91.5343 33.6979C92.438 33.1968 93.4106 32.9242 94.4237 32.9242C99.2083 32.9242 103.087 39.0047 103.087 46.5054C103.087 50.2574 102.116 53.654 100.548 56.112Z" fill="#292929"/>
    <path fill-rule="evenodd" clip-rule="evenodd" d="M115.968 67.3178C116.635 67.9368 116.673 68.9785 116.053 69.6443C115.987 69.7146 115.918 69.79 115.845 69.8697C114.887 70.914 113.245 72.7046 110.28 73.4164C105.993 74.4457 102.171 73.5534 98.2542 71.6992C97.4308 71.3095 97.0801 70.3276 97.4708 69.5062C97.8616 68.6848 98.8458 68.335 99.6691 68.7248C103.178 70.386 106.203 71.0088 109.508 70.2153C111.469 69.7445 112.503 68.6265 113.446 67.6068C113.51 67.5382 113.573 67.47 113.636 67.4026C114.256 66.7367 115.3 66.6987 115.968 67.3178Z" fill="#292929"/>
    <path d="M0.790039 80C0.790039 65.2724 12.7577 53.3333 27.5205 53.3333H193.917C208.68 53.3333 220.648 65.2724 220.648 80V171.333C220.648 186.061 208.68 198 193.917 198H27.5205C12.7577 198 0.790039 186.061 0.790039 171.333V80Z" fill="#B37560"/>
    <path d="M220.648 171.333V80C220.648 80 175.701 121.833 132.772 139.667C89.8417 157.501 0.790039 171.333 0.790039 171.333C0.790039 186.061 12.7577 198 27.5205 198H193.917C208.68 198 220.648 186.061 220.648 171.333Z" fill="#652505" fill-opacity="0.4"/>
    <path d="M154.49 116C154.49 108.636 160.474 102.667 167.855 102.667H217.975C225.356 102.667 231.34 108.636 231.34 116V131.333C231.34 138.697 225.356 144.667 217.975 144.667H167.855C160.474 144.667 154.49 138.697 154.49 131.333V116Z" fill="#B37560"/>
    <path fill-rule="evenodd" clip-rule="evenodd" d="M217.975 105.333H167.855C161.95 105.333 157.163 110.109 157.163 116V131.333C157.163 137.224 161.95 142 167.855 142H217.975C223.88 142 228.667 137.224 228.667 131.333V116C228.667 110.109 223.88 105.333 217.975 105.333ZM167.855 102.667C160.474 102.667 154.49 108.636 154.49 116V131.333C154.49 138.697 160.474 144.667 167.855 144.667H217.975C225.356 144.667 231.34 138.697 231.34 131.333V116C231.34 108.636 225.356 102.667 217.975 102.667H167.855Z" fill="#652505"/>
    <path d="M186.567 123.333C186.567 128.856 182.079 133.333 176.543 133.333C171.007 133.333 166.519 128.856 166.519 123.333C166.519 117.81 171.007 113.333 176.543 113.333C182.079 113.333 186.567 117.81 186.567 123.333Z" fill="#FFB949"/>
</svg>
