<svg width="203" height="174" viewBox="0 0 203 174" fill="none" xmlns="http://www.w3.org/2000/svg">
    <path d="M152.5 162.877C152.5 168.744 118.474 173.5 76.5 173.5C34.5264 173.5 0.5 168.744 0.5 162.877C0.5 157.01 34.5264 152.254 76.5 152.254C118.474 152.254 152.5 157.01 152.5 162.877Z" fill="#E0EFF5"/>
    <path fill-rule="evenodd" clip-rule="evenodd" d="M62.8688 121.476C63.9721 121.476 64.8664 122.375 64.8664 123.484H62.8688H60.8712C60.8712 122.375 61.7656 121.476 62.8688 121.476ZM52.7026 160.386L52.7062 160.386L52.7229 160.385L52.7929 160.378C52.8554 160.372 52.9488 160.363 53.0688 160.352C53.3089 160.328 53.6552 160.292 54.0745 160.243C54.9157 160.146 56.0387 160.002 57.1832 159.81C58.3406 159.616 59.4609 159.383 60.3203 159.12C60.7532 158.988 61.0585 158.866 61.2481 158.768C61.2513 158.766 61.2545 158.764 61.2576 158.763C61.4709 158.314 61.6397 157.63 61.712 156.615C61.794 155.464 61.7418 154.073 61.6196 152.438C61.5554 151.578 61.4711 150.651 61.3823 149.675C61.1431 147.044 60.8712 144.053 60.8712 141.053V123.484C60.8712 123.484 60.8712 123.484 62.8688 123.484C64.8664 123.484 64.8664 123.484 64.8664 123.484V141.053C64.8664 143.857 65.112 146.556 65.3461 149.13C65.4391 150.153 65.5303 151.155 65.6037 152.137C65.7291 153.816 65.8007 155.446 65.697 156.902C65.5948 158.336 65.3115 159.798 64.5818 161.02C64.1668 161.715 63.5053 162.116 63.079 162.337C62.5907 162.59 62.0327 162.794 61.4837 162.962C60.3792 163.3 59.0612 163.566 57.8404 163.771C56.6066 163.978 55.4115 164.131 54.5291 164.233C54.0866 164.284 53.7196 164.322 53.4621 164.348C53.3332 164.361 53.2316 164.37 53.1613 164.377L53.0799 164.384L53.0578 164.386L53.0515 164.387L53.0496 164.387C53.0494 164.387 53.0486 164.387 52.8754 162.387L53.0496 164.387C51.9505 164.483 50.9809 163.666 50.8853 162.561C50.7897 161.456 51.6036 160.483 52.7026 160.386C52.7026 160.386 52.7026 160.386 52.7026 160.386ZM61.3756 158.692C61.3759 158.692 61.3713 158.696 61.3606 158.703C61.3699 158.696 61.3752 158.692 61.3756 158.692ZM52.7026 160.386C52.7026 160.386 52.7026 160.386 52.7026 160.386V160.386Z" fill="#292929"/>
    <path fill-rule="evenodd" clip-rule="evenodd" d="M88.7144 121.476C87.6112 121.476 86.7168 122.375 86.7168 123.484H88.7144H90.7121C90.7121 122.375 89.8177 121.476 88.7144 121.476ZM98.8806 160.386L98.877 160.386L98.8604 160.385L98.7903 160.378C98.7278 160.372 98.6345 160.363 98.5145 160.352C98.2743 160.328 97.9281 160.292 97.5088 160.243C96.6675 160.146 95.5445 160.002 94.4001 159.81C93.2427 159.616 92.1223 159.383 91.263 159.12C90.83 158.988 90.5247 158.866 90.3352 158.768C90.3325 158.766 90.3298 158.765 90.3272 158.764C90.1183 158.315 89.9455 157.597 89.8717 156.515C89.7887 155.298 89.8418 153.832 89.9639 152.151C90.0331 151.199 90.1259 150.173 90.2225 149.105C90.456 146.523 90.7121 143.692 90.7121 141.053V123.484C90.7121 123.484 90.7121 123.484 88.7144 123.484C86.7168 123.484 86.7168 123.484 86.7168 123.484V141.053C86.7168 143.503 86.4883 146.024 86.2617 148.524C86.1603 149.643 86.0593 150.757 85.9793 151.859C85.8537 153.587 85.783 155.282 85.8858 156.79C85.9862 158.262 86.2637 159.784 87.0015 161.02C87.4164 161.715 88.0779 162.116 88.5043 162.337C88.9926 162.59 89.5506 162.794 90.0996 162.962C91.204 163.3 92.522 163.566 93.7428 163.771C94.9766 163.978 96.1718 164.131 97.0542 164.233C97.4967 164.284 97.8636 164.322 98.1212 164.348C98.25 164.361 98.3517 164.37 98.422 164.377L98.5034 164.384L98.5255 164.386L98.5317 164.387L98.5336 164.387C98.5338 164.387 98.5347 164.387 98.7078 162.387L98.5336 164.387C99.6327 164.483 100.602 163.666 100.698 162.561C100.794 161.456 99.9796 160.483 98.8806 160.386C98.8806 160.386 98.8806 160.386 98.8806 160.386ZM90.2077 158.692C90.2073 158.692 90.212 158.696 90.2226 158.703C90.2134 158.696 90.208 158.692 90.2077 158.692ZM98.8806 160.386C98.8806 160.386 98.8806 160.386 98.8806 160.386V160.386Z" fill="#292929"/>
    <path fill-rule="evenodd" clip-rule="evenodd" d="M21.1741 85.9023C20.097 85.6624 19.0303 86.3456 18.7916 87.4283C18.6978 87.8537 18.6127 88.6312 18.5296 89.502C18.441 90.4312 18.3412 91.6298 18.2326 93.0022C18.1314 94.2794 18.0219 95.7164 17.9059 97.2392L17.8793 97.5871C17.7533 99.2402 17.6198 100.988 17.4805 102.745C17.2016 106.263 16.9013 109.8 16.5951 112.669C16.4419 114.104 16.2891 115.354 16.1393 116.342C15.9815 117.383 15.8478 117.983 15.7654 118.217C15.4584 119.087 14.6492 119.666 13.5143 120.023C12.9765 120.192 12.4546 120.281 12.0617 120.325C11.8682 120.347 11.7133 120.358 11.6127 120.363C11.5627 120.365 11.5266 120.366 11.5066 120.367L11.493 120.367L11.4951 120.367H11.4963C11.494 120.367 11.4918 120.367 11.4895 120.367C10.39 120.371 9.5 121.269 9.5 122.375C9.5 123.484 10.3944 124.383 11.4976 124.383L11.4976 122.375C11.4976 124.383 11.4983 124.383 11.4991 124.383H11.5006L11.5041 124.383L11.5124 124.383L11.5344 124.383C11.5515 124.382 11.5734 124.382 11.5997 124.381C11.6524 124.38 11.7233 124.378 11.8102 124.374C11.9835 124.365 12.2227 124.348 12.5096 124.316C13.0777 124.251 13.8629 124.122 14.709 123.855C16.3419 123.341 18.608 122.176 19.531 119.559C19.7561 118.921 19.9343 117.967 20.0889 116.947C20.2515 115.875 20.4115 114.559 20.5676 113.097C20.8799 110.17 21.1838 106.588 21.4631 103.064C21.6029 101.3 21.7369 99.5469 21.8629 97.8939L21.8893 97.5477C22.0055 96.023 22.1146 94.5918 22.2152 93.3208C22.3236 91.9524 22.4213 90.7805 22.5067 89.8851C22.5494 89.4369 22.5881 89.0678 22.6226 88.7831C22.6398 88.6408 22.6551 88.5266 22.6684 88.4383C22.675 88.3945 22.6806 88.3604 22.6851 88.3348C22.6896 88.3092 22.6921 88.2977 22.6922 88.2971C22.9309 87.2144 22.2512 86.1423 21.1741 85.9023Z" fill="#292929"/>
    <path d="M141.77 65.2547C141.77 101.018 113.038 130.009 77.596 130.009C42.1538 130.009 13.4221 101.018 13.4221 65.2547C13.4221 29.4917 42.1538 0.5 77.596 0.5C113.038 0.5 141.77 29.4917 141.77 65.2547Z" fill="#FFB949"/>
    <path d="M77.42 129.587C111.473 126.856 138.235 99.051 138.235 65.1535C138.235 31.2559 111.473 3.45129 77.42 0.720143C79.2378 0.574344 81.0765 0.5 82.9329 0.5C119.565 0.5 149.261 29.4463 149.261 65.1535C149.261 100.861 119.565 129.807 82.9329 129.807C81.0765 129.807 79.2378 129.733 77.42 129.587Z" fill="#FFA220"/>
    <path d="M139.772 65.2547C139.772 101.018 110.929 130.009 75.3487 130.009C39.7685 130.009 10.9251 101.018 10.9251 65.2547C10.9251 29.4917 39.7685 0.5 75.3487 0.5C110.929 0.5 139.772 29.4917 139.772 65.2547ZM21.3732 65.2547C21.3732 95.2177 45.5388 119.508 75.3487 119.508C105.159 119.508 129.324 95.2177 129.324 65.2547C129.324 35.2917 105.159 11.0018 75.3487 11.0018C45.5388 11.0018 21.3732 35.2917 21.3732 65.2547Z" fill="#FFCF82"/>
    <path d="M77.3463 57.2231C77.3463 66.3718 82.0418 73.7883 87.8339 73.7883C93.626 73.7883 98.3214 66.3718 98.3214 57.2231C98.3214 48.0744 93.626 40.658 87.8339 40.658C82.0418 40.658 77.3463 48.0744 77.3463 57.2231Z" fill="white"/>
    <path d="M95.2472 45.5059C95.2225 45.5057 95.1977 45.5056 95.173 45.5056C87.6067 45.5056 81.473 53.0994 81.473 62.4667C81.473 66.3759 82.5413 69.9762 84.336 72.8446C85.43 73.4557 86.6074 73.7883 87.8339 73.7883C93.626 73.7883 98.3214 66.3718 98.3214 57.2231C98.3214 52.6468 97.1466 48.5039 95.2472 45.5059Z" fill="#292929"/>
    <path d="M49.8789 57.2231C49.8789 66.3718 54.5743 73.7883 60.3664 73.7883C66.1586 73.7883 70.854 66.3718 70.854 57.2231C70.854 48.0744 66.1586 40.658 60.3664 40.658C54.5743 40.658 49.8789 48.0744 49.8789 57.2231Z" fill="white"/>
    <path d="M67.7798 45.5059C67.7551 45.5057 67.7303 45.5056 67.7055 45.5056C60.1393 45.5056 54.0056 53.0994 54.0056 62.4667C54.0056 66.3759 55.0738 69.9762 56.8686 72.8446C57.9626 73.4557 59.1399 73.7883 60.3664 73.7883C66.1586 73.7883 70.854 66.3718 70.854 57.2231C70.854 52.6468 69.6791 48.5039 67.7798 45.5059Z" fill="#292929"/>
    <path fill-rule="evenodd" clip-rule="evenodd" d="M86.4473 82.6082C87.2553 83.3632 87.3014 84.6337 86.5502 85.4459C86.4709 85.5316 86.3872 85.6235 86.2987 85.7208C85.1391 86.9945 83.1508 89.1785 79.5616 90.0467C74.3714 91.3021 69.7449 90.2139 65.0035 87.9523C64.0068 87.4769 63.5822 86.2793 64.0552 85.2775C64.5282 84.2756 65.7196 83.8489 66.7164 84.3243C70.9643 86.3505 74.6259 87.1102 78.6269 86.1424C81.001 85.5681 82.253 84.2044 83.3949 82.9607C83.4717 82.877 83.548 82.7939 83.6241 82.7116C84.3753 81.8994 85.6393 81.8531 86.4473 82.6082Z" fill="#292929"/>
    <path fill-rule="evenodd" clip-rule="evenodd" d="M151.737 81.9157C150.798 81.5227 150.293 80.4694 150.598 79.4725C150.923 78.4126 152.04 77.8177 153.095 78.1439L152.518 80.0283C153.095 78.1439 153.095 78.1437 153.095 78.1439L153.105 78.1469L153.124 78.153C153.14 78.158 153.162 78.165 153.19 78.1739C153.245 78.1916 153.322 78.217 153.42 78.2497C153.613 78.3149 153.886 78.4095 154.209 78.5303C154.851 78.7695 155.72 79.1213 156.589 79.561C157.432 79.9872 158.399 80.5578 159.147 81.2687C159.836 81.9236 160.808 83.1618 160.452 84.7991C160.244 85.7579 159.587 86.4077 158.812 86.7029C158.179 86.9442 157.541 86.9263 157.119 86.8861C156.291 86.8075 155.323 86.5267 154.592 86.3146C154.562 86.3059 154.533 86.2973 154.504 86.2888C154.131 86.1808 153.81 86.0893 153.536 86.0172C152.845 90.0116 150.948 96.8273 149.113 102.478C148.067 105.7 147.003 108.66 146.14 110.609C145.74 111.512 145.282 112.438 144.797 113.012C144.665 113.168 144.448 113.399 144.145 113.589C143.85 113.775 143.241 114.061 142.475 113.881C141.686 113.696 141.258 113.144 141.067 112.803C140.88 112.469 140.801 112.139 140.761 111.923C140.071 108.169 138.743 95.6967 138.44 89.2388C138.388 88.1311 139.239 87.1908 140.341 87.1386C141.443 87.0864 142.379 87.942 142.431 89.0497C142.63 93.3044 143.287 100.234 143.894 105.397C144.348 104.139 144.829 102.728 145.315 101.232C147.401 94.8103 149.427 87.2868 149.773 84.15C149.818 83.7378 149.96 83.2911 150.259 82.8856C150.558 82.4803 150.938 82.2205 151.3 82.0634C151.446 82 151.593 81.9519 151.737 81.9157ZM152.565 85.8332C152.565 85.8335 152.572 85.8336 152.584 85.8326C152.571 85.8325 152.565 85.8329 152.565 85.8332ZM156.576 84.3756C156.584 84.3921 156.59 84.4006 156.591 84.4007C156.592 84.4008 156.588 84.3925 156.576 84.3756Z" fill="#292929"/>
    <path d="M139.676 26.1458C137.053 25.2892 134.236 26.7322 133.383 29.3689L127.057 48.9428C126.205 51.5795 127.64 54.4113 130.264 55.2679L157.337 64.1086L150.393 85.5921C149.967 86.9105 150.685 88.3264 151.996 88.7547C153.308 89.183 154.717 88.4615 155.143 87.1431L162.087 65.6596L189.635 74.6553C192.258 75.5119 195.076 74.0689 195.928 71.4322L202.254 51.8583C203.106 49.2216 201.671 46.3898 199.048 45.5332L139.676 26.1458Z" fill="#56AAC8"/>
    <path d="M139.444 40.6414L143.206 41.8698L144.272 38.5699L145.937 39.1134L143.226 47.5006L141.561 46.9571L142.728 43.3479L138.966 42.1195L137.8 45.7287L136.147 45.189L138.858 36.8018L140.51 37.3415L139.444 40.6414Z" fill="white"/>
    <path d="M149.437 42.8026C149.962 42.9738 150.387 43.2436 150.713 43.6119C151.049 43.9751 151.259 44.4065 151.341 44.9063C151.433 45.4008 151.39 45.9231 151.212 46.4731C151.133 46.7175 151.03 46.9583 150.903 47.1955L146.982 45.915C146.907 46.3804 146.958 46.7686 147.135 47.0797C147.314 47.3831 147.59 47.5956 147.962 47.7172C148.228 47.804 148.482 47.8237 148.724 47.7761C148.977 47.7234 149.198 47.5972 149.389 47.3976L150.329 48.4648C150.029 48.8481 149.612 49.0837 149.08 49.1716C148.555 49.262 148.015 49.2166 147.46 49.0354C146.928 48.8617 146.473 48.582 146.093 48.1963C145.714 47.8106 145.46 47.3351 145.332 46.7696C145.211 46.2067 145.259 45.593 145.473 44.9284C145.686 44.2715 146.004 43.7547 146.428 43.3781C146.86 43.004 147.338 42.7717 147.863 42.6813C148.388 42.591 148.913 42.6314 149.437 42.8026ZM148.973 44.0825C148.661 43.9807 148.363 43.9932 148.079 44.1198C147.794 44.2464 147.556 44.4768 147.364 44.811L149.712 45.5779C149.8 45.2013 149.773 44.884 149.629 44.626C149.496 44.3629 149.277 44.1817 148.973 44.0825Z" fill="white"/>
    <path d="M157.015 45.4416L158.667 45.9814L153.841 51.8284C153.33 52.447 152.834 52.8508 152.353 53.0399C151.877 53.2391 151.358 53.2469 150.796 53.0633C150.522 52.9739 150.277 52.8476 150.061 52.6841C149.85 52.5308 149.68 52.3569 149.549 52.1623L150.569 51.1525C150.742 51.395 150.966 51.5609 151.24 51.6502C151.414 51.7073 151.575 51.7175 151.721 51.6808C151.873 51.6543 152.035 51.5679 152.208 51.4218C152.379 51.2834 152.597 51.0633 152.863 50.7615L152.25 43.8857L154.028 44.4664L154.268 49.0668L157.015 45.4416Z" fill="white"/>
    <path d="M164.827 54.1743C164.336 54.3685 163.744 54.3528 163.053 54.1269C162.414 53.9185 161.952 53.5817 161.665 53.1165C161.389 52.6462 161.392 51.9719 161.676 51.0934L162.45 48.6987L161.402 48.3563L161.835 47.0157L162.884 47.3582L163.472 45.5364L165.057 46.0538L164.468 47.8756L166.246 48.4563L165.813 49.7968L164.035 49.2161L163.346 51.3473C163.218 51.7445 163.189 52.0686 163.259 52.3195C163.329 52.5704 163.516 52.7455 163.82 52.8447C164.086 52.9316 164.363 52.9333 164.65 52.8498L164.827 54.1743Z" fill="white"/>
    <path d="M170.784 49.7734C171.43 49.9843 171.873 50.3695 172.112 50.929C172.361 51.4833 172.353 52.173 172.086 52.9979L170.938 56.5499L169.354 56.0325L170.335 52.9961C170.685 51.9114 170.504 51.2525 169.789 51.0192C169.409 50.8951 169.053 50.9436 168.721 51.1645C168.4 51.3804 168.152 51.7556 167.98 52.2903L167.017 55.2694L165.432 54.752L168.25 46.0325L169.835 46.5499L168.679 50.1248C169.262 49.6225 169.963 49.5054 170.784 49.7734Z" fill="white"/>
    <path d="M176.9 51.7705C177.425 51.9417 177.85 52.2115 178.176 52.5798C178.512 52.943 178.722 53.3744 178.804 53.8741C178.896 54.3687 178.853 54.891 178.675 55.441C178.596 55.6854 178.493 55.9262 178.366 56.1634L174.445 54.8829C174.37 55.3483 174.421 55.7365 174.598 56.0475C174.777 56.351 175.053 56.5635 175.425 56.6851C175.691 56.7719 175.945 56.7915 176.187 56.744C176.44 56.6912 176.661 56.5651 176.852 56.3655L177.792 57.4327C177.492 57.816 177.075 58.0516 176.543 58.1395C176.018 58.2298 175.478 58.1845 174.923 58.0033C174.391 57.8296 173.936 57.5499 173.556 57.1642C173.177 56.7785 172.923 56.3029 172.795 55.7375C172.674 55.1746 172.722 54.5609 172.936 53.8963C173.149 53.2394 173.467 52.7226 173.891 52.346C174.323 51.9719 174.801 51.7396 175.326 51.6492C175.851 51.5588 176.376 51.5993 176.9 51.7705ZM176.436 53.0503C176.124 52.9486 175.826 52.961 175.542 53.0877C175.257 53.2143 175.019 53.4447 174.827 53.7789L177.175 54.5457C177.263 54.1692 177.236 53.8519 177.092 53.5939C176.959 53.3308 176.74 53.1496 176.436 53.0503Z" fill="white"/>
    <path d="M183.758 54.01C183.986 54.0845 184.188 54.1883 184.363 54.3216C184.539 54.4549 184.662 54.5923 184.734 54.734L183.722 55.759C183.569 55.557 183.367 55.415 183.117 55.3331C182.706 55.1991 182.32 55.2631 181.958 55.5249C181.604 55.7892 181.329 56.2231 181.134 56.8266L180.242 59.5879L178.657 59.0705L180.575 53.1353L181.966 53.5894C181.856 54.0602 181.789 54.3845 181.765 54.5625C182.056 54.2606 182.372 54.0638 182.712 53.9723C183.052 53.8808 183.401 53.8934 183.758 54.01Z" fill="white"/>
    <path d="M187.754 55.3147C188.278 55.486 188.704 55.7558 189.03 56.1241C189.366 56.4872 189.575 56.9187 189.658 57.4184C189.75 57.913 189.707 58.4353 189.529 58.9852C189.45 59.2297 189.347 59.4705 189.22 59.7077L185.299 58.4272C185.224 58.8925 185.275 59.2807 185.452 59.5918C185.631 59.8952 185.907 60.1077 186.279 60.2293C186.545 60.3162 186.799 60.3358 187.041 60.2882C187.294 60.2355 187.515 60.1093 187.705 59.9098L188.646 60.9769C188.346 61.3602 187.929 61.5958 187.397 61.6837C186.872 61.7741 186.332 61.7287 185.777 61.5476C185.245 61.3738 184.79 61.0941 184.41 60.7084C184.031 60.3228 183.777 59.8472 183.649 59.2818C183.528 58.7189 183.575 58.1051 183.79 57.4406C184.003 56.7836 184.321 56.2669 184.745 55.8903C185.177 55.5161 185.655 55.2839 186.18 55.1935C186.705 55.1031 187.23 55.1435 187.754 55.3147ZM187.29 56.5946C186.978 56.4929 186.68 56.5053 186.396 56.6319C186.111 56.7586 185.873 56.989 185.681 57.3232L188.029 58.09C188.117 57.7134 188.089 57.3962 187.946 57.1382C187.813 56.8751 187.594 56.6939 187.29 56.5946Z" fill="white"/>
    <path d="M190.541 59.9743L192.257 53.8844L193.921 54.4279L191.749 60.3689L190.541 59.9743ZM190.23 63.0017C189.972 62.9173 189.782 62.7498 189.662 62.4993C189.541 62.2488 189.523 61.9937 189.607 61.734C189.693 61.4666 189.858 61.2672 190.102 61.1358C190.347 61.0044 190.598 60.9809 190.856 61.0653C191.115 61.1497 191.308 61.3183 191.436 61.5713C191.564 61.8244 191.585 62.0845 191.499 62.3519C191.415 62.6116 191.247 62.8059 190.995 62.9348C190.751 63.0662 190.496 63.0885 190.23 63.0017Z" fill="white"/>
    <path fill-rule="evenodd" clip-rule="evenodd" d="M151.919 81.9816L151.92 81.982L151.928 81.9846C151.937 81.9873 151.951 81.9919 151.971 81.9983C152.011 82.0111 152.072 82.031 152.151 82.0578C152.31 82.1114 152.541 82.1916 152.819 82.295C153.379 82.5041 154.101 82.798 154.793 83.148C155.511 83.5113 156.073 83.8741 156.402 84.1866C156.502 84.2816 156.553 84.3438 156.576 84.3756C156.549 84.3196 156.499 84.1712 156.549 83.9437L160.452 84.7991C160.808 83.1618 159.836 81.9236 159.147 81.2687C158.399 80.5578 157.432 79.9872 156.589 79.561C155.72 79.1213 154.851 78.7695 154.209 78.5303C153.886 78.4095 153.613 78.3149 153.42 78.2497C153.322 78.217 153.245 78.1916 153.19 78.1739C153.162 78.165 153.14 78.158 153.124 78.153L153.105 78.1469L153.095 78.1439C153.095 78.1439 153.095 78.1438 152.507 80.0629L153.095 78.1439C152.04 77.8177 150.923 78.4126 150.598 79.4725C150.274 80.5319 150.865 81.655 151.919 81.9816ZM156.591 84.4007C156.592 84.4008 156.588 84.3925 156.576 84.3756C156.584 84.3921 156.59 84.4006 156.591 84.4007Z" fill="#292929"/>
</svg>
