<svg width="153" height="173" viewBox="0 0 153 173" fill="none" xmlns="http://www.w3.org/2000/svg">
    <path d="M152.5 162.5C152.5 168.299 118.474 173 76.5 173C34.5264 173 0.5 168.299 0.5 162.5C0.5 156.701 34.5264 152 76.5 152C118.474 152 152.5 156.701 152.5 162.5Z" fill="#E0EFF5"/>
    <path fill-rule="evenodd" clip-rule="evenodd" d="M63.1849 121.054C64.274 121.054 65.1569 121.953 65.1569 123.063H63.1849H61.2128C61.2128 121.953 62.0957 121.054 63.1849 121.054ZM53.1489 159.989L53.1689 159.987L53.2381 159.981C53.2998 159.975 53.3919 159.966 53.5104 159.954C53.7475 159.93 54.0893 159.894 54.5032 159.846C55.3337 159.749 56.4423 159.604 57.5721 159.412C58.7147 159.218 59.8206 158.985 60.669 158.722C61.0964 158.59 61.3978 158.468 61.5849 158.369C61.5881 158.368 61.5912 158.366 61.5943 158.364C61.8049 157.915 61.9715 157.231 62.0429 156.215C62.1238 155.063 62.0723 153.672 61.9517 152.035C61.8883 151.175 61.8051 150.248 61.7174 149.271C61.4813 146.638 61.2128 143.646 61.2128 140.643V123.063C61.2128 123.063 61.2128 123.063 63.1849 123.063C65.1569 123.063 65.1569 123.063 65.1569 123.063V140.643C65.1569 143.449 65.3993 146.15 65.6304 148.726C65.7222 149.749 65.8123 150.752 65.8847 151.734C66.0085 153.415 66.0792 155.046 65.9768 156.502C65.8759 157.938 65.5963 159.4 64.8759 160.623C64.4662 161.319 63.8132 161.72 63.3923 161.941C62.9103 162.194 62.3594 162.398 61.8175 162.566C60.7271 162.905 59.4261 163.171 58.2209 163.376C57.0029 163.583 55.8231 163.737 54.952 163.838C54.5151 163.889 54.1529 163.927 53.8987 163.953C53.7715 163.966 53.6711 163.976 53.6017 163.982L53.5214 163.99L53.4995 163.992L53.4934 163.992L53.4915 163.992C53.4915 163.992 53.4905 163.992 53.3195 161.991L53.4915 163.992C52.4065 164.088 51.4493 163.27 51.3549 162.165C51.2605 161.059 52.064 160.085 53.1489 159.989ZM61.7108 158.294C61.7108 158.294 61.7065 158.298 61.696 158.305C61.7051 158.297 61.7108 158.294 61.7108 158.294Z" fill="#292929"/>
    <path fill-rule="evenodd" clip-rule="evenodd" d="M88.6992 121.054C87.6101 121.054 86.7272 121.953 86.7272 123.063H88.6992H90.6713C90.6713 121.953 89.7884 121.054 88.6992 121.054ZM98.7352 159.989L98.7151 159.987L98.646 159.981C98.5843 159.975 98.4922 159.966 98.3737 159.954C98.1366 159.93 97.7948 159.894 97.3809 159.846C96.5504 159.749 95.4418 159.604 94.312 159.412C93.1694 159.218 92.0635 158.985 91.2151 158.722C90.7878 158.59 90.4863 158.468 90.2992 158.369C90.2965 158.368 90.2939 158.367 90.2913 158.365C90.0852 157.917 89.9145 157.198 89.8417 156.115C89.7598 154.898 89.8122 153.43 89.9327 151.749C90.001 150.796 90.0926 149.77 90.188 148.7C90.4185 146.117 90.6713 143.284 90.6713 140.643V123.063C90.6713 123.063 90.6713 123.063 88.6992 123.063C86.7272 123.063 86.7272 123.063 86.7272 123.063V140.643C86.7272 143.095 86.5017 145.617 86.2779 148.12C86.1779 149.238 86.0782 150.353 85.9991 151.456C85.8752 153.185 85.8054 154.881 85.9068 156.39C86.006 157.864 86.2799 159.387 87.0082 160.623C87.4179 161.319 88.0709 161.72 88.4918 161.941C88.9738 162.194 89.5247 162.398 90.0666 162.566C91.157 162.905 92.458 163.171 93.6632 163.376C94.8812 163.583 96.061 163.737 96.9321 163.838C97.369 163.889 97.7312 163.927 97.9854 163.953C98.1126 163.966 98.213 163.976 98.2824 163.982L98.3627 163.99L98.3846 163.992L98.3907 163.992L98.3926 163.992C98.3926 163.992 98.3936 163.992 98.5646 161.991L98.3926 163.992C99.4776 164.088 100.435 163.27 100.529 162.165C100.624 161.059 99.8201 160.085 98.7352 159.989ZM90.1733 158.294C90.1733 158.294 90.1776 158.298 90.1881 158.305C90.179 158.297 90.1733 158.294 90.1733 158.294Z" fill="#292929"/>
    <path fill-rule="evenodd" clip-rule="evenodd" d="M22.0245 85.4572C20.9612 85.2171 19.9081 85.9007 19.6725 86.9841C19.5799 87.4098 19.4959 88.1878 19.4139 89.0591C19.3264 89.989 19.2279 91.1883 19.1207 92.5616C19.0208 93.8396 18.9127 95.2776 18.7981 96.8014L18.772 97.1495C18.6476 98.8036 18.5157 100.553 18.3782 102.311C18.1029 105.831 17.8064 109.37 17.5042 112.241C17.3529 113.677 17.2021 114.928 17.0542 115.917C16.8985 116.958 16.7664 117.559 16.6851 117.792C16.382 118.663 15.5832 119.242 14.4628 119.6C13.932 119.769 13.4168 119.858 13.0289 119.902C12.8378 119.924 12.6849 119.935 12.5857 119.94C12.5362 119.942 12.5006 119.943 12.4809 119.944L12.4674 119.944L12.4695 119.944H12.4707C12.4685 119.944 12.4663 119.944 12.464 119.944C11.3786 119.948 10.5 120.846 10.5 121.953C10.5 123.063 11.3829 123.962 12.472 123.962L12.472 121.953C12.472 123.962 12.4734 123.962 12.4734 123.962H12.475L12.4784 123.962L12.4866 123.962L12.5083 123.962C12.5252 123.962 12.5468 123.962 12.5728 123.961C12.6249 123.96 12.6948 123.957 12.7806 123.953C12.9517 123.945 13.1878 123.928 13.4711 123.895C14.0319 123.831 14.8069 123.701 15.6422 123.434C17.2542 122.92 19.4912 121.754 20.4024 119.135C20.6247 118.497 20.8006 117.543 20.9532 116.522C21.1137 115.45 21.2717 114.132 21.4257 112.669C21.7341 109.741 22.0341 106.156 22.3098 102.63C22.4478 100.865 22.5801 99.1105 22.7045 97.4565L22.7305 97.11C22.8453 95.5843 22.9529 94.1522 23.0523 92.8804C23.1592 91.5111 23.2557 90.3385 23.34 89.4425C23.3822 88.994 23.4204 88.6247 23.4544 88.3398C23.4714 88.1974 23.4865 88.0831 23.4996 87.9948C23.5062 87.9509 23.5117 87.9168 23.5161 87.8912C23.5206 87.8656 23.5231 87.8535 23.5231 87.8535C23.7588 86.7701 23.0878 85.6973 22.0245 85.4572Z" fill="#292929"/>
    <path d="M141.075 64.7963C141.075 100.582 112.711 129.593 77.7234 129.593C42.7354 129.593 14.3719 100.582 14.3719 64.7963C14.3719 29.0103 42.7354 0 77.7234 0C112.711 0 141.075 29.0103 141.075 64.7963Z" fill="#FFB949"/>
    <path d="M77.5496 129.17C111.166 126.437 137.585 98.6143 137.585 64.695C137.585 30.7757 111.166 2.95318 77.5496 0.220284C79.3442 0.0743913 81.1593 0 82.992 0C119.155 0 148.47 28.9649 148.47 64.695C148.47 100.425 119.155 129.39 82.992 129.39C81.1593 129.39 79.3442 129.316 77.5496 129.17Z" fill="#FFA220"/>
    <path d="M139.103 64.7963C139.103 100.582 110.629 129.593 75.5049 129.593C40.3807 129.593 11.9069 100.582 11.9069 64.7963C11.9069 29.0103 40.3807 0 75.5049 0C110.629 0 139.103 29.0103 139.103 64.7963ZM22.2211 64.7963C22.2211 94.7786 46.0771 119.084 75.5049 119.084C104.933 119.084 128.789 94.7786 128.789 64.7963C128.789 34.814 104.933 10.5086 75.5049 10.5086C46.0771 10.5086 22.2211 34.814 22.2211 64.7963Z" fill="#FFCF82"/>
    <path fill-rule="evenodd" clip-rule="evenodd" d="M128.774 85.9033C129.404 85.9524 130.273 86.2118 130.857 87.0601C131.209 87.5714 131.409 88.1704 131.402 88.8141C131.395 89.4243 131.204 89.9337 131.008 90.3066C130.678 90.9373 130.153 91.4911 129.849 91.8128C129.828 91.8347 129.809 91.8555 129.79 91.8752C129.699 91.9719 129.62 92.0556 129.551 92.1316C131.711 94.8734 136.696 99.9372 141.253 104.148C142.364 105.174 143.431 106.133 144.408 106.981C142.393 102.213 139.576 95.9323 137.669 92.1687C137.17 91.1827 137.549 89.9707 138.517 89.4618C139.485 88.9528 140.674 89.3396 141.174 90.3256C144.086 96.0741 149.076 107.55 150.329 111.151C150.4 111.356 150.494 111.68 150.5 112.06C150.505 112.446 150.416 113.144 149.83 113.705C149.259 114.254 148.59 114.309 148.245 114.294C147.892 114.28 147.594 114.186 147.405 114.116C146.713 113.859 145.874 113.283 145.094 112.699C143.412 111.437 141.065 109.399 138.603 107.124C133.715 102.607 128.033 96.8403 125.929 93.9253C125.567 93.4246 125.35 92.8283 125.347 92.177C125.345 91.8447 125.399 91.5417 125.48 91.2741C124.904 91.6128 124.363 91.9576 123.928 92.2449C123.636 92.4373 123.397 92.6009 123.231 92.7155C123.149 92.7727 123.085 92.8175 123.043 92.8473L122.996 92.8805L122.984 92.8891C122.094 93.5283 120.864 93.3118 120.236 92.405C119.608 91.4982 119.821 90.2446 120.711 89.6051L121.848 91.2471C120.711 89.6051 120.711 89.6051 120.711 89.6051L120.719 89.5997L120.735 89.5877C120.75 89.5776 120.77 89.5634 120.795 89.5453C120.847 89.5091 120.92 89.4574 121.013 89.393C121.199 89.2642 121.463 89.0837 121.783 88.8726C122.419 88.453 123.291 87.9007 124.211 87.3925C125.105 86.8983 126.152 86.3851 127.11 86.1105C127.58 85.9756 128.169 85.8562 128.774 85.9033Z" fill="#292929"/>
    <path d="M104.592 60.0245C104.592 47.1249 97.9705 36.6677 89.8021 36.6677C81.6337 36.6677 75.0119 47.1249 75.0119 60.0245C75.0119 72.9241 81.6337 82.1255 89.8021 82.1255C97.9705 82.1255 104.592 72.9241 104.592 60.0245Z" fill="white"/>
    <path d="M79.3473 76.5458C79.3822 76.546 79.4171 76.5462 79.4521 76.5462C90.1225 76.5462 98.7726 65.839 98.7726 52.6312C98.7726 47.1192 97.2661 42.0428 94.735 37.9984C93.1922 37.1367 91.5318 36.6677 89.8021 36.6677C81.6337 36.6677 75.0119 47.1249 75.0119 60.0245C75.0119 66.4771 76.6688 72.3186 79.3473 76.5458Z" fill="#292929"/>
    <path d="M71.0679 56.7595C71.0679 47.605 66.4327 40.1838 60.7148 40.1838C54.9969 40.1838 50.3616 47.605 50.3616 56.7595C50.3616 65.9141 54.9969 73.3353 60.7148 73.3353C66.4327 73.3353 71.0679 65.9141 71.0679 56.7595Z" fill="white"/>
    <path d="M53.3965 68.4843C53.4209 68.4845 53.4454 68.4846 53.4698 68.4846C60.9391 68.4846 66.9942 60.886 66.9942 51.5126C66.9942 47.6009 65.9397 43.9983 64.1679 41.1281C63.0879 40.5165 61.9256 40.1838 60.7148 40.1838C54.9969 40.1838 50.3616 47.605 50.3616 56.7595C50.3616 61.3388 51.5215 65.4844 53.3965 68.4843Z" fill="#292929"/>
    <path d="M118.396 58.0153C118.396 72.0245 107.25 83.3813 93.4996 83.3813C79.7494 83.3813 68.6027 72.0245 68.6027 58.0153C68.6027 44.006 79.7494 32.6493 93.4996 32.6493C107.25 32.6493 118.396 44.006 118.396 58.0153Z" fill="#56AAC8" fill-opacity="0.2"/>
    <path fill-rule="evenodd" clip-rule="evenodd" d="M109.275 77.64C104.981 81.228 99.4869 83.3813 93.4996 83.3813C79.7494 83.3813 68.6027 72.0245 68.6027 58.0153C68.6027 44.006 79.7494 32.6493 93.4996 32.6493C107.25 32.6493 118.396 44.006 118.396 58.0153C118.396 64.1154 116.283 69.7126 112.761 74.0883L129.507 91.149C130.469 92.1298 130.469 93.72 129.507 94.7008C128.544 95.6816 126.983 95.6816 126.021 94.7008L109.275 77.64ZM113.466 58.0153C113.466 69.2504 104.527 78.3583 93.4996 78.3583C82.4722 78.3583 73.5328 69.2504 73.5328 58.0153C73.5328 46.7801 82.4722 37.6723 93.4996 37.6723C104.527 37.6723 113.466 46.7801 113.466 58.0153Z" fill="#56AAC8"/>
    <path fill-rule="evenodd" clip-rule="evenodd" d="M126.386 86.4172C127.368 86.1227 128.599 85.9261 129.8 86.2872L128.685 90.1415C128.531 90.0953 128.16 90.0741 127.5 90.2719C126.873 90.46 126.176 90.7886 125.491 91.179C124.815 91.564 124.206 91.9772 123.763 92.2975C123.543 92.4565 123.368 92.5897 123.25 92.6811C123.191 92.7268 123.147 92.7618 123.119 92.7843C123.105 92.7955 123.095 92.8035 123.089 92.8081L123.085 92.8117C122.237 93.5078 120.996 93.372 120.312 92.5084C119.629 91.6445 119.762 90.3796 120.61 89.6831L121.848 91.2471C120.61 89.683 120.61 89.6831 120.61 89.6831L120.618 89.6765L120.633 89.6643C120.645 89.6544 120.662 89.6409 120.683 89.6242C120.725 89.5906 120.784 89.5438 120.858 89.4858C121.007 89.3701 121.219 89.2091 121.481 89.0201C122.001 88.6444 122.732 88.1466 123.566 87.6716C124.391 87.2019 125.372 86.7214 126.386 86.4172ZM138.517 89.4618C139.485 88.9528 140.674 89.3396 141.174 90.3256C144.086 96.0741 149.076 107.55 150.329 111.151L146.611 112.494C145.436 109.116 140.529 97.8125 137.669 92.1687C137.17 91.1827 137.549 89.9707 138.517 89.4618Z" fill="#292929"/>
    <path fill-rule="evenodd" clip-rule="evenodd" d="M67.6306 88.352C67.5017 87.2501 68.2738 86.2504 69.3553 86.119L87.6413 83.8977C88.7228 83.7663 89.704 84.5531 89.833 85.6549C89.9619 86.7567 89.1898 87.7565 88.1083 87.8878L69.8222 90.1092C68.7408 90.2405 67.7595 89.4538 67.6306 88.352Z" fill="#292929"/>
</svg>
