<svg width="202" height="173" viewBox="0 0 202 173" fill="none" xmlns="http://www.w3.org/2000/svg">
    <path d="M2.75638 72.4228C1.06886 59.6663 10.0192 47.9542 22.7475 46.2629L154.988 28.6919C167.716 27.0006 179.402 35.9707 181.09 48.7272L188.77 106.785C190.458 119.541 181.507 131.253 168.779 132.944L36.5388 150.515C23.8105 152.207 12.1241 143.237 10.4366 130.48L2.75638 72.4228Z" fill="#652505"/>
    <path d="M140.783 46.3869C140.783 72.0057 120.141 92.7738 94.6779 92.7738C69.2147 92.7738 48.5727 72.0057 48.5727 46.3869C48.5727 20.7681 69.2147 0 94.6779 0C120.141 0 140.783 20.7681 140.783 46.3869Z" fill="#FFB949"/>
    <path d="M94.5515 92.4711C119.016 90.5146 138.244 70.5968 138.244 46.3144C138.244 22.032 119.016 2.11415 94.5515 0.1577C95.8575 0.0532562 97.1785 0 98.5122 0C124.83 0 146.165 20.7357 146.165 46.3144C146.165 71.8931 124.83 92.6288 98.5122 92.6288C97.1785 92.6288 95.8575 92.5755 94.5515 92.4711Z" fill="#FFA220"/>
    <path d="M139.348 46.3869C139.348 72.0057 118.626 92.7738 93.0634 92.7738C67.5011 92.7738 46.7787 72.0057 46.7787 46.3869C46.7787 20.7681 67.5011 0 93.0634 0C118.626 0 139.348 20.7681 139.348 46.3869ZM54.2851 46.3869C54.2851 67.8509 71.6467 85.2509 93.0634 85.2509C114.48 85.2509 131.842 67.8509 131.842 46.3869C131.842 24.9229 114.48 7.52296 93.0634 7.52296C71.6467 7.52296 54.2851 24.9229 54.2851 46.3869Z" fill="#FFCF82"/>
    <path d="M94.4986 40.6335C94.4986 34.0799 97.872 28.7671 102.033 28.7671C106.195 28.7671 109.568 34.0799 109.568 40.6335C109.568 47.1871 106.195 52.4999 102.033 52.4999C97.872 52.4999 94.4986 47.1871 94.4986 40.6335Z" fill="white"/>
    <path d="M107.359 49.0271C107.342 49.0272 107.324 49.0273 107.306 49.0273C101.87 49.0273 97.4634 43.5876 97.4634 36.8773C97.4634 34.077 98.2308 31.4979 99.5203 29.4431C100.306 29.0053 101.152 28.7671 102.033 28.7671C106.195 28.7671 109.568 34.0799 109.568 40.6335C109.568 43.9117 108.724 46.8795 107.359 49.0271Z" fill="#292929"/>
    <path d="M74.7648 40.6335C74.7648 34.0799 78.1382 28.7671 82.2995 28.7671C86.4608 28.7671 89.8342 34.0799 89.8342 40.6335C89.8342 47.1871 86.4608 52.4999 82.2995 52.4999C78.1382 52.4999 74.7648 47.1871 74.7648 40.6335Z" fill="white"/>
    <path d="M87.6256 49.0271C87.6078 49.0272 87.59 49.0273 87.5722 49.0273C82.1363 49.0273 77.7296 43.5876 77.7296 36.8773C77.7296 34.077 78.497 31.4979 79.7865 29.4431C80.5725 29.0053 81.4183 28.7671 82.2995 28.7671C86.4608 28.7671 89.8342 34.0799 89.8342 40.6335C89.8342 43.9117 88.9901 46.8795 87.6256 49.0271Z" fill="#292929"/>
    <path fill-rule="evenodd" clip-rule="evenodd" d="M101.037 58.8181C101.618 59.3589 101.651 60.2691 101.111 60.8509C101.054 60.9122 100.994 60.9781 100.93 61.0478C100.097 61.9602 98.6688 63.5247 96.0901 64.1466C92.3613 65.046 89.0373 64.2664 85.6309 62.6463C84.9149 62.3057 84.6098 61.4479 84.9497 60.7302C85.2895 60.0125 86.1455 59.7068 86.8615 60.0474C89.9135 61.4989 92.5441 62.043 95.4186 61.3498C97.1242 60.9384 98.0237 59.9615 98.8441 59.0705C98.8993 59.0106 98.9541 58.9511 99.0088 58.8921C99.5485 58.3103 100.457 58.2772 101.037 58.8181Z" fill="#292929"/>
    <path d="M0.863281 69.899C0.863281 57.0309 11.2719 46.5993 24.1116 46.5993H168.832C181.672 46.5993 192.081 57.0309 192.081 69.899V149.7C192.081 162.568 181.672 173 168.832 173H24.1116C11.2719 173 0.863281 162.568 0.863281 149.7V69.899Z" fill="#B37560"/>
    <path d="M192.081 149.7V69.899C192.081 69.899 152.989 106.45 115.652 122.032C78.3143 137.614 0.863281 149.7 0.863281 149.7C0.863281 162.568 11.2719 173 24.1116 173H168.832C181.672 173 192.081 162.568 192.081 149.7Z" fill="#652505" fill-opacity="0.4"/>
    <path d="M134.541 101.354C134.541 94.9195 139.745 89.7037 146.165 89.7037H189.756C196.176 89.7037 201.38 94.9195 201.38 101.354V114.751C201.38 121.185 196.176 126.401 189.756 126.401H146.165C139.745 126.401 134.541 121.185 134.541 114.751V101.354Z" fill="#B37560"/>
    <path fill-rule="evenodd" clip-rule="evenodd" d="M189.756 92.0337H146.165C141.029 92.0337 136.866 96.2063 136.866 101.354V114.751C136.866 119.898 141.029 124.071 146.165 124.071H189.756C194.892 124.071 199.055 119.898 199.055 114.751V101.354C199.055 96.2063 194.892 92.0337 189.756 92.0337ZM146.165 89.7037C139.745 89.7037 134.541 94.9195 134.541 101.354V114.751C134.541 121.185 139.745 126.401 146.165 126.401H189.756C196.176 126.401 201.38 121.185 201.38 114.751V101.354C201.38 94.9195 196.176 89.7037 189.756 89.7037H146.165Z" fill="#652505"/>
    <path d="M162.439 107.761C162.439 112.586 158.536 116.498 153.721 116.498C148.906 116.498 145.003 112.586 145.003 107.761C145.003 102.935 148.906 99.0236 153.721 99.0236C158.536 99.0236 162.439 102.935 162.439 107.761Z" fill="#FFB949"/>
</svg>
