<svg width="29" height="115" viewBox="0 0 29 115" fill="none" xmlns="http://www.w3.org/2000/svg">
    <path fill-rule="evenodd" clip-rule="evenodd"
          d="M28.2262 0.634713C27.7485 -0.0420825 26.8125 -0.203439 26.1357 0.274314C12.8473 9.65464 6.39759 27.2072 4.39934 47.5445C2.54458 66.4215 4.49093 87.9982 8.62486 108.44L2.55629 102.434C1.96748 101.851 1.01774 101.856 0.434998 102.445C-0.14775 103.034 -0.142832 103.984 0.445977 104.566L10.0745 114.096C10.4118 114.43 10.8872 114.584 11.3564 114.512C11.8255 114.441 12.2331 114.151 12.4552 113.732L18.8267 101.702C19.2144 100.97 18.9353 100.062 18.2032 99.6747C17.4712 99.2869 16.5634 99.566 16.1756 100.298L11.7356 108.681C7.52472 88.1884 5.54237 66.591 7.38497 47.8378C9.3545 27.7927 15.6546 11.3451 27.8658 2.72519C28.5426 2.24744 28.704 1.3115 28.2262 0.634713Z"
          fill="white"/>
</svg>
