<svg width="255" height="106" viewBox="0 0 255 106" fill="none" xmlns="http://www.w3.org/2000/svg">
    <path fill-rule="evenodd" clip-rule="evenodd" d="M75 17.5V104.5C75 105.328 74.3284 106 73.5 106C72.6716 106 72 105.328 72 104.5V17.5H73.5C72 17.5 72 17.4986 72 17.4986V17.4968L72 17.4921L72.0001 17.4784L72.0005 17.4337C72.0011 17.3964 72.002 17.3442 72.0039 17.2781C72.0076 17.146 72.0149 16.9581 72.0291 16.7223C72.0575 16.2511 72.1138 15.586 72.2256 14.7911C72.448 13.209 72.8957 11.0734 73.8055 8.91695C74.7149 6.76134 76.1118 4.52462 78.2654 2.82305C80.4415 1.10364 83.3043 0 87 0C90.6957 0 93.5585 1.10364 95.7346 2.82305C97.8882 4.52462 99.2851 6.76134 100.195 8.91695C101.104 11.0734 101.552 13.209 101.774 14.7911C101.886 15.586 101.943 16.2511 101.971 16.7223C101.985 16.9581 101.992 17.146 101.996 17.2781C101.998 17.3442 101.999 17.3964 101.999 17.4337L102 17.4784L102 17.4921L102 17.4968V17.4986C102 17.4986 102 17.5 100.5 17.5H102V40.7657C102.828 39.406 103.893 38.1041 105.265 37.0196C107.441 35.3002 110.304 34.1965 114 34.1965C117.696 34.1965 120.559 35.3002 122.735 37.0196C124.888 38.7212 126.285 40.9579 127.195 43.1135C127.303 43.37 127.404 43.6263 127.5 43.8813C127.596 43.6263 127.697 43.37 127.805 43.1135C128.715 40.9579 130.112 38.7212 132.265 37.0196C134.441 35.3002 137.304 34.1965 141 34.1965C144.696 34.1965 147.559 35.3002 149.735 37.0196C151.888 38.7212 153.285 40.9579 154.195 43.1135C155.104 45.2699 155.552 47.4056 155.774 48.9877C155.883 49.7587 155.939 50.4076 155.968 50.8759C156.8 49.4972 157.875 48.1758 159.265 47.0774C161.441 45.358 164.304 44.2543 168 44.2543C171.696 44.2543 174.559 45.358 176.735 47.0774C178.888 48.779 180.285 51.0157 181.195 53.1713C182.104 55.3277 182.552 57.4634 182.774 59.0455C182.886 59.8404 182.943 60.5054 182.971 60.9766C182.985 61.2124 182.992 61.4004 182.996 61.5325C182.998 61.5986 182.999 61.6507 182.999 61.688L183 61.7327L183 61.7464L183 61.7511V61.7529C183 61.7529 183 61.7543 181.5 61.7543H183V104.5C183 105.328 182.328 106 181.5 106C180.672 106 180 105.328 180 104.5V61.7543L180 61.7528L180 61.7288C180 61.7182 179.999 61.7046 179.999 61.688C179.999 61.6683 179.998 61.6446 179.997 61.6168C179.994 61.5146 179.988 61.3587 179.976 61.1571C179.952 60.7533 179.903 60.1683 179.804 59.4632C179.604 58.0453 179.208 56.1809 178.43 54.3374C177.652 52.493 176.518 50.7297 174.875 49.4313C173.254 48.1507 171.054 47.2543 168 47.2543C164.946 47.2543 162.746 48.1507 161.125 49.4313C159.482 50.7297 158.348 52.493 157.57 54.3374C156.792 56.1809 156.396 58.0453 156.196 59.4632C156.097 60.1683 156.048 60.7533 156.024 61.1571C156.012 61.3587 156.006 61.5146 156.003 61.6168C156.001 61.6679 156.001 61.7056 156 61.7288L156 61.7528L156 61.7543V86.5C156 87.3284 155.328 88 154.5 88C153.672 88 153 87.3284 153 86.5V51.6965L153 51.695L153 51.671C152.999 51.6478 152.999 51.6101 152.997 51.559C152.994 51.4568 152.988 51.3009 152.976 51.0993C152.952 50.6955 152.903 50.1105 152.804 49.4054C152.604 47.9875 152.208 46.1231 151.43 44.2796C150.652 42.4352 149.518 40.6719 147.875 39.3735C146.254 38.0929 144.054 37.1965 141 37.1965C137.946 37.1965 135.746 38.0929 134.125 39.3735C132.482 40.6719 131.348 42.4352 130.57 44.2796C129.792 46.1231 129.396 47.9875 129.196 49.4054C129.097 50.1105 129.048 50.6955 129.024 51.0993C129.012 51.3009 129.006 51.4568 129.003 51.559C129.001 51.6101 129.001 51.6478 129 51.671L129 51.695L129 86.5C129 87.3284 128.328 88 127.5 88C126.672 88 126 87.3284 126 86.5V51.6951L126 51.671C125.999 51.6478 125.999 51.6101 125.997 51.559C125.994 51.4568 125.989 51.3009 125.976 51.0993C125.952 50.6955 125.903 50.1105 125.804 49.4054C125.604 47.9875 125.208 46.1231 124.43 44.2796C123.652 42.4352 122.518 40.6719 120.875 39.3735C119.254 38.0929 117.054 37.1965 114 37.1965C110.946 37.1965 108.746 38.0929 107.125 39.3735C105.482 40.6719 104.348 42.4352 103.57 44.2796C102.792 46.1231 102.396 47.9875 102.196 49.4054C102.097 50.1105 102.048 50.6955 102.024 51.0993C102.011 51.3009 102.006 51.4568 102.003 51.559C102.001 51.6101 102.001 51.6478 102 51.671L102 51.6965V86.5C102 87.3284 101.328 88 100.5 88C99.6716 88 99 87.3284 99 86.5V51.6951V51.6933V17.5021V17.5011V17.5L98.9997 17.4745C98.9994 17.4513 98.9987 17.4136 98.9973 17.3625C98.9944 17.2602 98.9885 17.1044 98.9763 16.9027C98.952 16.4989 98.9028 15.914 98.8037 15.2089C98.6043 13.791 98.2082 11.9266 97.4305 10.0831C96.6524 8.23866 95.5181 6.47538 93.8747 5.17695C92.254 3.89636 90.0543 3 87 3C83.9457 3 81.746 3.89636 80.1253 5.17695C78.4819 6.47538 77.3476 8.23866 76.5695 10.0831C75.7918 11.9266 75.3957 13.791 75.1963 15.2089C75.0972 15.914 75.048 16.4989 75.0237 16.9027C75.0115 17.1044 75.0056 17.2602 75.0027 17.3625C75.0013 17.4136 75.0006 17.4513 75.0003 17.4745L75 17.5ZM155.504 51.6965H154.5C154.963 51.6965 155.283 51.6966 155.504 51.6965Z" fill="white"/>
    <path fill-rule="evenodd" clip-rule="evenodd" d="M9.98528 64.1066L0.439339 54.5607C-0.146446 53.9749 -0.146446 53.0251 0.439339 52.4393L9.98528 42.8934C10.5711 42.3076 11.5208 42.3076 12.1066 42.8934C12.6924 43.4792 12.6924 44.4289 12.1066 45.0147L5.12132 52H41.5C42.3284 52 43 52.6716 43 53.5C43 54.3284 42.3284 55 41.5 55H5.12132L12.1066 61.9853C12.6924 62.5711 12.6924 63.5208 12.1066 64.1066C11.5208 64.6924 10.5711 64.6924 9.98528 64.1066Z" fill="white"/>
    <path fill-rule="evenodd" clip-rule="evenodd" d="M245.015 42.8934L254.561 52.4393C255.146 53.0251 255.146 53.9749 254.561 54.5607L245.015 64.1066C244.429 64.6924 243.479 64.6924 242.893 64.1066C242.308 63.5208 242.308 62.5711 242.893 61.9853L249.879 55H213.5C212.672 55 212 54.3284 212 53.5C212 52.6716 212.672 52 213.5 52H249.879L242.893 45.0147C242.308 44.4289 242.308 43.4792 242.893 42.8934C243.479 42.3076 244.429 42.3076 245.015 42.8934Z" fill="white"/>
</svg>
